<svg xmlns="http://www.w3.org/2000/svg" xmlns:xlink="http://www.w3.org/1999/xlink" version="1.1" x="0px" y="0px" viewBox="0 0 100 125" style="enable-background:new 0 0 100 100;" xml:space="preserve"><g><path d="M10,52.7c1,0,2-0.4,2.8-1.2l2.2-2.2v34.4c0,2.9,2.3,5.2,5.2,5.2h55.5c2.9,0,5.2-2.3,5.2-5.2V49.3l2.2,2.2   c1.6,1.6,4.1,1.5,5.7,0c1.6-1.6,1.5-4.1,0-5.7L77,34.1V17c0-2.9-1.8-6-5-6h-7c-1.2,0-2.4,0.5-3.2,1.4C60.1,14,60,16.5,60,17   l-8.3-8.3c-1-1-2.3-1.5-3.7-1.5s-2.7,0.5-3.7,1.5L7.2,45.8c-1.6,1.6-1.6,4.1,0,5.7C8,52.3,9,52.7,10,52.7z M55,81H41V55h14V81z    M23,41.3l25-25l11.1,11.1c1.5,1.5,3.7,1.9,5.7,1.1c2-0.8,3.2-2.7,3.2-4.8l0-4.7h1v16.3c0,1.4,0.6,2.7,1.5,3.7l2.5,2.4V81H63V53   c0-2.9-1.8-6-5-6H38.5c-3.3,0-5.5,3.6-5.5,6v28H23V41.3z" stroke="none"
     fill="#707070"
     fill-rule="nonzero" /><path d="M48.5,44c4.1,0,7.5-3.4,7.5-7.5S52.6,29,48.5,29S41,32.4,41,36.5S44.4,44,48.5,44z M48.5,36c0.3,0,0.5,0.2,0.5,0.5   S48.8,37,48.5,37S48,36.8,48,36.5S48.2,36,48.5,36z" stroke="none"
     fill="#707070"
     fill-rule="nonzero" /></g></svg>