<svg xmlns="http://www.w3.org/2000/svg" data-name="Layer 1" viewBox="0 0 100 125" x="0px" y="0px"><title>Artboard 64</title><path d="M50,82A31.94,31.94,0,0,0,81.43,55.93a8,8,0,0,0-7.82-9.69h0a8,8,0,0,0-4.7,1.54A11.88,11.88,0,0,1,62,50,12,12,0,0,1,50,38a11.88,11.88,0,0,1,2.27-6.95,8,8,0,0,0-7.91-12.53A32,32,0,0,0,50,82ZM45.76,26.4A19.94,19.94,0,0,0,73.6,54.24,24,24,0,1,1,45.76,26.4Z"/><text x="0" y="115" fill="#000000" font-size="5px" font-weight="bold" font-family="'Helvetica Neue', Helvetica, Arial-Unicode, Arial, Sans-serif">Created by Gregor Cresnar</text><text x="0" y="120" fill="#000000" font-size="5px" font-weight="bold" font-family="'Helvetica Neue', Helvetica, Arial-Unicode, Arial, Sans-serif">from the Noun Project</text></svg>