<svg xmlns="http://www.w3.org/2000/svg" viewBox="0 0 100 125" x="0px" y="0px"><path d="M95.61,17c-.39-2.59-2.3-3.95-5.11-3.63-7.22,.82-13.51,10.08-16.83,15.98-1.03-.59-2.12-1.06-3.26-1.4-1.14-.34-2.31-.54-3.5-.6,.44-6.75,.2-17.94-5.41-22.56-2.18-1.8-4.52-1.7-6.26,.27-3.66,4.13-4.44,18.18-.34,26.19-3.67,2.69-6.4,6.4-7.58,10.37-.84,2.85-.78,5.58,.06,8.08-1.05-1.25-2.12-2.47-3.18-3.65,1.23-2.21,1.26-4.62,.03-6.55,2.97-.66,4.97-3.49,4.97-7.24s-2-6.58-4.97-7.24c1.63-2.56,1.04-5.98-1.61-8.63-2.65-2.65-6.07-3.24-8.63-1.61-.66-2.97-3.49-4.97-7.24-4.97s-6.58,2-7.24,4.97c-2.56-1.63-5.98-1.04-8.63,1.61-2.65,2.65-3.24,6.07-1.61,8.63-2.97,.66-4.97,3.49-4.97,7.24s2,6.58,4.97,7.24c-1.63,2.56-1.04,5.98,1.61,8.63,1.67,1.67,3.64,2.52,5.51,2.52,1.1,0,2.17-.31,3.12-.92,.66,2.97,3.49,4.97,7.24,4.97s6.58-2,7.24-4.97c.95,.61,2.02,.92,3.12,.92,1.74,0,3.56-.75,5.15-2.19,1.47,1.64,2.94,3.35,4.36,5.1-4.69,3.91-12.52,13.31-11.31,31.97-3.61-.1-7.49,.45-9.17,2.67-.88,1.16-1.52,3.23,.43,6.44,.68,1.12,1.97,1.82,3.38,1.82h19.62c.59,0,1.16-.13,1.68-.35,1.8,.25,3.68,.4,5.6,.4,.57,0,1.15-.01,1.73-.04h22.98c.67,0,1.26-.45,1.44-1.1,.95-3.38,.56-5.97-1.14-7.7-2.12-2.14-5.67-2.24-8.21-1.97,3.69-9.4,1.48-18.41-1.08-24.4,.46-.11,.92-.25,1.36-.4,4.21-1.45,7.12-4.53,8.41-8.91,1.18-3.98,.9-8.58-.71-12.83,7.8-4.49,14.79-16.7,13.98-22.15Zm-16.15,34.13c-1.02,3.45-3.21,5.78-6.51,6.92-3.13,1.08-7.16,.99-11.37-.26-7.07-2.1-13.78-7.22-11.37-15.33,1.09-3.68,3.92-7.25,7.56-9.56,2.7-1.71,5.55-2.58,8.29-2.58,1.2,0,2.37,.17,3.5,.5,3.74,1.11,6.85,4.01,8.76,8.17,1.8,3.92,2.23,8.46,1.14,12.14Zm-9.46,35.37c-1.34,.57-2.77,.86-4.27,.81h-.19c-.83,0-1.45,.67-1.45,1.5s.72,1.5,1.55,1.5c.14,0,.28,0,.42,0,1.93,0,3.77-.42,5.5-1.22,1.63-.42,6.38-1.14,8.16,.67,.74,.75,.96,1.99,.64,3.69h-21.23c-.46-.5-.86-1.13-.81-1.46,.03-.19,.35-.46,.84-.68,.75-.35,1.08-1.24,.73-1.99-.35-.75-1.24-1.08-1.99-.73-1.9,.88-2.44,2.13-2.56,3.02-.09,.66,.04,1.29,.26,1.86-.72-.03-1.43-.08-2.14-.15,.07-.49,.04-.99-.11-1.47-.24-.77-.87-1.79-2.49-2.32-.79-.26-1.63,.17-1.89,.96-.26,.79,.17,1.63,.96,1.89,.23,.07,.51,.2,.56,.38,.01,.04,.04,.13-.07,.29-.15,.2-.47,.4-.87,.4H29.95c-.35,0-.67-.15-.81-.37-.59-.98-1.18-2.3-.6-3.07,1.5-1.98,8.66-1.79,12.58-.71,.79,.22,1.62-.25,1.85-1.04,.22-.8-.25-1.62-1.04-1.85-.83-.23-2.1-.48-3.57-.66-1.26-17.65,5.96-26.35,10.15-29.86,1.03,1.33,2.03,2.69,2.99,4.06-.22-.02-.45,0-.68,.09-.77,.3-1.15,1.17-.85,1.94,.09,.24,2.31,5.82,7.36,8.54,.38,.2,.55,.43,.53,.69-.05,.45-.6,1.04-1.56,1.31-2.36,.67-6.5-.73-11.08-6.63-.51-.66-1.45-.77-2.11-.27-.65,.51-.77,1.45-.27,2.1,3.92,5.05,7.42,7.02,10.07,7.66-.2,.42-.32,.87-.33,1.35-.05,1.69,1.11,3.31,2.95,4.13,.64,.28,1.66,.6,3.04,.6,.68,0,1.44-.08,2.29-.27,.16,1.58,.15,3.12-.05,4.62-.11,.82,.47,1.58,1.29,1.69,.07,0,.13,.01,.2,.01,.74,0,1.38-.55,1.48-1.3,.26-1.97,.24-3.99-.03-6.06,1.9-.91,4.08-2.39,6.52-4.73,.6-.57,.62-1.52,.05-2.12-.57-.6-1.52-.62-2.12-.05-5.24,5.01-9.35,5.8-11.45,4.87-.79-.35-1.19-.92-1.17-1.3,0-.29,.33-.47,.59-.57,5.19-1.94,8.14-6.94,8.26-7.15,.42-.71,.17-1.63-.54-2.05-.72-.42-1.63-.17-2.05,.54-.01,.02-.48,.81-1.34,1.82-1.9-4.18-4.46-8.35-7.33-12.35,2.08,1.48,4.6,2.7,7.57,3.58,2.57,.76,5.05,1.14,7.37,1.14,.46,0,.9-.02,1.35-.05,2.62,5.87,5.15,15.33,.56,24.74ZM58.38,6.5c.31,0,.69,.16,1.22,.59,4.4,3.62,4.76,13.59,4.31,20.39-2.17,.29-4.35,1.01-6.46,2.15-3.32-6.81-2.85-19.34,.04-22.6,.26-.29,.52-.53,.89-.53Zm21.99,29.92c-1.15-2.11-2.58-3.9-4.25-5.32,3.32-5.95,9.06-14.11,14.72-14.75,1.49-.17,1.7,.4,1.8,1.09,.64,4.31-5.78,15.08-12.27,18.98Zm-45.17,10.49c-1.64-1.46-3.01-3.28-4.12-5.43,2.15-1.01,3.88-2.75,4.89-4.89,2.16,1.11,3.97,2.48,5.43,4.12,1.63,1.83,.2,4.19-.91,5.3-1.11,1.1-3.47,2.54-5.3,.91Zm-8.45,4.79c-1.56,0-4.24-.65-4.39-3.1-.03-.53-.03-1.07-.01-1.61,1.14-1.37,2.14-2.91,2.98-4.63,.46,.07,.94,.11,1.42,.11s.95-.05,1.42-.11c.84,1.73,1.84,3.26,2.98,4.63,.02,.54,.02,1.08-.01,1.62-.14,2.45-2.82,3.1-4.39,3.1Zm-13.75-5.69c-1.1-1.1-2.54-3.46-.91-5.3,1.46-1.64,3.28-3.01,5.43-4.12,1.01,2.15,2.75,3.88,4.89,4.89-1.11,2.16-2.48,3.97-4.12,5.43-1.83,1.63-4.19,.2-5.3-.91Zm3.41-29.14c.64,0,1.29,.21,1.89,.74,1.64,1.46,3.01,3.28,4.12,5.43-2.15,1.01-3.88,2.75-4.89,4.89-2.16-1.11-3.97-2.48-5.43-4.12-1.63-1.83-.2-4.19,.91-5.3,.75-.75,2.07-1.64,3.41-1.64Zm10.34-4.05c1.56,0,4.25,.65,4.39,3.1,.03,.53,.03,1.07,.01,1.62-1.14,1.37-2.14,2.91-2.98,4.63-.47-.07-.94-.11-1.42-.11s-.95,.05-1.42,.11c-.84-1.73-1.84-3.26-2.98-4.63-.02-.54-.02-1.08,.01-1.61,.14-2.45,2.82-3.1,4.39-3.1Zm13.75,5.69c1.1,1.1,2.54,3.46,.91,5.3-1.46,1.64-3.28,3.01-5.43,4.12-1.01-2.15-2.75-3.88-4.89-4.89,1.11-2.16,2.48-3.97,4.12-5.43,.59-.53,1.24-.74,1.89-.74,1.34,0,2.66,.9,3.41,1.64Zm-13.75,20.95c-3.97,0-7.2-3.23-7.2-7.2s3.23-7.2,7.2-7.2,7.2,3.23,7.2,7.2-3.23,7.2-7.2,7.2Zm16.34-2.82c-.53,.03-1.07,.03-1.62,.01-1.37-1.14-2.91-2.14-4.63-2.98,.07-.47,.11-.94,.11-1.42s-.05-.95-.11-1.42c1.73-.84,3.26-1.84,4.63-2.98,.54-.02,1.08-.02,1.61,.02,2.45,.14,3.1,2.82,3.1,4.39s-.65,4.24-3.1,4.39ZM10.42,27.87c.32-.02,.64-.03,.96-.03,.22,0,.45,.02,.68,.03,1.37,1.13,2.89,2.13,4.61,2.96-.07,.46-.11,.94-.11,1.42s.05,.95,.11,1.42c-1.73,.84-3.26,1.84-4.63,2.98-.54,.02-1.08,.02-1.61-.01-2.45-.14-3.1-2.82-3.1-4.39s.65-4.24,3.1-4.39Z"/><path d="M64.84,53.23c2.48,0,4.83-1.38,5.43-3.43,.7-2.37-1.13-4.58-4.67-5.63-3.54-1.05-6.27-.19-6.98,2.18-.37,1.24-.08,2.69,.78,3.98,.85,1.26,2.12,2.2,3.59,2.64,.6,.18,1.22,.26,1.84,.26Zm-3.33-6.02c.08-.29,.56-.48,1.3-.48,.53,0,1.19,.1,1.95,.32,1.82,.54,2.79,1.41,2.64,1.9-.21,.71-1.81,1.66-3.54,1.14-.79-.23-1.5-.75-1.95-1.43-.43-.64-.48-1.18-.4-1.46Z"/><path d="M73.88,39.87c.24-.79-.22-1.63-1.01-1.86-.79-.23-1.63,.22-1.86,1.01l-.37,1.25c-.24,.79,.22,1.63,1.01,1.86,.14,.04,.29,.06,.43,.06,.65,0,1.24-.42,1.44-1.07l.37-1.25Z"/><path d="M61.02,36.06l-.37,1.25c-.24,.79,.22,1.63,1.01,1.86,.14,.04,.29,.06,.43,.06,.65,0,1.24-.42,1.44-1.07l.37-1.25c.24-.79-.22-1.63-1.01-1.86s-1.63,.22-1.87,1.01Z"/><text x="0" y="115" fill="#000000" font-size="5px" font-weight="bold" font-family="'Helvetica Neue', Helvetica, Arial-Unicode, Arial, Sans-serif">Created by Lars Meiertoberens</text><text x="0" y="120" fill="#000000" font-size="5px" font-weight="bold" font-family="'Helvetica Neue', Helvetica, Arial-Unicode, Arial, Sans-serif">from the Noun Project</text></svg>