<svg xmlns="http://www.w3.org/2000/svg" viewBox="0 0 32 40" x="0px" y="0px"><path d="M21,12H11a1,1,0,0,1-1-1V8A6,6,0,0,1,22,8v3A1,1,0,0,1,21,12Zm-9-2h8V8a4,4,0,0,0-8,0Z"/><path d="M21.52,30h-11a7,7,0,0,1-6.83-8.52l2-9.13A3,3,0,0,1,8.6,10H23.4a3,3,0,0,1,2.92,2.35l2,9.13A7,7,0,0,1,21.52,30ZM8.6,12a1,1,0,0,0-1,.78l-2,9.14A5,5,0,0,0,10.48,28h11a5,5,0,0,0,4.88-6.08l-2-9.14a1,1,0,0,0-1-.78Z"/><path d="M14.31,22.79a1,1,0,0,1-.71-.29l-2.39-2.4a1,1,0,0,1,1.41-1.41l1.72,1.71,4.48-4.13a1,1,0,1,1,1.36,1.46L15,22.52A1,1,0,0,1,14.31,22.79Z"/><text x="0" y="47" fill="#000000" font-size="5px" font-weight="bold" font-family="'Helvetica Neue', Helvetica, Arial-Unicode, Arial, Sans-serif">Created by kitaicons</text><text x="0" y="52" fill="#000000" font-size="5px" font-weight="bold" font-family="'Helvetica Neue', Helvetica, Arial-Unicode, Arial, Sans-serif">from the Noun Project</text></svg>