<svg xmlns="http://www.w3.org/2000/svg" xmlns:xlink="http://www.w3.org/1999/xlink" version="1.1" x="0px" y="0px" viewBox="0 0 100 100" style="enable-background:new 0 0 100 100;" xml:space="preserve"><g><path d="M73.2,45.5l-15.8,0c-1.6,0-2.9-1.3-2.9-2.9l0-15.6c0-2.4-1.7-4.5-4.1-4.7c-2.7-0.3-5,1.9-5,4.5v15.8c0,1.6-1.3,2.9-2.9,2.9   H27c-2.6,0-4.8,2.1-4.7,4.7c0,1.2,0.5,2.3,1.3,3c0.8,0.8,1.9,1.3,3.2,1.3l15.8,0c1.6,0,2.9,1.3,2.9,2.9l0,15.8   c0,1.2,0.5,2.4,1.3,3.2c0.8,0.8,1.8,1.3,3,1.3c2.6,0.1,4.7-2.2,4.7-4.7c0-4,0-11.2,0-15.6c0-1.6,1.3-2.9,2.9-2.9H73   c2.4,0,4.5-1.7,4.7-4.1C78,47.8,75.8,45.5,73.2,45.5z" fill="#ffffff"/><path d="M75.6,2.5H24.4c-12,0-21.9,9.8-21.9,21.9v51.3c0,12,9.8,21.9,21.9,21.9h51.3c12,0,21.9-9.8,21.9-21.9V24.4   C97.5,12.3,87.7,2.5,75.6,2.5z M88.5,75.6c0,7.1-5.7,12.8-12.8,12.8H24.4c-7.1,0-12.8-5.7-12.8-12.8V24.4c0-7.1,5.7-12.8,12.8-12.8   h51.3c7.1,0,12.8,5.7,12.8,12.8V75.6z" fill="#ffffff" /></g></svg>