<svg xmlns="http://www.w3.org/2000/svg" data-name="Layer 1" viewBox="0 0 100 125" x="0px" y="0px"><title>10</title><path d="M71.31,9.32a4,4,0,0,0-3-1.32H21.5a12,12,0,0,0-12,12V80a12,12,0,0,0,12,12h57a12,12,0,0,0,12-12V32.17a4,4,0,0,0-1-2.68ZM31,16H59V27.5H31ZM82.5,80a4,4,0,0,1-4,4h-57a4,4,0,0,1-4-4V20a4,4,0,0,1,4-4H23V27.5a8,8,0,0,0,8,8H59a8,8,0,0,0,8-8v-11L82.5,33.7Z"/><path d="M50,41.28A17.85,17.85,0,1,0,67.85,59.12,17.87,17.87,0,0,0,50,41.28ZM50,69a9.85,9.85,0,1,1,9.85-9.85A9.86,9.86,0,0,1,50,69Z"/><text x="0" y="115" fill="#000000" font-size="5px" font-weight="bold" font-family="'Helvetica Neue', Helvetica, Arial-Unicode, Arial, Sans-serif">Created by Popular</text><text x="0" y="120" fill="#000000" font-size="5px" font-weight="bold" font-family="'Helvetica Neue', Helvetica, Arial-Unicode, Arial, Sans-serif">from the Noun Project</text></svg>