<svg xmlns="http://www.w3.org/2000/svg" data-name="Layer 1" viewBox="0 0 100 125" x="0px" y="0px"><title>Artboard 9</title><path d="M70,20H30A12,12,0,0,0,18,32V68A12,12,0,0,0,30,80H70A12,12,0,0,0,82,68V32A12,12,0,0,0,70,20Zm4,48a4,4,0,0,1-4,4H30a4,4,0,0,1-4-4V44.63l14.42,10.3a16.48,16.48,0,0,0,19.16,0L74,44.63Zm0-33.2L54.93,48.42a8.61,8.61,0,0,1-9.86,0L26,34.8V32a4,4,0,0,1,4-4H70a4,4,0,0,1,4,4Z"/><text x="0" y="115" fill="#000000" font-size="5px" font-weight="bold" font-family="'Helvetica Neue', Helvetica, Arial-Unicode, Arial, Sans-serif">Created by Gregor Cresnar</text><text x="0" y="120" fill="#000000" font-size="5px" font-weight="bold" font-family="'Helvetica Neue', Helvetica, Arial-Unicode, Arial, Sans-serif">from the Noun Project</text></svg>