<svg xmlns="http://www.w3.org/2000/svg" xmlns:xlink="http://www.w3.org/1999/xlink" version="1.1" x="0px" y="0px" viewBox="0 0 100 125" style="enable-background:new 0 0 100 100;" xml:space="preserve"><g><path d="M11.4,49.3l5.6-5.6v39.1c0,1.8,1.4,3.2,3.2,3.2h55.5c1.8,0,3.2-1.4,3.2-3.2v-39l5.6,5.5c0.4,0.4,0.9,0.6,1.4,0.6   c0.5,0,1-0.2,1.4-0.6c0.8-0.8,0.8-2.1,0-2.8L75,34.2V16.2c0-1.8-1.4-3.2-3.2-3.2h-6.5c-0.9,0-1.7,0.3-2.3,0.9   c-0.6,0.6-0.9,1.4-0.9,2.3l0,4.8L50.3,9.3c-1.2-1.2-3.4-1.2-4.6,0L8.6,46.5c-0.8,0.8-0.8,2,0,2.8C9.4,50.1,10.6,50.1,11.4,49.3z    M57,82H39V51h18V82z M48,12.7l12.5,12.5c0.9,0.9,2.3,1.2,3.5,0.7c1.2-0.5,2-1.7,2-3l0-5.9h5v17.5c0,0.9,0.3,1.7,1,2.3l3.1,3.1   c0,0.1,0,0.3,0,0.4V82H61V50.2c0-1.8-1.4-3.2-3.2-3.2H38.2c-1.8,0-3.2,1.4-3.2,3.2V82H21V40.2c0-0.2,0-0.3-0.1-0.5L48,12.7z"/><path d="M50,44c3,0,5.5-2.5,5.5-5.5S53,33,50,33s-5.5,2.5-5.5,5.5S47,44,50,44z M50,37c0.8,0,1.5,0.7,1.5,1.5S50.8,40,50,40   s-1.5-0.7-1.5-1.5S49.2,37,50,37z"/></g><text x="0" y="115" fill="#000000" font-size="5px" font-weight="bold" font-family="'Helvetica Neue', Helvetica, Arial-Unicode, Arial, Sans-serif">Created by Trident</text><text x="0" y="120" fill="#000000" font-size="5px" font-weight="bold" font-family="'Helvetica Neue', Helvetica, Arial-Unicode, Arial, Sans-serif">from the Noun Project</text></svg>