<svg xmlns="http://www.w3.org/2000/svg" xmlns:xlink="http://www.w3.org/1999/xlink" version="1.1" x="0px" y="0px" viewBox="0 0 100 125" style="enable-background:new 0 0 100 100;" xml:space="preserve"><path d="M80,57.9c3.2-2.6,5.3-6.6,5.3-11.1c0-7.9-6.4-14.3-14.3-14.3s-14.3,6.4-14.3,14.3c0,4.5,2.2,8.6,5.5,11.2  c-0.5,0.2-1,0.4-1.5,0.6c-3.9-4-8.9-7-14.4-8.7c5-3.3,8.4-9,8.4-15.4c0-10.1-8.2-18.4-18.4-18.4S18,24.4,18,34.6  c0,6.5,3.4,12.3,8.6,15.5C13.4,54.2,3.7,66.3,3.2,80.9c0,0.8,0.3,1.5,0.8,2s1.2,0.8,2,0.8h42.7h18.9H94c0.8,0,1.5-0.3,2-0.8  c0.5-0.6,0.8-1.3,0.8-2C96.4,70.2,89.6,61.3,80,57.9z M71.1,38.1c4.8,0,8.7,3.9,8.7,8.7s-3.9,8.7-8.7,8.7c-4.8,0-8.7-3.9-8.7-8.7  S66.3,38.1,71.1,38.1z M23.6,34.6c0-7.1,5.8-12.8,12.8-12.8s12.8,5.8,12.8,12.8s-5.8,12.8-12.8,12.8S23.6,41.7,23.6,34.6z   M46.1,78.2H9C10.8,64.4,22.6,54,36.8,54c7.4,0,14.1,2.8,19.1,7.5C50.7,65.5,47.1,71.4,46.1,78.2z M51.7,78.2  c1.7-9.3,9.8-16.3,19.6-16.3s17.9,7,19.6,16.3H51.7z"
     fill="#707070"
     /></svg>