<svg xmlns:dc="http://purl.org/dc/elements/1.1/" xmlns:cc="http://creativecommons.org/ns#" xmlns:rdf="http://www.w3.org/1999/02/22-rdf-syntax-ns#" xmlns:svg="http://www.w3.org/2000/svg" xmlns="http://www.w3.org/2000/svg" xmlns:sodipodi="http://sodipodi.sourceforge.net/DTD/sodipodi-0.dtd" xmlns:inkscape="http://www.inkscape.org/namespaces/inkscape" viewBox="0 0 8.4666667 10.583333625" version="1.1" x="0px" y="0px"><svg:g><svg:path style="color:#000000;font-style:normal;font-variant:normal;font-weight:normal;font-stretch:normal;font-size:medium;line-height:normal;font-family:sans-serif;font-variant-ligatures:normal;font-variant-position:normal;font-variant-caps:normal;font-variant-numeric:normal;font-variant-alternates:normal;font-feature-settings:normal;text-indent:0;text-align:start;text-decoration:none;text-decoration-line:none;text-decoration-style:solid;text-decoration-color:#000000;letter-spacing:normal;word-spacing:normal;text-transform:none;writing-mode:lr-tb;direction:ltr;text-orientation:mixed;dominant-baseline:auto;baseline-shift:baseline;text-anchor:start;white-space:normal;shape-padding:0;clip-rule:nonzero;display:inline;overflow:visible;visibility:visible;opacity:1;isolation:auto;mix-blend-mode:normal;color-interpolation:sRGB;color-interpolation-filters:linearRGB;solid-color:#000000;solid-opacity:1;vector-effect:none;fill:#000000;fill-opacity:1;fill-rule:nonzero;stroke:none;stroke-width:0.5291667;stroke-linecap:round;stroke-linejoin:round;stroke-miterlimit:4;stroke-dasharray:none;stroke-dashoffset:0;stroke-opacity:1;color-rendering:auto;image-rendering:auto;shape-rendering:auto;text-rendering:auto;enable-background:accumulate" d="M 3.8532528,0.87384733 A 0.26460984,0.26460984 0 0 0 3.589704,1.1379143 v 0.609265 H 2.9334129 a 0.26460984,0.26460984 0 0 0 -0.2635514,0.265617 v 1.954919 H 2.2771219 V 3.3584503 A 0.26460984,0.26460984 0 0 0 2.0135731,3.0949003 H 0.26535729 a 0.26460984,0.26460984 0 0 0 -0.26561520281,0.26355 v 1.748214 A 0.26460984,0.26460984 0 0 0 0.26535729,5.3722813 H 2.0135731 a 0.26460984,0.26460984 0 0 0 0.2635488,-0.265617 v -0.609782 h 0.3927396 v 1.956986 a 0.26460984,0.26460984 0 0 0 0.2635514,0.264067 H 3.589704 v 0.609265 a 0.26460984,0.26460984 0 0 0 0,0.02739 0.26460984,0.26460984 0 0 0 0.2635488,0.238229 H 5.601466 A 0.26460984,0.26460984 0 0 0 5.8670838,7.3272003 V 5.5789863 A 0.26460984,0.26460984 0 0 0 5.601466,5.3154363 H 3.8532528 a 0.26460984,0.26460984 0 0 0 -0.2635488,0.26355 v 0.609265 H 3.1969618 v -1.691369 h 2.9925829 v 0.609782 a 0.26460984,0.26460984 0 0 0 0.2656179,0.265617 H 8.2028572 A 0.26460984,0.26460984 0 0 0 8.4669246,5.1066643 V 3.3584503 A 0.26460984,0.26460984 0 0 0 8.2028572,3.0949003 H 6.4551626 a 0.26460984,0.26460984 0 0 0 -0.2656179,0.26355 v 0.609265 H 3.1969618 V 2.2763463 H 3.589704 v 0.609265 a 0.26460984,0.26460984 0 0 0 0,0.02739 0.26460984,0.26460984 0 0 0 0.2635488,0.238229 H 5.601466 A 0.26460984,0.26460984 0 0 0 5.8670838,2.8856113 V 1.1379143 A 0.26460984,0.26460984 0 0 0 5.601466,0.87384733 Z M 4.1188706,1.4035313 h 1.2190465 v 1.21853 H 4.1188706 Z M 0.52942468,3.6240673 H 1.7479553 v 1.21853 H 0.52942468 Z m 6.18928672,0 H 7.937242 v 1.21853 H 6.7187114 Z m -2.5998408,2.220536 h 1.2190465 v 1.219047 H 4.1188706 Z"/></svg:g><text x="0" y="23.4666669" fill="#000000" font-size="5px" font-weight="bold" font-family="'Helvetica Neue', Helvetica, Arial-Unicode, Arial, Sans-serif">Created by Larea</text><text x="0" y="28.4666669" fill="#000000" font-size="5px" font-weight="bold" font-family="'Helvetica Neue', Helvetica, Arial-Unicode, Arial, Sans-serif">from the Noun Project</text></svg>