<svg xmlns="http://www.w3.org/2000/svg" xmlns:xlink="http://www.w3.org/1999/xlink" version="1.1" x="0px" y="0px" viewBox="0 0 32 32" enable-background="new 0 0 32 32" xml:space="preserve"><path d="M21.883,18.625c-2.757,0-5,2.243-5,5s2.243,5,5,5s5-2.243,5-5S24.64,18.625,21.883,18.625z M21.883,26.625  c-1.654,0-3-1.346-3-3s1.346-3,3-3s3,1.346,3,3S23.537,26.625,21.883,26.625z"/><path d="M22.883,23.211v-0.586c0-0.553-0.448-1-1-1s-1,0.447-1,1v1c0,0.266,0.105,0.52,0.293,0.707l1,1  c0.195,0.195,0.451,0.293,0.707,0.293s0.512-0.098,0.707-0.293c0.391-0.391,0.391-1.023,0-1.414L22.883,23.211z"/><path d="M21.141,10.979l0.72,5.77c0.068,0.548,0.567,0.931,1.116,0.868c0.548-0.068,0.937-0.568,0.868-1.116l-0.721-5.772  c-0.188-1.462-1.395-2.622-2.831-2.814c-0.457-2.575-2.706-4.539-5.411-4.539S9.929,5.339,9.472,7.914  c-1.436,0.192-2.643,1.353-2.832,2.817l-1.5,12.036c-0.103,0.802,0.133,1.598,0.647,2.183c0.517,0.588,1.28,0.925,2.094,0.925h7  c0.552,0,1-0.447,1-1s-0.448-1-1-1h-7c-0.243,0-0.453-0.087-0.593-0.245c-0.137-0.156-0.196-0.372-0.165-0.611l1.5-12.036  c0.076-0.59,0.664-1.107,1.258-1.107h10C20.477,9.875,21.065,10.393,21.141,10.979z M11.546,7.875c0.434-1.44,1.757-2.5,3.337-2.5  s2.903,1.06,3.337,2.5H11.546z"/><path d="M10.883,12.625v1.25c0,0.553,0.448,1,1,1s1-0.447,1-1v-1.25c0-0.553-0.448-1-1-1S10.883,12.072,10.883,12.625z"/><path d="M16.883,12.625v1.25c0,0.553,0.448,1,1,1s1-0.447,1-1v-1.25c0-0.553-0.448-1-1-1S16.883,12.072,16.883,12.625z"/></svg>