<svg xmlns="http://www.w3.org/2000/svg" xmlns:xlink="http://www.w3.org/1999/xlink" xml:space="preserve" version="1.1" style="shape-rendering:geometricPrecision;text-rendering:geometricPrecision;image-rendering:optimizeQuality;" viewBox="0 0 333.33 416.66249999999997" x="0px" y="0px" fill-rule="evenodd" clip-rule="evenodd"><defs><style type="text/css">
   
    .fil0 {fill:black;fill-rule:nonzero}
   
  </style></defs><g><path class="fil0" d="M234.57 151.02l0 93.61c0,10.67 -4.36,20.36 -11.38,27.38 -7.02,7.02 -16.72,11.38 -27.39,11.38l-37.97 0 0 23.72c0,5.02 -1.06,9.41 -2.92,12.96 -1.61,3.07 -3.8,5.51 -6.44,7.19 -2.79,1.79 -5.97,2.73 -9.4,2.73 -3.26,0 -6.73,-0.88 -10.27,-2.74l-67.52 -35.41c-6.26,-3.29 -11.83,-9.3 -15.74,-16.34 -3.84,-6.91 -6.23,-14.98 -6.23,-22.52l0 -216.96c0,-5.01 1.26,-9.33 3.42,-12.93 1.95,-3.25 4.57,-5.81 7.63,-7.69 0.17,-0.25 0.36,-0.49 0.57,-0.72 3.93,-4.47 8.43,-7.33 13.22,-9.08 4.6,-1.68 9.3,-2.27 13.92,-2.27l117.72 0c10.67,0 20.36,4.36 27.39,11.38 7.02,7.02 11.38,16.72 11.38,27.38l0 64.23c0,4.23 -3.43,7.66 -7.65,7.66 -4.23,0 -7.66,-3.43 -7.66,-7.66l0 -64.23c0,-6.44 -2.64,-12.3 -6.89,-16.56 -4.26,-4.26 -10.12,-6.9 -16.56,-6.9l-110.4 0 50.85 30.56c6,3.61 11.55,9.7 15.46,16.75 3.74,6.74 6.11,14.48 6.11,21.91l0 180.22 37.97 0c6.44,0 12.3,-2.64 16.56,-6.89 4.25,-4.26 6.89,-10.12 6.89,-16.56l0 -93.61 -32.6 0c-4.23,0 -7.65,-3.43 -7.65,-7.66 0,-4.23 3.43,-7.66 7.65,-7.66l40.26 0 39.18 0 -13.4 -11.76c-3.17,-2.78 -3.5,-7.59 -0.72,-10.77 2.78,-3.17 7.59,-3.49 10.77,-0.72l28.67 25.16c3.17,2.77 3.5,7.59 0.72,10.76 -0.24,0.28 -0.5,0.52 -0.76,0.76l-28.63 25.12c-3.17,2.78 -7.99,2.45 -10.77,-0.72 -2.78,-3.17 -2.45,-7.99 0.72,-10.77l13.4 -11.76 -31.52 0zm-106.15 -88.72l-54.96 -33.03c-2.69,-1.62 -5.78,-2.43 -8.74,-2.43 -2.04,0 -3.96,0.39 -5.57,1.18 -1.4,0.69 -2.56,1.66 -3.31,2.91 -0.76,1.27 -1.21,2.96 -1.21,5.09l0 216.96c0,4.97 1.63,10.39 4.26,15.11 2.55,4.6 5.91,8.38 9.46,10.24l67.52 35.41c1.22,0.64 2.3,0.94 3.21,0.94 0.47,0 0.86,-0.09 1.14,-0.28 0.44,-0.28 0.84,-0.75 1.17,-1.39 0.72,-1.37 1.13,-3.36 1.13,-5.91l0 -31.37 0 -187.88c0,-4.79 -1.61,-9.93 -4.14,-14.49 -2.67,-4.8 -6.24,-8.83 -9.96,-11.07z"/></g><text x="0" y="348.33" fill="#000000" font-size="5px" font-weight="bold" font-family="'Helvetica Neue', Helvetica, Arial-Unicode, Arial, Sans-serif">Created by ARISO</text><text x="0" y="353.33" fill="#000000" font-size="5px" font-weight="bold" font-family="'Helvetica Neue', Helvetica, Arial-Unicode, Arial, Sans-serif">from the Noun Project</text></svg>