<svg xmlns="http://www.w3.org/2000/svg" viewBox="0 0 19 25" fill="none" x="0px" y="0px"><path fill-rule="evenodd" clip-rule="evenodd" d="M0 1C0 0.447754 0.447754 0 1 0H8C8.55225 0 9 0.447754 9 1V8C9 8.55225 8.55225 9 8 9H1C0.447754 9 0 8.55225 0 8V1ZM2 7V2H7V7H2Z" transform="translate(0 0.585815)" fill="black"/><path fill-rule="evenodd" clip-rule="evenodd" d="M10 11C10 10.4478 10.4478 10 11 10H18C18.5522 10 19 10.4478 19 11V18C19 18.5522 18.5522 19 18 19H11C10.4478 19 10 18.5522 10 18V11ZM12 17V12H17V17H12Z" transform="translate(0 0.585815)" fill="black"/><path fill-rule="evenodd" clip-rule="evenodd" d="M11 0C10.4478 0 10 0.447754 10 1V8C10 8.55225 10.4478 9 11 9H18C18.5522 9 19 8.55225 19 8V1C19 0.447754 18.5522 0 18 0H11ZM12 2V7H17V2H12Z" transform="translate(0 0.585815)" fill="black"/><path fill-rule="evenodd" clip-rule="evenodd" d="M0 11C0 10.4478 0.447754 10 1 10H8C8.55225 10 9 10.4478 9 11V18C9 18.5522 8.55225 19 8 19H1C0.447754 19 0 18.5522 0 18V11ZM2 17V12H7V17H2Z" transform="translate(0 0.585815)" fill="black"/><text x="0" y="35" fill="#000000" font-size="5px" font-weight="bold" font-family="'Helvetica Neue', Helvetica, Arial-Unicode, Arial, Sans-serif">Created by Marko FuÄek</text><text x="0" y="40" fill="#000000" font-size="5px" font-weight="bold" font-family="'Helvetica Neue', Helvetica, Arial-Unicode, Arial, Sans-serif">from the Noun Project</text></svg>