<svg xmlns:dc="http://purl.org/dc/elements/1.1/" xmlns:cc="http://creativecommons.org/ns#" xmlns:rdf="http://www.w3.org/1999/02/22-rdf-syntax-ns#" xmlns:svg="http://www.w3.org/2000/svg" xmlns="http://www.w3.org/2000/svg" version="1.1" viewBox="0 0 8.4666659 8.483332375000001" x="0px" y="0px"><path transform="scale(0.26458331)" d="M 7.8144531 0.005859375 C 7.4882604 0.023722619 7.1542457 0.092467247 6.828125 0.22851562 C 6.1758836 0.50061246 5.5920767 1.0355627 5.1738281 1.7792969 C 4.7556801 2.5228526 4.5981616 3.3007199 4.6953125 4.0019531 C 4.7924626 4.7031859 5.1379932 5.2996184 5.5800781 5.7363281 C 6.0221635 6.1730382 6.5576412 6.4637741 7.1230469 6.6132812 C 7.2317976 6.6420375 7.3436669 6.6619153 7.4550781 6.6796875 C 7.4180128 7.4259587 7.5071012 8.1565766 7.6777344 8.8574219 C 7.8510786 9.5694022 8.109718 10.249567 8.4296875 10.859375 C 8.6987163 11.372101 9.0166469 11.824619 9.3613281 12.230469 A 0.99978506 0.99978506 0 0 0 9.3242188 12.261719 C 9.3242188 12.261719 9.2562929 12.335728 9.25 12.341797 C 9.1661472 12.322868 9.0874193 12.296889 8.9902344 12.298828 C 8.9333222 12.298913 8.8783349 12.302749 8.8222656 12.3125 C 8.1311963 12.435902 7.4567177 12.631273 6.7988281 12.880859 C 6.1409393 13.130445 5.5046826 13.436904 4.9023438 13.78125 C 4.3000045 14.125595 3.7266394 14.505778 3.203125 14.917969 C 2.6796108 15.33016 2.1996833 15.774551 1.7792969 16.232422 C 1.3589107 16.690293 0.99916432 17.167645 0.70898438 17.658203 C 0.41880443 18.148762 0.19725488 18.651045 0.08203125 19.177734 C -0.033192609 19.704423 -0.036715076 20.26068 0.125 20.794922 C 0.2867147 21.329163 0.62579207 21.823816 1.0859375 22.197266 C 1.5016377 22.534644 1.9478834 22.766711 2.40625 22.890625 C 2.8646227 23.014543 3.3278761 23.026767 3.75 22.951172 C 4.1721249 22.875557 4.5535551 22.719655 4.8945312 22.529297 C 5.1592938 22.381487 5.3917536 22.207732 5.6113281 22.027344 C 5.6135942 22.043754 5.6148319 22.059736 5.6171875 22.076172 C 4.6169703 23.136124 4.0019531 24.618763 4.0019531 26.228516 C 4.0019531 29.343312 6.2978149 32 9.25 32 C 10.996069 32 12.495706 31.058434 13.441406 29.654297 C 13.552835 29.694835 13.6661 29.740557 13.775391 29.771484 C 14.139692 29.874575 14.482266 29.931392 14.785156 29.962891 C 15.087976 29.994336 15.363735 30 15.789062 30 C 16.214331 30 16.489974 29.994412 16.792969 29.962891 C 17.095871 29.931407 17.44039 29.874575 17.804688 29.771484 C 18.019613 29.710662 18.242084 29.624685 18.464844 29.523438 C 19.402885 31.003574 20.949853 32 22.751953 32 C 25.704139 32 28 29.343312 28 26.228516 C 28 24.708328 27.446217 23.304604 26.542969 22.259766 C 26.697019 22.361117 26.856707 22.457763 27.025391 22.544922 C 27.383327 22.729866 27.775747 22.878167 28.207031 22.951172 C 28.638309 23.024158 29.105439 23.020751 29.572266 22.898438 C 30.039085 22.776126 30.49588 22.538244 30.916016 22.197266 C 31.376332 21.823678 31.713758 21.329554 31.875 20.794922 C 32.036232 20.260299 32.028198 19.704412 31.912109 19.177734 C 31.796024 18.651058 31.576201 18.148623 31.285156 17.658203 C 30.994108 17.167782 30.62826 16.69017 30.207031 16.232422 C 29.785802 15.774674 29.305517 15.330063 28.78125 14.917969 C 28.256984 14.505876 27.69471 14.125523 27.091797 13.78125 C 26.488886 13.436977 25.853501 13.130403 25.195312 12.880859 C 24.537124 12.631316 23.855093 12.435909 23.164062 12.3125 C 23.098287 12.300935 23.031605 12.29709 22.964844 12.298828 C 22.770021 12.300862 22.613208 12.357398 22.474609 12.435547 C 22.889184 11.987016 23.257317 11.455892 23.570312 10.859375 C 23.890282 10.249567 24.150876 9.5694029 24.324219 8.8574219 C 24.494853 8.156571 24.58198 7.4259451 24.544922 6.6796875 C 24.656333 6.6619152 24.768202 6.6420374 24.876953 6.6132812 C 25.442357 6.4637733 25.977837 6.1730382 26.419922 5.7363281 C 26.862006 5.2996184 27.207537 4.7031859 27.304688 4.0019531 C 27.401838 3.3007199 27.24432 2.5228526 26.826172 1.7792969 C 26.407924 1.0355627 25.824116 0.50061246 25.171875 0.22851562 C 24.519634 -0.04358113 23.837658 -0.046600285 23.246094 0.087890625 C 22.65453 0.22238153 22.139638 0.48579181 21.703125 0.796875 C 21.388676 1.0209683 21.133693 1.2757279 20.910156 1.5507812 C 20.548701 1.3921117 20.168624 1.2458569 19.753906 1.1289062 C 18.691887 0.82941597 17.448869 0.67187496 15.996094 0.671875 C 14.543318 0.671875 13.300301 0.82941631 12.238281 1.1289062 C 11.824385 1.2456252 11.447368 1.3905526 11.087891 1.5488281 C 10.864679 1.2746483 10.610513 1.0203907 10.296875 0.796875 C 9.8603618 0.48579181 9.3474231 0.22238153 8.7558594 0.087890625 C 8.4600777 0.02064517 8.1406458 -0.012003869 7.8144531 0.005859375 z M 7.9277344 2 C 8.0464174 1.9937352 8.1746965 2.0057807 8.3125 2.0371094 C 8.588107 2.0997683 8.8890613 2.2498482 9.1386719 2.4277344 C 9.227286 2.4908855 9.2963564 2.5587883 9.3671875 2.625 C 8.7771438 3.1432694 8.3249889 3.7414109 8.0175781 4.3847656 C 7.9662507 4.4921845 7.9266656 4.6034401 7.8828125 4.7128906 C 7.8050728 4.7098837 7.7247585 4.7039951 7.6328125 4.6796875 C 7.4015833 4.6185328 7.1555367 4.4815565 6.9824219 4.3105469 C 6.809307 4.1395368 6.7055387 3.9495906 6.6738281 3.7207031 C 6.6421175 3.4918158 6.6717837 3.1960152 6.9160156 2.7617188 C 7.1601474 2.3276009 7.3886886 2.1605795 7.5957031 2.0742188 C 7.6992112 2.0310384 7.8090513 2.0062648 7.9277344 2 z M 24.072266 2 C 24.190949 2.0062648 24.30079 2.0310376 24.404297 2.0742188 C 24.611313 2.1605795 24.839852 2.3276009 25.083984 2.7617188 C 25.328217 3.1960152 25.359835 3.4918158 25.328125 3.7207031 C 25.296415 3.9495906 25.190692 4.1395368 25.017578 4.3105469 C 24.844464 4.4815554 24.598419 4.6185461 24.367188 4.6796875 C 24.275949 4.7038129 24.196433 4.7097756 24.119141 4.7128906 C 24.075242 4.6033015 24.035766 4.4923183 23.984375 4.3847656 C 23.676859 3.7411907 23.223158 3.143389 22.632812 2.625 C 22.703644 2.5587882 22.772715 2.4908856 22.861328 2.4277344 C 23.110939 2.2498482 23.413847 2.099768 23.689453 2.0371094 C 23.827257 2.0057799 23.953582 1.9937352 24.072266 2 z M 15.996094 2.671875 C 17.3014 2.671875 18.367331 2.8176414 19.214844 3.0566406 C 20.062355 3.2956394 20.691095 3.6196619 21.164062 3.9941406 C 21.63703 4.36862 21.96176 4.7878765 22.181641 5.2480469 C 22.401522 5.708218 22.51554 6.2123348 22.544922 6.7460938 C 22.574301 7.2798666 22.515367 7.842274 22.382812 8.3867188 C 22.250258 8.9311692 22.043921 9.4606282 21.798828 9.9277344 C 21.658512 10.195153 21.504255 10.435112 21.345703 10.654297 C 21.290392 10.457396 21.223872 10.263111 21.134766 10.076172 C 20.887467 9.5573595 20.514566 9.0827175 20.035156 8.6894531 C 19.555751 8.2961917 18.967295 7.9876679 18.292969 7.7734375 C 17.618649 7.5592093 16.853879 7.4378117 16.003906 7.4335938 A 0.99978506 0.99978506 0 0 0 15.996094 7.4335938 C 15.14612 7.4378117 14.383304 7.5592097 13.708984 7.7734375 C 13.034661 7.9876687 12.446205 8.2961902 11.966797 8.6894531 C 11.487389 9.082716 11.112533 9.557358 10.865234 10.076172 C 10.775927 10.263533 10.711611 10.458166 10.65625 10.654297 C 10.497431 10.434854 10.341711 10.195578 10.201172 9.9277344 C 9.9560782 9.4606282 9.7516958 8.9311699 9.6191406 8.3867188 C 9.486585 7.8422672 9.4276481 7.2798534 9.4570312 6.7460938 C 9.4864144 6.2123341 9.5984785 5.7082172 9.8183594 5.2480469 C 10.03824 4.7878765 10.36297 4.3686197 10.835938 3.9941406 C 11.308906 3.6196617 11.937644 3.2956396 12.785156 3.0566406 C 13.632669 2.8176418 14.690787 2.671875 15.996094 2.671875 z M 13 5 A 1 1 0 0 0 12 6 A 1 1 0 0 0 13 7 A 1 1 0 0 0 14 6 A 1 1 0 0 0 13 5 z M 19 5 A 1 1 0 0 0 18 6 A 1 1 0 0 0 19 7 A 1 1 0 0 0 20 6 A 1 1 0 0 0 19 5 z M 15.009766 9.5175781 L 15 9.9804688 A 1.0004166 1.0004166 0 1 0 17 10.017578 L 17.007812 9.5214844 C 17.252185 9.5625319 17.484441 9.613223 17.6875 9.6777344 C 18.144932 9.8230572 18.499773 10.020201 18.765625 10.238281 C 19.031477 10.456364 19.209817 10.695349 19.326172 10.939453 C 19.442528 11.183558 19.492352 11.431501 19.488281 11.685547 C 19.484199 11.939629 19.423875 12.200546 19.296875 12.453125 C 19.169868 12.705718 18.97889 12.951291 18.705078 13.175781 C 18.431263 13.400273 18.078703 13.603709 17.628906 13.751953 C 17.185048 13.89824 16.644621 13.994034 16.011719 14.003906 C 15.367719 13.996199 14.822844 13.900198 14.373047 13.751953 C 13.92325 13.603709 13.568735 13.400272 13.294922 13.175781 C 13.021109 12.951291 12.832086 12.705718 12.705078 12.453125 C 12.57807 12.200532 12.509932 11.939593 12.505859 11.685547 C 12.501786 11.4315 12.557474 11.183555 12.673828 10.939453 C 12.790182 10.695351 12.970478 10.456361 13.236328 10.238281 C 13.502179 10.020201 13.857018 9.8230602 14.314453 9.6777344 C 14.522944 9.6114977 14.757414 9.5589916 15.009766 9.5175781 z M 10.894531 13.457031 C 10.932271 13.473589 10.967297 13.494596 11.005859 13.509766 A 0.99978506 0.99978506 0 0 0 11.029297 13.517578 C 11.280322 13.960474 11.60363 14.372962 12.025391 14.71875 C 12.503363 15.110625 13.080129 15.431545 13.744141 15.650391 C 14.408151 15.869237 15.161347 15.986199 15.988281 15.996094 A 0.99978506 0.99978506 0 0 0 16.011719 15.996094 C 16.838652 15.986191 17.591849 15.869237 18.255859 15.650391 C 18.919868 15.431545 19.496637 15.110624 19.974609 14.71875 C 20.349823 14.411125 20.638398 14.046555 20.878906 13.660156 A 0.99978506 0.99978506 0 0 0 20.957031 13.738281 C 20.957031 13.738281 21.170891 13.931935 21.525391 14.34375 C 21.879888 14.755564 22.347959 15.363447 22.787109 16.115234 C 23.226259 16.867021 23.635283 17.765814 23.880859 18.757812 C 24.029855 19.35968 24.109699 19.998968 24.113281 20.666016 C 23.679795 20.538353 23.226064 20.462891 22.751953 20.462891 C 19.799768 20.462891 17.509766 23.113719 17.509766 26.228516 C 17.509766 26.724975 17.573878 27.207545 17.683594 27.671875 C 17.55164 27.738154 17.422484 27.807173 17.265625 27.851562 C 17.041216 27.915066 16.801611 27.954339 16.587891 27.976562 C 16.37426 27.998786 16.195802 28 15.789062 28 C 15.382381 27.999999 15.205992 27.998776 14.992188 27.976562 C 14.778458 27.954337 14.544719 27.915066 14.320312 27.851562 C 14.304928 27.847209 14.294513 27.838588 14.279297 27.833984 C 14.415029 27.321175 14.490234 26.782641 14.490234 26.228516 C 14.490234 23.113719 12.202185 20.462891 9.25 20.462891 C 8.6399089 20.462891 8.0591249 20.581969 7.5195312 20.789062 C 7.511947 20.077101 7.5938345 19.39653 7.7519531 18.757812 C 7.9975291 17.765814 8.4046002 16.867021 8.84375 16.115234 C 9.2828998 15.363447 9.750974 14.755564 10.105469 14.34375 C 10.459968 13.931934 10.673828 13.738281 10.673828 13.738281 A 0.99978506 0.99978506 0 0 0 10.894531 13.457031 z M 24.226562 14.664062 C 24.312855 14.693977 24.400574 14.715534 24.486328 14.748047 C 25.040033 14.957977 25.578751 15.222389 26.095703 15.517578 C 26.612652 15.812763 27.103024 16.139815 27.548828 16.490234 C 27.994631 16.840653 28.396992 17.213106 28.738281 17.583984 C 29.079573 17.954862 29.358295 18.3284 29.564453 18.675781 C 29.770611 19.023165 29.904842 19.342101 29.962891 19.605469 C 30.02094 19.868834 30.008347 20.068028 29.962891 20.21875 C 29.917438 20.369459 29.84513 20.496361 29.660156 20.646484 C 29.434998 20.829221 29.245577 20.918926 29.070312 20.964844 C 28.895048 21.010765 28.724535 21.009889 28.539062 20.978516 C 28.353589 20.947107 28.152751 20.882639 27.941406 20.773438 C 27.73006 20.664235 27.507483 20.511215 27.298828 20.34375 C 27.090172 20.176285 26.894496 19.991877 26.714844 19.804688 C 26.535191 19.617497 26.373856 19.431547 26.242188 19.267578 C 26.110517 19.10361 26.008168 18.958916 25.939453 18.861328 C 25.938357 18.859771 25.938575 18.860904 25.9375 18.859375 C 25.900612 18.664003 25.868913 18.465774 25.822266 18.277344 C 25.520399 17.057957 25.030893 15.985609 24.515625 15.103516 C 24.41963 14.939181 24.323529 14.815121 24.226562 14.664062 z M 7.2871094 14.84375 C 7.2297813 14.936424 7.1720788 15.006203 7.1152344 15.103516 C 6.5999672 15.985609 6.1104605 17.057957 5.8085938 18.277344 C 5.7573991 18.484143 5.7210064 18.700879 5.6816406 18.916016 C 5.6222003 19.012364 5.5321749 19.149783 5.4179688 19.310547 C 5.3027177 19.472774 5.1644949 19.657336 5.0058594 19.841797 C 4.8472243 20.026257 4.6654661 20.209795 4.4804688 20.373047 C 4.2954718 20.536298 4.1058327 20.683321 3.9199219 20.787109 C 3.7340118 20.890899 3.5571907 20.949731 3.3964844 20.978516 C 3.2357762 21.007278 3.0877561 21.009178 2.9238281 20.964844 C 2.7598937 20.920541 2.5694367 20.83282 2.3398438 20.646484 C 2.1547009 20.496224 2.0828477 20.369851 2.0371094 20.21875 C 1.9913707 20.067648 1.9794954 19.868824 2.0371094 19.605469 C 2.0947234 19.342115 2.2223294 19.023025 2.4277344 18.675781 C 2.6331396 18.328537 2.915457 17.95474 3.2558594 17.583984 C 3.5962616 17.213229 3.9984258 16.840555 4.4433594 16.490234 C 4.8882941 16.139914 5.3743989 15.812694 5.890625 15.517578 C 6.3374777 15.262121 6.8100143 15.037402 7.2871094 14.84375 z M 9.25 22.462891 C 10.988948 22.462891 12.498047 24.076075 12.498047 26.228516 C 12.498047 28.380956 10.988948 30 9.25 30 C 7.5110524 30 6.0019531 28.380956 6.0019531 26.228516 C 6.0019531 24.076075 7.5110524 22.462891 9.25 22.462891 z M 22.751953 22.462891 C 23.361919 22.462891 23.937353 22.671006 24.435547 23.021484 A 0.99978506 0.99978506 0 0 0 24.511719 23.066406 C 24.521675 23.073828 24.533084 23.078392 24.542969 23.085938 A 0.99978506 0.99978506 0 0 0 24.544922 23.085938 C 25.410973 23.747599 25.998047 24.883819 25.998047 26.228516 C 25.998047 28.380956 24.490901 30 22.751953 30 C 21.013006 30 19.503906 28.380956 19.503906 26.228516 C 19.503907 24.076075 21.013006 22.462891 22.751953 22.462891 z " style="color:#000000;font-style:normal;font-variant:normal;font-weight:normal;font-stretch:normal;font-size:medium;line-height:normal;font-family:sans-serif;font-variant-ligatures:normal;font-variant-position:normal;font-variant-caps:normal;font-variant-numeric:normal;font-variant-alternates:normal;font-feature-settings:normal;text-indent:0;text-align:start;text-decoration:none;text-decoration-line:none;text-decoration-style:solid;text-decoration-color:#000000;letter-spacing:normal;word-spacing:normal;text-transform:none;writing-mode:lr-tb;direction:ltr;text-orientation:mixed;dominant-baseline:auto;baseline-shift:baseline;text-anchor:start;white-space:normal;shape-padding:0;clip-rule:nonzero;display:inline;overflow:visible;visibility:visible;opacity:1;isolation:auto;mix-blend-mode:normal;color-interpolation:sRGB;color-interpolation-filters:linearRGB;solid-color:#000000;solid-opacity:1;vector-effect:none;fill:#000000;fill-opacity:1;fill-rule:evenodd;stroke:none;stroke-width:1.99937022;stroke-linecap:round;stroke-linejoin:round;stroke-miterlimit:4.0999999;stroke-dasharray:none;stroke-dashoffset:0;stroke-opacity:1;paint-order:fill markers stroke;color-rendering:auto;image-rendering:auto;shape-rendering:auto;text-rendering:auto;enable-background:accumulate"/></svg>