<svg xmlns="http://www.w3.org/2000/svg" data-name="Layer 1" viewBox="0 0 1000 1250" x="0px" y="0px"><title>104-Dashboard</title><path d="M500,866.61c-56.07,0-108.95-4.51-148.88-12.69C301.22,843.69,278,829.23,278,808.39c0-24.73,33.52-36,58.74-42.27,30.66-7.67,73.17-13,119.69-15a16,16,0,0,1,1.39,32c-40.06,1.74-76.07,5.87-104.13,11.95-23.65,5.13-35.06,10.23-40.33,13.37,6.23,3.73,21.07,10.2,54.51,16.15C404.37,831,451.31,834.61,500,834.61s95.64-3.58,132.16-10.07c33.44-5.95,48.27-12.42,54.5-16.15-5.27-3.14-16.68-8.24-40.33-13.37-28.06-6.08-64.06-10.21-104.12-11.95a16,16,0,0,1,1.39-32c46.52,2,89,7.35,119.69,15,25.21,6.3,58.73,17.54,58.73,42.27,0,20.84-23.24,35.3-73.13,45.53C609,862.1,556.08,866.61,500,866.61Zm190.81-55.09h0Z"/><path d="M542.9,824.39H457.1a16,16,0,0,1-16-16V683.47a16,16,0,0,1,16-16h85.8a16,16,0,0,1,16,16V808.39A16,16,0,0,1,542.9,824.39Zm-69.8-32h53.8V699.47H473.1Z"/><path d="M900,699.47H100a16,16,0,0,1-16-16V149.39a16,16,0,0,1,16-16H900a16,16,0,0,1,16,16V683.47A16,16,0,0,1,900,699.47Zm-784-32H884V165.39H116Z"/><path d="M315.9,553.77c-75.73,0-137.34-61.61-137.34-137.34S240.17,279.09,315.9,279.09,453.24,340.7,453.24,416.43,391.63,553.77,315.9,553.77Zm0-242.68A105.34,105.34,0,1,0,421.24,416.43,105.47,105.47,0,0,0,315.9,311.09Z"/><path d="M437.24,432.43H315.9a16,16,0,0,1-16-16V295.09a16,16,0,0,1,32,0V400.43H437.24a16,16,0,0,1,0,32Z"/><path d="M376.58,537.53a16,16,0,0,1-13.87-8L302,424.43a16,16,0,0,1,27.72-16l60.67,105.1a16,16,0,0,1-13.85,24Z"/><path d="M802.53,572.13a16,16,0,0,1-16-16V460a16,16,0,0,1,32,0v96.16A16,16,0,0,1,802.53,572.13Z"/><path d="M724.54,572.13a16,16,0,0,1-16-16v-96.6a16,16,0,0,1,32,0v96.6A16,16,0,0,1,724.54,572.13Z"/><path d="M560.52,572.13a16,16,0,0,1-16-16V471a16,16,0,0,1,32,0v85.15A16,16,0,0,1,560.52,572.13Z"/><path d="M643.84,572.13a16,16,0,0,1-16-16V426.77a16,16,0,0,1,32,0V556.13A16,16,0,0,1,643.84,572.13Z"/><path d="M560.52,399.76a16,16,0,0,1-11.32-27.31l68.94-69a16,16,0,0,1,21.07-1.39l66.89,51.37,88-88A16,16,0,0,1,816.75,288L718.8,386a16,16,0,0,1-17.44,3.47,15.75,15.75,0,0,1-3.85-2.27L630.85,336l-59,59.06A16,16,0,0,1,560.52,399.76Z"/><path d="M801.24,358.56c-.34,0-.69,0-1,0a16,16,0,0,1-14.94-17l3-47.69-47.68,3.06a16,16,0,0,1-2-31.94l65.84-4.21a16,16,0,0,1,17,17l-4.21,65.83A16,16,0,0,1,801.24,358.56Z"/><text x="0" y="1015" fill="#000000" font-size="5px" font-weight="bold" font-family="'Helvetica Neue', Helvetica, Arial-Unicode, Arial, Sans-serif">Created by IYIKON</text><text x="0" y="1020" fill="#000000" font-size="5px" font-weight="bold" font-family="'Helvetica Neue', Helvetica, Arial-Unicode, Arial, Sans-serif">from the Noun Project</text></svg>