<svg xmlns="http://www.w3.org/2000/svg" xmlns:xlink="http://www.w3.org/1999/xlink" version="1.1" x="0px" y="0px" viewBox="0 0 40 50" style="enable-background:new 0 0 40 40;" xml:space="preserve"><g><path d="M29.9,30c-0.3-0.1-0.6,0-0.8,0.2l-0.5,0.9c-0.2,0.3-0.1,0.6,0.2,0.7c0.1,0,0.2,0.1,0.3,0.1c0.2,0,0.4-0.1,0.5-0.3l0.5-0.9   C30.3,30.4,30.2,30.1,29.9,30z"/><path d="M11.2,30.2c-0.2-0.3-0.5-0.3-0.8-0.2c-0.3,0.1-0.4,0.5-0.2,0.7l0.5,0.9c0.1,0.2,0.3,0.3,0.5,0.3c0.1,0,0.2,0,0.3-0.1   c0.3-0.1,0.4-0.5,0.2-0.7L11.2,30.2z"/><path d="M32.8,7.1c-0.5-1.5-1-2.9-1-2.9l0,0c0,0,0-0.1-0.1-0.1c0,0,0,0,0,0c0,0,0,0,0,0c0,0,0-0.1-0.1-0.1c0,0,0,0,0,0   c-1.5-1.2-3.1-2-4.8-2.4c-0.2-0.1-0.5,0-0.6,0.2c-0.4,0.6-0.8,1.1-1.2,1.7c-1.2,2-2,4-2.3,5.6c-0.8-0.4-1.6-0.6-2.5-0.6   c-0.9,0-1.7,0.2-2.5,0.6c-0.3-1.6-1.1-3.6-2.3-5.6c-0.4-0.6-0.8-1.2-1.2-1.7c-0.1-0.2-0.4-0.3-0.6-0.2C11.8,2,10.2,2.8,8.7,4v0   c0,0-0.1,0.1-0.1,0.1c0,0,0,0,0,0l0,0c0,0,0,0.1-0.1,0.1l0,0c0,0.1-0.6,1.4-1,2.9c-0.6,2.2-0.8,3.6-0.4,4.4   c0.2,0.4,0.5,0.6,0.8,0.7c0.2,0.1,0.4,0.1,0.6,0.1c0.6,0,1.3-0.2,2-0.7c0.4-0.3,0.9-0.7,1.5-1.4c0.8,0.9,1.7,1.5,2.5,1.8   c-0.8,1.3-1.3,2.7-1.3,4.1c0,1.6,0.7,3,1.7,4.1c-1.8,0.5-5.3,2.1-6.4,5.5c0,0,0,0,0,0c-0.1,0.2-0.5,2,0.4,3.1   c0.1,0.1,0.3,0.3,0.5,0.4c-1.4,1.3-1.5,4-0.2,6.2c0.9,1.5,2.4,2.5,3.8,2.5c0.7,0,1.3-0.2,1.8-0.6c0.3-0.2,0.6-0.5,0.7-0.9   c1.4,0.5,3,0.7,4.6,0.7h0c1.6,0,3.2-0.2,4.6-0.7c0.2,0.3,0.4,0.6,0.7,0.9c0.5,0.4,1.1,0.6,1.8,0.6c1.4,0,2.8-0.9,3.8-2.5   c1.3-2.2,1.2-4.8-0.2-6.2c0.2-0.1,0.4-0.3,0.5-0.4c0.9-1.1,0.4-2.9,0.4-3.1c0,0,0,0,0,0c-1.1-3.4-4.6-4.9-6.4-5.5   c1.1-1.1,1.7-2.5,1.7-4.1c0-1.4-0.5-2.8-1.3-4.1c0.8-0.3,1.6-0.9,2.5-1.8c0.5,0.7,1,1.1,1.5,1.4c0.7,0.5,1.4,0.7,2,0.7   c0.2,0,0.4,0,0.6-0.1c0.2-0.1,0.6-0.2,0.8-0.7C33.6,10.8,33.5,9.3,32.8,7.1z M9.9,10.7c-0.7,0.5-1.3,0.6-1.6,0.5c0,0-0.1,0-0.1-0.1   c-0.5-1,0.5-4.4,1.4-6.4c1.1-0.9,2.3-1.5,3.6-1.9C13,8.2,10.7,10.2,9.9,10.7z M12.7,9.2c0.2-0.3,0.3-0.6,0.5-1   c0.6-1.3,0.9-2.8,1-4.5c0,0.1,0.1,0.2,0.1,0.2c1.3,2.1,2.1,4.2,2.2,5.7c-0.5,0.4-1,0.9-1.4,1.4C14.4,10.8,13.5,10.2,12.7,9.2z    M9.7,25.9c0.6,0,2,0.1,2.9,1.2c-0.1,0.5-0.2,1-0.3,1.3c-0.3-0.1-0.6-0.1-0.9-0.1c-0.2,0-0.5,0-0.7,0.1c-0.4,0-0.7-0.1-0.9-0.3   C9.4,27.5,9.6,26.3,9.7,25.9z M14.1,36.3c-0.3,0.2-0.7,0.4-1,0.4c-1,0-2.1-0.8-2.8-1.9c-0.4-0.7-0.7-1.5-0.8-2.3l0.5,0.4   c0.1,0.1,0.2,0.1,0.3,0.1c0.2,0,0.3-0.1,0.5-0.2c0.2-0.2,0.1-0.6-0.1-0.7l-0.8-0.5c-0.1-0.1-0.2-0.1-0.4-0.1   c0.1-0.7,0.4-1.3,0.8-1.6c0.3-0.2,0.7-0.4,1-0.4c0.1,0,0.2,0,0.4,0c-0.1,0.1-0.2,0.3-0.1,0.4l0.2,1c0,0.3,0.3,0.4,0.6,0.4   c0,0,0.1,0,0.1,0c0.3,0,0.5-0.3,0.5-0.6l-0.1-0.9c0.5,0.3,1,0.9,1.4,1.5C15.2,33.1,15.2,35.4,14.1,36.3z M29.6,32.7   c0.1,0.1,0.3,0.2,0.5,0.2c0.1,0,0.2,0,0.3-0.1l0.5-0.4c-0.1,0.8-0.3,1.6-0.8,2.3c-0.7,1.2-1.8,1.9-2.8,1.9c-0.4,0-0.7-0.1-1-0.4   c-1.1-0.9-1.2-3.2-0.1-5c0.4-0.6,0.9-1.1,1.4-1.5l-0.1,0.9c0,0.3,0.2,0.5,0.5,0.6c0,0,0.1,0,0.1,0c0.3,0,0.5-0.2,0.6-0.4l0.2-1   c0-0.2,0-0.3-0.1-0.4c0.1,0,0.2,0,0.4,0c0.4,0,0.7,0.1,1,0.4c0.5,0.4,0.7,1,0.8,1.6c-0.1,0-0.3,0-0.4,0.1L29.7,32   C29.4,32.2,29.4,32.5,29.6,32.7z M30.7,25.9c0.1,0.4,0.3,1.6-0.2,2.1c-0.2,0.2-0.5,0.3-0.9,0.3c-0.2-0.1-0.5-0.1-0.7-0.1   c-0.3,0-0.6,0-0.9,0.1c-0.1-0.4-0.1-0.8-0.3-1.3C28.7,26,30.1,25.9,30.7,25.9z M30.2,24.9c-0.8,0-1.9,0.3-2.8,1.1   C27,25,26.5,24,25.6,23.2c-0.2-0.2-0.6-0.2-0.8,0c-0.2,0.2-0.3,0.5,0,0.7c1.7,1.7,2.1,4.2,2.2,5.1c-0.7,0.4-1.3,1.1-1.8,1.8   c-0.9,1.5-1.1,3.1-0.8,4.5c-1.1,0.4-2.4,0.6-3.7,0.6h-0.5c0,0,0,0,0,0l0-0.2c0-0.1-0.1-0.1-0.1-0.1c0,0,0,0,0,0   c-0.1,0-0.1,0.1-0.1,0.1l0,0.2c0,0,0,0,0,0h-0.4c-1.3,0-2.6-0.3-3.7-0.6c0.3-1.3,0.1-3-0.8-4.5c-0.5-0.8-1.1-1.4-1.8-1.8   c0.1-0.8,0.5-3.4,2.2-5.1c0.2-0.2,0.2-0.5,0-0.7c-0.2-0.2-0.6-0.2-0.8,0C13.9,24,13.3,25,13,25.9c-0.9-0.8-2.1-1-2.8-1.1   c1.5-2.6,4.9-3.7,5.8-3.9c1,0.7,2.3,1.2,3.7,1.3h1.1c1.4-0.1,2.6-0.6,3.7-1.3C25.4,21.2,28.8,22.2,30.2,24.9z M26,16.1   c0,2.8-2.6,5.1-5.8,5.1c-3.2,0-5.8-2.3-5.8-5.1c0-1.4,0.7-3.1,1.8-4.4c1.2-1.4,2.6-2.2,4.1-2.2c1.5,0,2.9,0.8,4.1,2.2   C25.4,13,26,14.6,26,16.1z M25.2,11.1c-0.4-0.5-0.9-1-1.4-1.4C23.9,8.2,24.7,6.1,26,4c0-0.1,0.1-0.2,0.1-0.2c0.1,1.7,0.5,3.2,1,4.5   c0.2,0.4,0.3,0.7,0.5,1C26.8,10.2,26,10.8,25.2,11.1z M32.2,11.1c-0.1,0.1-0.1,0.1-0.1,0.1c-0.3,0.1-0.9,0-1.6-0.5   c-0.8-0.5-3.1-2.6-3.2-8c1.2,0.4,2.4,1.1,3.6,1.9C31.6,6.7,32.7,10.1,32.2,11.1z"/><path d="M18.4,14.5c0.1-0.1,0.2-0.3,0.2-0.4c0-0.2-0.1-0.3-0.2-0.4c-0.1-0.1-0.3-0.2-0.4-0.2c-0.2,0-0.3,0.1-0.4,0.2   c-0.1,0.1-0.2,0.3-0.2,0.4c0,0.2,0.1,0.3,0.2,0.4c0.1,0.1,0.3,0.2,0.4,0.2C18.1,14.6,18.3,14.6,18.4,14.5z"/><path d="M22.4,13.5c-0.2,0-0.3,0.1-0.4,0.2c-0.1,0.1-0.2,0.3-0.2,0.4c0,0.2,0.1,0.3,0.2,0.4c0.1,0.1,0.3,0.2,0.4,0.2   c0.2,0,0.3-0.1,0.4-0.2c0.1-0.1,0.2-0.3,0.2-0.4c0-0.2-0.1-0.3-0.2-0.4C22.7,13.5,22.5,13.5,22.4,13.5z"/><path d="M22.6,24.4c-0.9-0.2-1.7,0.1-2.4,0.8c-0.7-0.7-1.5-1-2.4-0.8c-1.1,0.2-2,1.2-2.2,2.4c-0.1,1,0,3.5,4.4,5.9   c0.1,0,0.1,0,0.2,0c0,0,0,0.1,0,0.1l0,0.2c0,0.1,0.1,0.1,0.1,0.1c0,0,0,0,0,0c0.1,0,0.1-0.1,0.1-0.1l0-0.2c0,0,0-0.1-0.1-0.1   c0.1,0,0.1,0,0.2,0c4.4-2.4,4.5-4.9,4.4-5.9C24.6,25.6,23.7,24.6,22.6,24.4z M20.2,31.7c-2.5-1.4-3.8-3.2-3.6-4.7   c0.1-0.8,0.7-1.4,1.4-1.6c0.7-0.1,1.3,0.2,1.8,0.9l0,0c0,0.1,0.1,0.1,0.2,0.2c0.2,0.1,0.6,0.1,0.7-0.2c0.4-0.7,1.1-1.1,1.8-0.9   c0.7,0.1,1.3,0.8,1.4,1.6C24,28.5,22.7,30.2,20.2,31.7z"/><path d="M20.2,23.6C20.2,23.6,20.2,23.6,20.2,23.6c0.1,0,0.1-0.1,0.1-0.1l0-0.2c0-0.1-0.1-0.1-0.1-0.1c-0.1,0-0.1,0.1-0.1,0.1   l0,0.2C20.1,23.5,20.1,23.6,20.2,23.6z"/><path d="M20.2,24.3C20.2,24.3,20.2,24.3,20.2,24.3c0.1,0,0.1-0.1,0.1-0.1l0-0.2c0-0.1,0-0.1-0.1-0.1c-0.1,0-0.1,0.1-0.1,0.1l0,0.2   C20.1,24.2,20.1,24.3,20.2,24.3z"/><path d="M20.2,25C20.2,25,20.2,25,20.2,25c0.1,0,0.1-0.1,0.1-0.1l0-0.2c0-0.1-0.1-0.1-0.1-0.1c0,0,0,0,0,0c-0.1,0-0.1,0.1-0.1,0.1   l0,0.2C20,24.9,20.1,25,20.2,25z"/><path d="M20.2,22.9C20.2,22.9,20.2,22.9,20.2,22.9c0.1,0,0.1-0.1,0.1-0.1l0-0.2c0-0.1-0.1-0.1-0.1-0.1c0,0,0,0,0,0   c-0.1,0-0.1,0.1-0.1,0.1l0,0.2C20.1,22.8,20.1,22.9,20.2,22.9z"/><path d="M20.2,10.6L20.2,10.6c0.1,0,0.1-0.1,0.1-0.1l0-0.2c0-0.1-0.1-0.1-0.1-0.1h0c-0.1,0-0.1,0.1-0.1,0.1l0,0.2   C20.1,10.6,20.1,10.6,20.2,10.6z"/><path d="M20.2,11.3C20.2,11.3,20.2,11.3,20.2,11.3c0.1,0,0.1-0.1,0.1-0.1l0-0.2c0-0.1-0.1-0.1-0.1-0.1c0,0,0,0,0,0   c-0.1,0-0.1,0.1-0.1,0.1l0,0.2C20.1,11.3,20.1,11.3,20.2,11.3z"/><path d="M20.2,13.4L20.2,13.4c0.1,0,0.1-0.1,0.1-0.1l0-0.2c0-0.1-0.1-0.1-0.1-0.1h0c-0.1,0-0.1,0.1-0.1,0.1l0,0.2   C20,13.4,20.1,13.4,20.2,13.4z"/><path d="M20.2,9.9L20.2,9.9c0.1,0,0.1-0.1,0.1-0.1l0-0.2c0-0.1-0.1-0.1-0.1-0.1h0c-0.1,0-0.1,0.1-0.1,0.1l0,0.2   C20.1,9.9,20.1,9.9,20.2,9.9z"/><path d="M20.2,12.7C20.2,12.7,20.2,12.7,20.2,12.7c0.1,0,0.1-0.1,0.1-0.1l0-0.2c0-0.1-0.1-0.1-0.1-0.1c0,0,0,0,0,0   c-0.1,0-0.1,0.1-0.1,0.1l0,0.2C20.1,12.7,20.1,12.7,20.2,12.7z"/><path d="M20.2,12C20.2,12,20.2,12,20.2,12c0.1,0,0.1-0.1,0.1-0.1l0-0.2c0-0.1-0.1-0.1-0.1-0.1c0,0,0,0,0,0c-0.1,0-0.1,0.1-0.1,0.1   l0,0.2C20.1,12,20.1,12,20.2,12z"/><path d="M20.2,14.1L20.2,14.1c0.1,0,0.1-0.1,0.1-0.1l0-0.2c0-0.1-0.1-0.1-0.1-0.1h0c-0.1,0-0.1,0.1-0.1,0.1l0,0.2   C20,14.1,20.1,14.1,20.2,14.1z"/><path d="M20.2,14.8C20.2,14.8,20.2,14.8,20.2,14.8c0.1,0,0.1-0.1,0.1-0.1l0-0.2c0-0.1-0.1-0.1-0.1-0.1c0,0,0,0,0,0   c-0.1,0-0.1,0.1-0.1,0.1l0,0.2C20,14.8,20.1,14.8,20.2,14.8z"/><path d="M20.2,33.4C20.2,33.4,20.2,33.4,20.2,33.4c-0.1,0-0.1,0.1-0.1,0.1l0,0.2c0,0.1,0.1,0.1,0.1,0.1c0.1,0,0.1-0.1,0.1-0.1   l0-0.2C20.3,33.5,20.3,33.4,20.2,33.4z"/><path d="M20.2,34.1C20.2,34.1,20.2,34.1,20.2,34.1c-0.1,0-0.1,0.1-0.1,0.1l0,0.2c0,0.1,0.1,0.1,0.1,0.1c0,0,0,0,0,0   c0.1,0,0.1-0.1,0.1-0.1l0-0.2C20.3,34.2,20.3,34.1,20.2,34.1z"/><path d="M20.2,34.8C20.2,34.8,20.2,34.8,20.2,34.8c-0.1,0-0.1,0.1-0.1,0.1l0,0.2c0,0.1,0.1,0.1,0.1,0.1c0,0,0,0,0,0   c0.1,0,0.1-0.1,0.1-0.1l0-0.2C20.3,34.9,20.2,34.8,20.2,34.8z"/><path d="M22.1,18.7l-0.2,0.1c-0.4,0.3-0.8,0.3-1.2,0c-0.1-0.1-0.2-0.2-0.2-0.3v-1.1c0,0,0-0.1,0-0.1c0.5-0.2,0.8-0.9,0.8-1.2   c0-0.4-0.5-0.7-1-0.8l0-0.1c0-0.1-0.1-0.1-0.1-0.1c0,0,0,0,0,0c-0.1,0-0.1,0.1-0.1,0.1l0,0.1c-0.6,0.1-1,0.4-1,0.8   c0,0.4,0.5,1.2,1,1.3c0,0,0,0,0,0v1.1c0,0.1-0.1,0.3-0.2,0.3c-0.4,0.2-1,0.2-1.4,0l-0.2-0.1c-0.1-0.1-0.3,0-0.3,0.1   c-0.1,0.1,0,0.3,0.1,0.3l0.2,0.1c0.3,0.2,0.7,0.3,1,0.3c0.3,0,0.6-0.1,0.9-0.2c0.1,0,0.1-0.1,0.2-0.2c0,0.1,0.1,0.1,0.1,0.2   c0.3,0.2,0.5,0.2,0.8,0.2c0.3,0,0.6-0.1,0.9-0.3l0.2-0.1c0.1-0.1,0.1-0.2,0.1-0.3C22.4,18.6,22.2,18.6,22.1,18.7z"/></g><text x="0" y="55" fill="#000000" font-size="5px" font-weight="bold" font-family="'Helvetica Neue', Helvetica, Arial-Unicode, Arial, Sans-serif">Created by marshmallow_cat</text><text x="0" y="60" fill="#000000" font-size="5px" font-weight="bold" font-family="'Helvetica Neue', Helvetica, Arial-Unicode, Arial, Sans-serif">from the Noun Project</text></svg>