<svg xmlns="http://www.w3.org/2000/svg" xmlns:xlink="http://www.w3.org/1999/xlink" version="1.1" x="0px" y="0px" viewBox="0 0 32 32" style="enable-background:new 0 0 32 32;" xml:space="preserve"><style type="text/css">
	.st0{fill:none;}
</style><path d="M12.119,24.119c-0.534,0-1.036-0.208-1.414-0.586l-6.119-6.119C4.208,17.036,4,16.534,4,16s0.208-1.036,0.586-1.414  l6.119-6.119c0.378-0.378,0.88-0.586,1.414-0.586s1.036,0.208,1.414,0.586s0.586,0.88,0.586,1.414s-0.208,1.036-0.586,1.414  L10.828,14H26c1.103,0,2,0.897,2,2s-0.897,2-2,2H10.828l2.705,2.705c0.378,0.378,0.586,0.88,0.586,1.414s-0.208,1.036-0.586,1.414  S12.653,24.119,12.119,24.119z" fill="#cccccc"/></svg>