<svg xmlns="http://www.w3.org/2000/svg" data-name="Layer 1" viewBox="0 0 100 125" x="0px" y="0px"><title>55</title><g data-name="Group"><path data-name="Compound Path" d="M80.7,21.6H42.3L33,13a3.5,3.5,0,0,0-2.4-.9H19.3A12.5,12.5,0,0,0,6.8,24.6V75.4A12.5,12.5,0,0,0,19.3,87.9H80.7A12.5,12.5,0,0,0,93.2,75.4V34.1A12.5,12.5,0,0,0,80.7,21.6Zm5.5,53.9a5.5,5.5,0,0,1-5.5,5.5H19.3a5.5,5.5,0,0,1-5.5-5.5v-33H86.2Zm0-40H13.8V24.6a5.5,5.5,0,0,1,5.5-5.5h10l9.3,8.6a3.5,3.5,0,0,0,2.4.9H80.7a5.5,5.5,0,0,1,5.5,5.5Z" fill="#ffffff"/><path data-name="Compound Path" d="M39.6,66.5l-1.3,7.4a3.5,3.5,0,0,0,5.1,3.7L50,74.1l6.6,3.5a3.5,3.5,0,0,0,5.1-3.7l-1.3-7.4,5.3-5.2a3.5,3.5,0,0,0-1.9-6l-7.4-1.1-3.3-6.7a3.5,3.5,0,0,0-6.3,0l-3.3,6.7-7.4,1.1a3.5,3.5,0,0,0-1.9,6Zm6.8-5.6A3.5,3.5,0,0,0,49,59l1-2,1,2a3.5,3.5,0,0,0,2.6,1.9l2.2.3-1.6,1.5a3.5,3.5,0,0,0-1,3.1l.4,2.2-2-1a3.5,3.5,0,0,0-3.3,0l-2,1,.4-2.2a3.5,3.5,0,0,0-1-3.1l-1.6-1.5Z" fill="#ffffff"/></g></svg>