<?xml version="1.0" encoding="UTF-8" standalone="no"?>
<svg
   data-name="Layer 1"
   viewBox="0 0 95 100"
   x="0px"
   y="0px"
   version="1.1"
   id="svg10"
   sodipodi:docname="noun-shopping-bag-5309704.svg"
   inkscape:version="1.1 (c68e22c387, 2021-05-23)"
   xmlns:inkscape="http://www.inkscape.org/namespaces/inkscape"
   xmlns:sodipodi="http://sodipodi.sourceforge.net/DTD/sodipodi-0.dtd"
   xmlns="http://www.w3.org/2000/svg"
   xmlns:svg="http://www.w3.org/2000/svg"
   xmlns:rdf="http://www.w3.org/1999/02/22-rdf-syntax-ns#"
   xmlns:cc="http://creativecommons.org/ns#"
   xmlns:dc="http://purl.org/dc/elements/1.1/">
  <sodipodi:namedview
     id="namedview12"
     pagecolor="#ffffff"
     bordercolor="#666666"
     borderopacity="1.0"
     inkscape:pageshadow="2"
     inkscape:pageopacity="0.0"
     inkscape:pagecheckerboard="0"
     showgrid="false"
     inkscape:window-width="1366"
     inkscape:window-height="705"
     inkscape:window-x="-8"
     inkscape:window-y="-8"
     inkscape:window-maximized="1"
     inkscape:current-layer="svg10" />
  <defs
     id="defs4">
    <style
       id="style2">.cls-1{fill-rule:evenodd;}</style>
  </defs>
  <title
     id="title6">a</title>
  <path
     class="cls-1"
     d="M 9.8,78.988 C 9.4911468,78.66762 9.3478985,78.222369 9.412,77.782 L 14.5,29.562 C 14.573362,28.766277 15.244943,28.15994 16.044,28.168 H 20.38 V 31.747 C 20.38,35.496332 26.004,35.496332 26.004,31.747 V 28.168 H 45.248 V 31.747 C 45.248,35.497665 50.874,35.497665 50.874,31.747 V 28.168 H 55.21 C 56.009057,28.15994 56.680638,28.766277 56.754,29.562 L 57.678,38.314 H 41.371 C 38.978826,38.314 37.039895,40.253826 37.041,42.646 V 78.946 C 37.041,79.135 37.048,79.31 37.056,79.499 H 10.95 C 10.508992,79.511965 10.085951,79.323988 9.8,78.988 Z M 26,22.542 H 45.248 V 17.742 C 45.248,12.427913 40.940084,8.1200042 35.626,8.1200042 30.311916,8.1200042 26.004,12.427913 26.004,17.742 V 22.542 Z M 85.6,43.942 H 42.667 V 78.95 C 42.670859,83.324315 46.215686,86.869589 50.59,86.874 H 77.682 C 82.056476,86.86959 85.60159,83.324476 85.606,78.95 V 43.94 Z M 5.61,82.742 C 4.2279649,81.243424 3.5703558,79.215431 3.81,77.191 L 8.9,28.971 C 9.276267,25.313818 12.360519,22.535528 16.037,22.542 H 20.38 V 17.742 C 20.38,9.3213089 27.206315,2.495007 35.627,2.495007 44.047685,2.495007 50.874,9.3213089 50.874,17.742 V 22.542 H 55.21 C 58.886481,22.535528 61.970733,25.313818 62.347,28.971 L 63.335,38.314 H 86.9 C 89.292174,38.314 91.231105,40.253826 91.23,42.646 V 78.946 C 91.22339,86.426586 85.162582,92.490077 77.682,92.5 H 50.59 C 45.508206,92.495021 40.855429,89.650091 38.535,85.129 H 10.95 C 8.9091873,85.149285 6.9611527,84.277891 5.616,82.743 Z M 51.419,52.352 C 51.419,59.372096 57.109909,65.062994 64.13,65.062994 71.150091,65.062994 76.841,59.372096 76.841,52.352 V 47.946 C 76.91306,44.124621 71.14394,44.124621 71.216,47.946 V 52.353 C 71.216,56.266492 68.04349,59.438997 64.13,59.438997 60.21651,59.438997 57.044,56.266492 57.044,52.353 V 47.946 C 57.11606,44.124621 51.34694,44.124621 51.419,47.946 Z" stroke="none"
     fill="#cccccc"
     fill-rule="nonzero"
     id="path8"
     sodipodi:nodetypes="cccccssccssccccscscccccssscccccccccccccccsssccccsccccccccsssccsssccs" />
  <metadata
     id="metadata829">
    <rdf:RDF>
      <cc:Work
         rdf:about="">
        <dc:title>a</dc:title>
      </cc:Work>
    </rdf:RDF>
  </metadata>
</svg>
