<svg xmlns="http://www.w3.org/2000/svg" xmlns:xlink="http://www.w3.org/1999/xlink" version="1.1" x="0px" y="0px" viewBox="0 0 100 125" style="enable-background:new 0 0 100 100;" xml:space="preserve"><g><path d="M13.4,49.3l5.6-5.6V86h62V43.8l5.6,5.5c0.4,0.4,0.9,0.6,1.4,0.6c0.5,0,1-0.2,1.4-0.6c0.8-0.8,0.8-2.1,0-2.8L77,34.2V13H64   l0,8.1l-14-14L10.6,46.5c-0.8,0.8-0.8,2,0,2.8C11.4,50.1,12.6,50.1,13.4,49.3z M59,82H41V51h18V82z M68,30.7L68,17h5v18.8l4,4   c0,0.1,0,0.3,0,0.4V82H63V47H37v35H23V40.2c0-0.2,0-0.3-0.1-0.5L50,12.7L68,30.7z"/></g><text x="0" y="115" fill="#000000" font-size="5px" font-weight="bold" font-family="'Helvetica Neue', Helvetica, Arial-Unicode, Arial, Sans-serif">Created by praveen patchu</text><text x="0" y="120" fill="#000000" font-size="5px" font-weight="bold" font-family="'Helvetica Neue', Helvetica, Arial-Unicode, Arial, Sans-serif">from the Noun Project</text></svg>