<svg xmlns="http://www.w3.org/2000/svg" fill="none" viewBox="0 0 120 150" x="0px" y="0px"><path fill="#000" fill-rule="evenodd" d="M72 42c0-6.202-6.385-10-12-10-6.559.066-11.852 4.518-11.852 10S53.441 51.933 60 52c5.615 0 12-3.796 12-10Zm-11.926 2c1.503-.017 2.64-.533 3.29-1.075.637-.53.636-.892.636-.925 0-.033.001-.394-.636-.925-.65-.542-1.787-1.058-3.29-1.075-1.503.017-2.64.533-3.29 1.075-.636.53-.636.892-.636.925 0 .033 0 .394.637.925.65.542 1.786 1.058 3.29 1.075Z" clip-rule="evenodd"/><path fill="#000" fill-rule="evenodd" d="M63.362 103.785A13.986 13.986 0 0 0 75 110c7.732 0 14-6.268 14-14v-3.766c2.834.67 5.922.272 8.61-1.358 5.43-3.292 7.163-10.365 3.871-15.796L91.63 58.835c-2.517-4.151-7.241-6.142-11.753-5.38A23.888 23.888 0 0 0 84 40c0-1.671-.17-3.303-.496-4.878A13.977 13.977 0 0 0 89 24c0-7.732-6.268-14-14-14a13.987 13.987 0 0 0-11.649 6.232 23.606 23.606 0 0 0-6.553 0A13.987 13.987 0 0 0 45.148 10c-7.732 0-14 6.268-14 14 0 4.533 2.155 8.564 5.497 11.122A24.103 24.103 0 0 0 36.148 40a23.89 23.89 0 0 0 4.123 13.454c-4.511-.762-9.236 1.229-11.752 5.38L18.668 75.08c-3.293 5.431-1.56 12.504 3.871 15.796a11.463 11.463 0 0 0 8.61 1.358V96c0 7.732 6.267 14 14 14 4.85 0 9.125-2.467 11.637-6.215 2.19.282 4.387.282 6.576 0ZM61 95.938V91a13.99 13.99 0 0 1 6.49-11.817A8.003 8.003 0 0 0 60.074 74a8.003 8.003 0 0 0-7.415 5.183A13.99 13.99 0 0 1 59.149 91v4.938a7.577 7.577 0 0 0 1.851 0ZM44.945 77.001c-.959.014-1.894.124-2.797.321V76c0-5.947 2.884-11.22 7.33-14.497A23.996 23.996 0 0 0 60.147 64c3.779-.023 7.35-.92 10.523-2.497C75.115 64.781 78 70.053 78 76v1.322a14.039 14.039 0 0 0-2.797-.32C73.119 70.657 67.174 66.063 60.149 66c-6.794 0-13.08 4.534-15.204 11ZM60.075 56C68.876 55.96 76 48.812 76 40c0-8.812-7.123-15.96-15.926-16-8.802.04-15.925 7.188-15.925 16 0 8.812 7.123 15.96 15.925 16ZM48.49 19.016a24.12 24.12 0 0 0-8.53 8 6 6 0 0 1 8.53-8ZM31.494 82.858l2.659-4.385c-.015-.824-.005-1.649-.005-2.473a25.88 25.88 0 0 1 4.544-14.688 3.5 3.5 0 0 0-3.332 1.67l-9.851 16.246a3.5 3.5 0 0 0 5.985 3.63ZM51.148 91v5a6 6 0 0 1-12 0v-5a6 6 0 0 1 12 0Zm20.51-71.984a24.12 24.12 0 0 1 8.53 8 6 6 0 0 0-8.53-8Zm16.996 63.842-2.658-4.385C86.01 77.65 86 76.824 86 76a25.88 25.88 0 0 0-4.543-14.688 3.5 3.5 0 0 1 3.332 1.67l9.85 16.246a3.5 3.5 0 0 1-5.985 3.63ZM69 91v5a6 6 0 1 0 12 0v-5a6 6 0 0 0-12 0Z" clip-rule="evenodd"/><text x="0" y="135" fill="#000000" font-size="5px" font-weight="bold" font-family="'Helvetica Neue', Helvetica, Arial-Unicode, Arial, Sans-serif">Created by Marz Gallery</text><text x="0" y="140" fill="#000000" font-size="5px" font-weight="bold" font-family="'Helvetica Neue', Helvetica, Arial-Unicode, Arial, Sans-serif">from the Noun Project</text></svg>