<svg xmlns="http://www.w3.org/2000/svg" viewBox="0 0 24 30" fill="none" x="0px" y="0px"><path d="M21.627 7.22093C16.2904 2.92636 7.70971 2.92635 2.37309 7.22093C1.94283 7.56719 1.87472 8.19668 2.22097 8.62694C2.56722 9.05721 3.19671 9.12532 3.62698 8.77906C8.23148 5.07364 15.7686 5.07365 20.3731 8.77907C20.8034 9.12532 21.4328 9.05721 21.7791 8.62694C22.1254 8.19668 22.0572 7.56719 21.627 7.22093Z" fill="black"/><path fill-rule="evenodd" clip-rule="evenodd" d="M3.76459 10.6943C8.30279 5.76856 15.6973 5.76856 20.2355 10.6943L21.7355 12.3224C22.0882 12.7053 22.0882 13.2947 21.7355 13.6776L20.2355 15.3057C15.6973 20.2314 8.30279 20.2314 3.76459 15.3057L2.26459 13.6776C1.91185 13.2947 1.91185 12.7053 2.26459 12.3224L3.76459 10.6943ZM18.7646 12.0495C17.922 11.135 16.9636 10.4262 15.9414 9.92305C16.6047 10.7715 17 11.8396 17 13C17 14.1604 16.6047 15.2285 15.9414 16.077C16.9636 15.5738 17.922 14.865 18.7646 13.9505L19.6403 13L18.7646 12.0495ZM5.23548 12.0495C6.07802 11.135 7.03645 10.4262 8.05864 9.92305C7.39534 10.7715 7.00003 11.8396 7.00003 13C7.00003 14.1604 7.39534 15.2285 8.05864 16.077C7.03645 15.5738 6.07802 14.865 5.23548 13.9505L4.35975 13L5.23548 12.0495ZM12 10C10.3432 10 9.00003 11.3431 9.00003 13C9.00003 14.6569 10.3432 16 12 16C13.6569 16 15 14.6569 15 13C15 11.3431 13.6569 10 12 10Z" fill="black"/><text x="0" y="39" fill="#000000" font-size="5px" font-weight="bold" font-family="'Helvetica Neue', Helvetica, Arial-Unicode, Arial, Sans-serif">Created by Heztasia</text><text x="0" y="44" fill="#000000" font-size="5px" font-weight="bold" font-family="'Helvetica Neue', Helvetica, Arial-Unicode, Arial, Sans-serif">from the Noun Project</text></svg>