<svg xmlns="http://www.w3.org/2000/svg" viewBox="0 0 32 40" x="0px" y="0px"><title>category</title><g><path d="M9,15H23a1,1,0,0,0,.9-.56,1,1,0,0,0-.11-1l-7-9a1,1,0,0,0-1.58,0l-7,9a1,1,0,0,0-.11,1A1,1,0,0,0,9,15Zm7-8.37L21,13H11Z"/><path d="M14,16H4a1,1,0,0,0-1,1V27a1,1,0,0,0,1,1H14a1,1,0,0,0,1-1V17A1,1,0,0,0,14,16ZM13,26H5V18h8Z"/><path d="M23,16a6,6,0,1,0,6,6A6,6,0,0,0,23,16Zm0,10a4,4,0,1,1,4-4A4,4,0,0,1,23,26Z"/></g><text x="0" y="47" fill="#000000" font-size="5px" font-weight="bold" font-family="'Helvetica Neue', Helvetica, Arial-Unicode, Arial, Sans-serif">Created by Kawalan Icon</text><text x="0" y="52" fill="#000000" font-size="5px" font-weight="bold" font-family="'Helvetica Neue', Helvetica, Arial-Unicode, Arial, Sans-serif">from the Noun Project</text></svg>