<svg xmlns="http://www.w3.org/2000/svg" xmlns:xlink="http://www.w3.org/1999/xlink" viewBox="0 0 24 30" version="1.1" x="0px" y="0px"><title>Ico/Services/Tasks alt</title><g stroke="none" stroke-width="1" fill="none" fill-rule="evenodd"><path d="M19,3 C20.1045695,3 21,3.8954305 21,5 L21,5 L21,19 C21,20.1045695 20.1045695,21 19,21 L19,21 L5,21 C3.8954305,21 3,20.1045695 3,19 L3,19 L3,5 C3,3.8954305 3.8954305,3 5,3 L5,3 Z M19,5 L5,5 L5,19 L19,19 L19,5 Z M16,8.91420168 C16.2666375,8.91420168 16.5222334,9.02068735 16.71,9.21 C16.9152112,9.39931558 17.0319329,9.66580111 17.0319329,9.945 C17.0319329,10.2241989 16.9152112,10.4906844 16.71,10.68 L16.71,10.68 L11.55,15.84 C11.3622334,16.0293127 11.1066375,16.1357983 10.84,16.1357983 C10.5733625,16.1357983 10.3177666,16.0293127 10.13,15.84 L10.13,15.84 L7.29,13 C7.02740979,12.7463414 6.92009166,12.371861 7.00847132,12.017622 C7.09685098,11.6633829 7.36750145,11.3832025 7.71847132,11.282622 C8.06944119,11.1820414 8.44740979,11.2763414 8.71,11.53 L8.71,11.53 L10.84,13.67 L15.29,9.21 C15.4777666,9.02068735 15.7333625,8.91420168 16,8.91420168 Z" fill="#000000"/></g><text x="0" y="39" fill="#000000" font-size="5px" font-weight="bold" font-family="'Helvetica Neue', Helvetica, Arial-Unicode, Arial, Sans-serif">Created by Evgenii Likhachov</text><text x="0" y="44" fill="#000000" font-size="5px" font-weight="bold" font-family="'Helvetica Neue', Helvetica, Arial-Unicode, Arial, Sans-serif">from the Noun Project</text></svg>