<svg xmlns="http://www.w3.org/2000/svg" xmlns:xlink="http://www.w3.org/1999/xlink" version="1.1" x="0px" y="0px" viewBox="0 0 96 120" style="enable-background:new 0 0 96 96;" xml:space="preserve"><style type="text/css">
	.st0{fill-rule:evenodd;clip-rule:evenodd;}
</style><path d="M84.519,72.415H34.137c-0.851,0-1.658-0.302-2.272-0.852c-0.586-0.524-0.967-1.236-1.087-2.016h44.284  c1.882,0,3.491-1.281,3.913-3.114l7.189-31.218c0.28-1.217,0.006-2.425-0.771-3.402c-0.778-0.977-1.893-1.515-3.142-1.515H71.435  V4.194c0-0.706-0.572-1.278-1.278-1.278H58.546c-0.706,0-1.278,0.572-1.278,1.278v6.167H46.934c-0.706,0-1.278,0.572-1.278,1.278  v6.719H35.322c-0.706,0-1.278,0.572-1.278,1.278v10.663h-7.696l-0.918-8.149c-0.365-3.238-1.907-6.22-4.342-8.395  c-2.442-2.182-5.575-3.384-8.823-3.384h-0.784c-2.717,0-4.928,2.211-4.928,4.928s2.211,4.928,4.928,4.928h0.784  c0.851,0,1.658,0.302,2.272,0.852c0.621,0.555,1.015,1.321,1.109,2.156l5.325,47.257c0.365,3.238,1.907,6.22,4.342,8.396  c2.442,2.182,5.575,3.384,8.823,3.384h1.395c-1.326,1.126-2.17,2.804-2.17,4.676c0,3.383,2.752,6.136,6.136,6.136  s6.136-2.752,6.136-6.136c0-1.872-0.844-3.55-2.17-4.676h23.932c-1.326,1.126-2.17,2.804-2.17,4.676  c0,3.383,2.752,6.136,6.136,6.136c3.383,0,6.136-2.752,6.136-6.136c0-1.872-0.844-3.55-2.17-4.676h9.19  c2.717,0,4.928-2.211,4.928-4.928C89.447,74.626,87.236,72.415,84.519,72.415z M39.498,90.528c-1.974,0-3.58-1.606-3.58-3.58  c0-1.974,1.606-3.58,3.58-3.58c1.974,0,3.581,1.606,3.581,3.58C43.079,88.922,41.473,90.528,39.498,90.528z M71.363,90.528  c-1.974,0-3.58-1.606-3.58-3.58c0-1.974,1.606-3.58,3.58-3.58c1.974,0,3.581,1.606,3.581,3.58  C74.943,88.922,73.337,90.528,71.363,90.528z M67.694,32.854l-1.086,9.632H41.543l-1.086-9.632H67.694z M66.32,45.042l-0.534,4.739  l-0.528,4.684H42.893l-0.528-4.684l-0.534-4.739H66.32z M68.892,45.042h12.387l-2.17,9.423H67.83l0.495-4.398L68.892,45.042z   M44.304,66.992l-1.123-9.971H64.97l-1.123,9.971H44.304z M39.826,50.067l0.495,4.398h-11.25l-1.062-9.423h11.25L39.826,50.067z   M40.609,57.021l1.123,9.971h-11.25l-1.123-9.971H40.609z M76.485,65.859c-0.156,0.677-0.728,1.132-1.423,1.132h-8.643l1.123-9.971  H78.52L76.485,65.859z M83.393,33.405c0.295,0.371,0.387,0.776,0.281,1.237l-1.807,7.845H69.18l1.086-9.632H82.25  C82.724,32.854,83.098,33.035,83.393,33.405z M68.88,5.472v24.827h-9.056V5.472H68.88z M57.268,12.917v17.382h-9.056V12.917H57.268z   M36.6,20.913h9.056v9.386H36.6V20.913z M37.885,32.854l1.086,9.632H27.722l-1.085-9.632H37.885z M84.519,79.716H34.137  c-2.619,0-5.148-0.971-7.121-2.734c-1.966-1.757-3.211-4.163-3.505-6.776l-5.325-47.257c-0.164-1.46-0.856-2.801-1.946-3.775  c-1.083-0.968-2.495-1.502-3.975-1.502h-0.784c-1.308,0-2.373-1.064-2.373-2.373s1.064-2.373,2.373-2.373h0.784  c2.619,0,5.148,0.971,7.121,2.734c1.966,1.757,3.211,4.163,3.505,6.776l5.325,47.257c0.164,1.46,0.856,2.801,1.946,3.775  c1.083,0.968,2.495,1.502,3.975,1.502h50.381c1.308,0,2.373,1.064,2.373,2.373C86.891,78.652,85.827,79.716,84.519,79.716z"/><text x="0" y="111" fill="#000000" font-size="5px" font-weight="bold" font-family="'Helvetica Neue', Helvetica, Arial-Unicode, Arial, Sans-serif">Created by Puspito</text><text x="0" y="116" fill="#000000" font-size="5px" font-weight="bold" font-family="'Helvetica Neue', Helvetica, Arial-Unicode, Arial, Sans-serif">from the Noun Project</text></svg>