<svg xmlns="http://www.w3.org/2000/svg" data-name="Layer 1" viewBox="0 0 100 125" x="0px" y="0px"><title>112all</title><path d="M21.93,22l0-12.46a4,4,0,0,0-4-4h0a4,4,0,0,0-4,4l.06,23a4,4,0,0,0,4,4l23,.06h0a4,4,0,0,0,0-8l-14.34,0a33.22,33.22,0,1,1-9,35.93,4,4,0,0,0-7.53,2.71A41.26,41.26,0,1,0,21.93,22Z"/><path d="M51.69,62a4,4,0,0,0,4-4V36a4,4,0,0,0-8,0V54H35.31a4,4,0,0,0,0,8Z"/><text x="0" y="115" fill="#000000" font-size="5px" font-weight="bold" font-family="'Helvetica Neue', Helvetica, Arial-Unicode, Arial, Sans-serif">Created by Ahock</text><text x="0" y="120" fill="#000000" font-size="5px" font-weight="bold" font-family="'Helvetica Neue', Helvetica, Arial-Unicode, Arial, Sans-serif">from the Noun Project</text></svg>