<svg xmlns="http://www.w3.org/2000/svg" viewBox="0 0 24 24" x="0px" y="0px"><g><path data-name="46-Eye" d="M22.2188,10.4873C20.3418,8.4385,16.5186,5,12,5S3.6582,8.4385,1.7813,10.4873a2.9641,2.9641,0,0,0,0,4.0254C3.6582,16.5615,7.4814,20,12,20s8.3418-3.4385,10.2188-5.4873A2.9643,2.9643,0,0,0,22.2188,10.4873Zm-1.4747,2.6738C19.0889,14.9688,15.7529,18,12,18s-7.0889-3.0312-8.7441-4.8389a.9847.9847,0,0,1,0-1.3222C4.9111,10.0313,8.2471,7,12,7s7.0889,3.0313,8.7441,4.8389A.9847.9847,0,0,1,20.7441,13.1611ZM12,8a4.5,4.5,0,1,0,4.5,4.5A4.505,4.505,0,0,0,12,8Zm0,7a2.5,2.5,0,1,1,2.5-2.5A2.5023,2.5023,0,0,1,12,15Z" stroke="none"
     fill="#444746"
     fill-rule="nonzero"/></g></svg>