<svg xmlns="http://www.w3.org/2000/svg" data-name="Layer 1" viewBox="0 0 100 125" x="0px" y="0px"><title>02</title><path d="M50,26.82A23.18,23.18,0,1,0,73.18,50,23.2,23.2,0,0,0,50,26.82Zm0,38.36A15.18,15.18,0,1,1,65.18,50,15.2,15.2,0,0,1,50,65.18Z" fill="#cccccc"/><path d="M46,8.27V19.86a4,4,0,0,0,8,0V8.27a4,4,0,1,0-8,0Z" fill="#cccccc"/><path d="M54,80.14a4,4,0,0,0-8,0V91.73a4,4,0,0,0,8,0Z" fill="#cccccc"/><path d="M91.73,46H80.14a4,4,0,0,0,0,8H91.73a4,4,0,0,0,0-8Z" fill="#cccccc"/><path d="M8.27,54H19.86a4,4,0,0,0,0-8H8.27a4,4,0,1,0,0,8Z" fill="#cccccc"/><path d="M82.34,17.66a4,4,0,0,0-5.66,0l-8.2,8.2a4,4,0,1,0,5.66,5.66l8.2-8.2A4,4,0,0,0,82.34,17.66Z" fill="#cccccc"/><path d="M17.66,82.34a4,4,0,0,0,5.66,0l8.2-8.2a4,4,0,0,0-5.66-5.66l-8.2,8.2A4,4,0,0,0,17.66,82.34Z" fill="#cccccc"/><path d="M74.14,68.49a4,4,0,0,0-5.66,5.66l8.2,8.2a4,4,0,0,0,5.66-5.66Z" fill="#cccccc"/><path d="M17.66,23.32l8.2,8.2a4,4,0,1,0,5.66-5.66l-8.2-8.2a4,4,0,1,0-5.66,5.66Z" fill="#cccccc"/></svg>