<svg xmlns="http://www.w3.org/2000/svg" xmlns:xlink="http://www.w3.org/1999/xlink" version="1.1" x="0px" y="0px" viewBox="0 0 1024 1280" style="enable-background:new 0 0 1024 1024;" xml:space="preserve"><g><g><path d="M724,324.1c-10.5,10.5-21,21-31.5,31.5c-25.2,25.2-50.4,50.4-75.6,75.6c-30.4,30.4-60.9,60.9-91.3,91.3    c-26.3,26.3-52.5,52.5-78.8,78.8c-12.6,12.6-25.1,25.6-38,38c-0.5,0.5-1,0.9-1.5,1.4c2.7-2.1,5.4-4.2,8.1-6.3    c-1.1,0.8-2.2,1.4-3.5,2c3.2-1.3,6.4-2.7,9.6-4c-0.8,0.3-1.7,0.5-2.5,0.7c3.5-0.5,7.1-1,10.6-1.4c-1.4,0.1-2.5,0.1-3.9,0    c3.5,0.5,7.1,1,10.6,1.4c-0.9-0.1-1.7-0.3-2.5-0.7c3.2,1.3,6.4,2.7,9.6,4c-1.3-0.6-2.3-1.1-3.5-2c2.7,2.1,5.4,4.2,8.1,6.3    c-5.4-4.8-10.3-10.2-15.4-15.3c-11.6-11.6-23.3-23.3-34.9-34.9c-26.5-26.5-53-53-79.5-79.5c-6.1-6.1-12.2-12.2-18.3-18.3    c-14.8-14.8-42-15.9-56.6,0c-14.7,16-15.8,40.8,0,56.6c33.6,33.6,67.2,67.2,100.8,100.8c14.9,14.9,29.8,29.8,44.8,44.8    c6.7,6.7,14.5,12.1,23.7,14.7c18.8,5.4,38.4,0.2,52.5-13.3c2.2-2.1,4.3-4.3,6.5-6.5c31.7-31.7,63.3-63.3,95-95    c44.7-44.7,89.5-89.5,134.2-134.2c26.2-26.2,52.6-52.2,78.5-78.5c0.4-0.4,0.8-0.8,1.2-1.2c14.8-14.8,15.9-42,0-56.6    C764.6,309.4,739.8,308.3,724,324.1L724,324.1z"/></g></g><g><g><path d="M876,903c-6.5,0-13.1,0-19.6,0c-17.9,0-35.8,0-53.6,0c-26.3,0-52.6,0-78.9,0c-32.2,0-64.4,0-96.6,0    c-35.1,0-70.1,0-105.2,0c-35.3,0-70.7,0-106,0c-32.8,0-65.7,0-98.5,0c-27.7,0-55.5,0-83.2,0c-19.6,0-39.2,0-58.8,0    c-8.9,0-17.8,0-26.7,0c-3,0-6-0.2-9-0.5c3.5,0.5,7.1,1,10.6,1.4c-6.2-0.8-12.2-2.5-18-4.9c3.2,1.3,6.4,2.7,9.6,4    c-5.2-2.3-10.1-5.2-14.6-8.7c2.7,2.1,5.4,4.2,8.1,6.3c-4.5-3.5-8.4-7.5-12-12c2.1,2.7,4.2,5.4,6.3,8.1c-3.5-4.6-6.3-9.4-8.7-14.6    c1.3,3.2,2.7,6.4,4,9.6c-2.4-5.8-4.1-11.8-4.9-18c0.5,3.5,1,7.1,1.4,10.6c-1-8.6-0.5-17.5-0.5-26.1c0-17.4,0-34.8,0-52.2    c0-26.2,0-52.5,0-78.7c0-32,0-64.1,0-96.1c0-35.3,0-70.7,0-106c0-35.5,0-71,0-106.6c0-33.2,0-66.4,0-99.7c0-27.8,0-55.6,0-83.5    c0-19.9,0-39.8,0-59.6c0-9,0-17.9,0-26.9c0-3,0.2-6,0.5-9c-0.5,3.5-1,7.1-1.4,10.6c0.8-6.2,2.5-12.2,4.9-18    c-1.3,3.2-2.7,6.4-4,9.6c2.3-5.2,5.2-10.1,8.7-14.6c-2.1,2.7-4.2,5.4-6.3,8.1c3.5-4.5,7.5-8.4,12-12c-2.7,2.1-5.4,4.2-8.1,6.3    c4.6-3.5,9.4-6.3,14.6-8.7c-3.2,1.3-6.4,2.7-9.6,4c5.8-2.4,11.8-4.1,18-4.9c-3.5,0.5-7.1,1-10.6,1.4c8.6-1,17.5-0.5,26.1-0.5    c17.4,0,34.8,0,52.2,0c26.2,0,52.5,0,78.7,0c32,0,64.1,0,96.1,0c35.3,0,70.7,0,106,0c35.5,0,71,0,106.6,0c33.2,0,66.4,0,99.7,0    c27.8,0,55.6,0,83.5,0c19.9,0,39.8,0,59.6,0c9,0,17.9,0,26.9,0c3,0,6,0.2,9,0.5c-3.5-0.5-7.1-1-10.6-1.4c6.2,0.8,12.2,2.5,18,4.9    c-3.2-1.3-6.4-2.7-9.6-4c5.2,2.3,10.1,5.2,14.6,8.7c-2.7-2.1-5.4-4.2-8.1-6.3c4.5,3.5,8.4,7.5,12,12c-2.1-2.7-4.2-5.4-6.3-8.1    c3.5,4.6,6.3,9.4,8.7,14.6c-1.3-3.2-2.7-6.4-4-9.6c2.4,5.8,4.1,11.8,4.9,18c-0.5-3.5-1-7.1-1.4-10.6c1,8.6,0.5,17.5,0.5,26.1    c0,17.4,0,34.8,0,52.2c0,26.2,0,52.5,0,78.7c0,32,0,64.1,0,96.1c0,35.3,0,70.7,0,106c0,35.5,0,71,0,106.6c0,33.2,0,66.4,0,99.7    c0,27.8,0,55.6,0,83.5c0,19.9,0,39.8,0,59.6c0,9,0,17.9,0,26.9c0,3-0.2,6-0.5,9c0.5-3.5,1-7.1,1.4-10.6c-0.8,6.2-2.5,12.2-4.9,18    c1.3-3.2,2.7-6.4,4-9.6c-2.3,5.2-5.2,10.1-8.7,14.6c2.1-2.7,4.2-5.4,6.3-8.1c-3.5,4.5-7.5,8.4-12,12c2.7-2.1,5.4-4.2,8.1-6.3    c-4.6,3.5-9.4,6.3-14.6,8.7c3.2-1.3,6.4-2.7,9.6-4c-5.8,2.4-11.8,4.1-18,4.9c3.5-0.5,7.1-1,10.6-1.4    C881.5,902.8,878.8,903,876,903c-10.3,0.1-21,4.4-28.3,11.7c-6.9,6.9-12.2,18.3-11.7,28.3c1,21.5,17.6,40.2,40,40    c37.9-0.4,74.1-20.8,92.9-54c9.5-16.7,14.1-35.5,14.1-54.6c0-11.2,0-22.3,0-33.5c0-23,0-46,0-69.1c0-31.5,0-63,0-94.4    c0-36.4,0-72.7,0-109.1c0-38.2,0-76.4,0-114.6c0-36.5,0-72.9,0-109.4c0-31.3,0-62.7,0-94c0-22.8,0-45.6,0-68.4    c0-10.9,0-21.7,0-32.6c0-19.9-5.1-40.3-15.8-57.2c-19.8-31.4-54-50.9-91.2-51.2c-7.8-0.1-15.5,0-23.3,0c-20.4,0-40.9,0-61.3,0    c-29.7,0-59.5,0-89.2,0c-35.6,0-71.2,0-106.9,0c-38.1,0-76.2,0-114.3,0c-37.2,0-74.4,0-111.6,0c-32.9,0-65.7,0-98.6,0    c-25.1,0-50.1,0-75.2,0c-14.1,0-28.2,0-42.2,0c-2.7,0-5.5-0.1-8.2,0.1c-37.4,1.5-73.9,22.4-91.4,56.3c-8.5,16.5-12.8,34-12.9,52.5    c0,4,0,8,0,12c0,17.7,0,35.4,0,53.2c0,27.8,0,55.6,0,83.5c0,34.4,0,68.7,0,103.1c0,37.8,0,75.6,0,113.4c0,37.7,0,75.4,0,113.2    c0,34.2,0,68.5,0,102.7c0,27.3,0,54.7,0,82c0,17,0,34.1,0,51.1c0,24.5,2.8,49,17.2,70c20.6,30,53,48.7,89.8,49c2.2,0,4.5,0,6.7,0    c14.7,0,29.4,0,44.1,0c25.7,0,51.3,0,77,0c33.2,0,66.4,0,99.6,0c37.3,0,74.7,0,112,0c38.1,0,76.1,0,114.2,0c35.4,0,70.8,0,106.1,0    c29.2,0,58.4,0,87.6,0c19.9,0,39.7,0,59.6,0c7,0,14,0,21,0c20.9,0,41-18.4,40-40C915,921.3,898.4,903,876,903z"/></g></g><text x="0" y="1039" fill="#000000" font-size="5px" font-weight="bold" font-family="'Helvetica Neue', Helvetica, Arial-Unicode, Arial, Sans-serif">Created by shashank singh</text><text x="0" y="1044" fill="#000000" font-size="5px" font-weight="bold" font-family="'Helvetica Neue', Helvetica, Arial-Unicode, Arial, Sans-serif">from the Noun Project</text></svg>