<svg xmlns="http://www.w3.org/2000/svg" data-name="Layer 1" viewBox="0 0 64 80" x="0px" y="0px"><title>1</title><path d="M45.72,23.26a13.59,13.59,0,0,0,1.9-6.92A13.1,13.1,0,0,0,47,12.47a6.56,6.56,0,0,0,3.5-5.79A6.8,6.8,0,0,0,43.64,0,6.88,6.88,0,0,0,38,3a16.59,16.59,0,0,0-12.16.13A6.66,6.66,0,1,0,17,12.51a13.4,13.4,0,0,0,1.32,10.73c-3.48,2-11.94,7.5-12,15.27a5.74,5.74,0,0,0,2.92,5,5.58,5.58,0,0,0,2.75.73,5.52,5.52,0,0,0,2.92-.84,1.64,1.64,0,0,0,.22-.14c.06.36.13.71.2,1a1.57,1.57,0,0,0-.23.09,8.09,8.09,0,0,0-4.54,5.36A11.73,11.73,0,0,0,16.28,63a8.82,8.82,0,0,0,4,1,7.71,7.71,0,0,0,3-.62,8.08,8.08,0,0,0,4.46-5.13,11.08,11.08,0,0,0,4.77,1,14.88,14.88,0,0,0,4.42-.72,8,8,0,0,0,4.35,4.8,7.68,7.68,0,0,0,3,.62,8.85,8.85,0,0,0,4-1A11.73,11.73,0,0,0,54,49.78a8.09,8.09,0,0,0-4.54-5.36,7,7,0,0,0-.72-.27c0-.27.1-.55.14-.84l.18.12a5.53,5.53,0,0,0,5.66.12,5.77,5.77,0,0,0,2.94-5C57.62,30.81,49.44,25.35,45.72,23.26ZM43.64,2.87a3.93,3.93,0,0,1,4,3.81,3.7,3.7,0,0,1-1.75,3.13,15,15,0,0,0-5.36-5.57A4.06,4.06,0,0,1,43.64,2.87ZM25.84,6.2l0,0A13.76,13.76,0,0,1,38,6.07l.07,0h0a11.53,11.53,0,0,1,6.69,10.22C44.75,22.75,39,28,32,28S19.3,22.75,19.3,16.34A11.5,11.5,0,0,1,25.84,6.2ZM18.1,9.85a3.81,3.81,0,1,1,5.14-5.46A15.09,15.09,0,0,0,18.1,9.85Zm-3.22,30A8.88,8.88,0,0,1,13.43,41a2.64,2.64,0,0,1-2.76.06,2.83,2.83,0,0,1-1.46-2.52c0-6.44,8-11.4,10.81-13a14.08,14.08,0,0,0,1.3,1.26C19.2,29,15.22,33.72,14.88,39.84Zm10.2,17.38a5.32,5.32,0,0,1-2.92,3.52,5.29,5.29,0,0,1-4.57-.29,8.87,8.87,0,0,1-4.26-9.88,5.29,5.29,0,0,1,2.92-3.52,4.74,4.74,0,0,1,1.89-.39,5.84,5.84,0,0,1,2.68.69,8.84,8.84,0,0,1,4.26,9.87Zm12.25-6.79a11.61,11.61,0,0,0-1,5.33,9.69,9.69,0,0,1-8.14-.5,11.63,11.63,0,0,0-1-4.83,11.25,11.25,0,0,0-5.12-5.63,8.74,8.74,0,0,0-4-1,18.2,18.2,0,0,1-.47-3.31c.09-5.7,4.25-10.28,6-11.93a16.45,16.45,0,0,0,16.66,0c1.78,1.71,5.87,6.25,5.94,11.92a19.26,19.26,0,0,1-.39,3.33,8.64,8.64,0,0,0-3.44,1A11.25,11.25,0,0,0,37.33,50.43Zm13.91.14A8.84,8.84,0,0,1,47,60.45a5,5,0,0,1-7.49-3.23,8.84,8.84,0,0,1,4.26-9.87,5.77,5.77,0,0,1,2.67-.69,4.75,4.75,0,0,1,1.9.39A5.28,5.28,0,0,1,51.24,50.57Zm2.08-9.52A2.66,2.66,0,0,1,50.57,41a9.33,9.33,0,0,1-1.46-1.18c-.34-6.05-4.21-10.75-6.4-12.94A15.73,15.73,0,0,0,44,25.59c4.4,2.4,10.75,7.33,10.78,12.93A2.82,2.82,0,0,1,53.32,41.05Z" stroke="none"
     fill="#707070"
     fill-rule="nonzero" /><path d="M26.15,14a2.08,2.08,0,1,0-2.08-2.08A2.08,2.08,0,0,0,26.15,14Zm0-2.87a.79.79,0,0,1,.78.79.79.79,0,0,1-1.57,0A.79.79,0,0,1,26.15,11.09Z" stroke="none"
     fill="#707070"
     fill-rule="nonzero" /><path d="M37.91,14a2.08,2.08,0,1,0-2.08-2.08A2.08,2.08,0,0,0,37.91,14Zm0-2.87a.79.79,0,0,1,.78.79.79.79,0,0,1-1.57,0A.79.79,0,0,1,37.91,11.09Z" stroke="none"
     fill="#707070"
     fill-rule="nonzero" /><path d="M24.82,21.45c0,3.07,3.17,5.47,7.21,5.47s7.2-2.4,7.2-5.47S36.07,16,32,16,24.82,18.37,24.82,21.45ZM32,18.83c2.56,0,4.34,1.38,4.34,2.62,0,1-1.15,2.05-2.91,2.44V22.27a1.43,1.43,0,0,0-.24-2.84H30.83a1.43,1.43,0,0,0-.24,2.84v1.62c-1.76-.39-2.91-1.46-2.91-2.44C27.68,20.21,29.47,18.83,32,18.83Z" stroke="none"
     fill="#707070"
     fill-rule="nonzero" /></svg>