<svg xmlns="http://www.w3.org/2000/svg" xmlns:xlink="http://www.w3.org/1999/xlink" xml:space="preserve" version="1.1" style="shape-rendering:geometricPrecision;text-rendering:geometricPrecision;image-rendering:optimizeQuality;" viewBox="0 0 846.66 1058.325" x="0px" y="0px" fill-rule="evenodd" clip-rule="evenodd"><defs><style type="text/css">
   
    .fil0 {fill:black;fill-rule:nonzero}
   
  </style></defs><g><path class="fil0" d="M203.49 206.88c0,-32.88 50,-32.88 50,0 0,74.13 60.59,134.71 134.71,134.71 74.05,0 134.72,-60.66 134.72,-134.71 0,-32.88 50,-32.88 50,0 0,101.66 -83.05,184.71 -184.71,184.71 -101.64,0 -184.72,-83.08 -184.72,-184.71zm385.72 168.73c26.96,0 52.67,5.45 76.06,15.31l0 -262.52 -554.14 0 0 516.64c0,26.72 21.82,48.51 48.53,48.51l275.46 0c-26.44,-33.45 -42.23,-75.7 -42.23,-121.62 0,-108.29 88.03,-196.32 196.32,-196.32zm126.06 45.9c42.93,36.03 70.26,90.06 70.26,150.42 0,108.42 -87.9,196.32 -196.32,196.32 -34.6,0 -67.11,-8.97 -95.34,-24.7l-334.21 0c-54.19,0 -98.53,-44.32 -98.53,-98.51l0 -566.64 654.14 0 0 343.11zm-48.52 85.98l-58.98 0 0 37.62 34.09 0c12.1,2.61 24.89,11.22 24.89,24.78l0 73.18c0,17.18 -18.84,25.66 -33.82,25.66l-25.16 0 0 30.61 -37.12 0 0 -30.61 -58.98 0 0 -42.86 58.98 0 0 -37.62 -25.16 0c-14.96,0 -33.82,-8.61 -33.82,-25.65l0 -72.31c0,-16.97 19.08,-25.66 33.82,-25.66l25.16 0 0 -20.11 37.12 0 0 20.11 58.98 0 0 42.86zm-58.98 80.76l0 37.62 12.08 0 0 -37.62 -12.08 0zm-37.12 -43.14l0 -37.62 -12.06 0 0 37.62 12.06 0zm18.56 -118.53c-80.41,0 -145.35,64.94 -145.35,145.35 0,80.37 64.98,145.35 145.35,145.35 80.26,0 145.35,-65.09 145.35,-145.35 0,-80.32 -65.01,-145.35 -145.35,-145.35z"/></g><text x="0" y="861.66" fill="#000000" font-size="5px" font-weight="bold" font-family="'Helvetica Neue', Helvetica, Arial-Unicode, Arial, Sans-serif">Created by adindar</text><text x="0" y="866.66" fill="#000000" font-size="5px" font-weight="bold" font-family="'Helvetica Neue', Helvetica, Arial-Unicode, Arial, Sans-serif">from the Noun Project</text></svg>