<svg xmlns="http://www.w3.org/2000/svg" xmlns:xlink="http://www.w3.org/1999/xlink" viewBox="0 0 20 25" version="1.1" x="0px" y="0px"><title>users-couple</title><desc>Created with Sketch.</desc><g stroke="none" stroke-width="1" fill="none" fill-rule="evenodd"><path d="M12.9760579,8.5 C16.4135396,8.5 19.6471682,12.2875713 17.6236333,14.2252464 C17.4394117,14.4016515 17.1950894,14.5 16.9410769,14.5 L16.9410769,14.5 L12.2847858,14.5009733 C12.3608239,15.1329814 12.1845105,15.7376775 11.675337,16.2252464 C11.4911153,16.4016515 11.2467931,16.5 10.9927806,16.5 L10.9927806,16.5 L3.06171882,16.5 C2.7987656,16.5 2.54658413,16.3946254 2.36066013,16.2070611 C0.374649737,14.2035294 3.57668247,10.5 7.02776157,10.5 C7.52952443,10.5 8.02694386,10.5807007 8.50430355,10.7245689 C9.47193265,9.49122528 11.1906675,8.5 12.9760579,8.5 Z M7.02776157,12.5 C5.9571304,12.5 4.94128725,13.0010937 4.28396467,13.761365 C4.09196474,13.9834356 3.94974473,14.2092008 3.86482008,14.4108803 L3.86482008,14.4108803 L3.83103181,14.5 L10.2056227,14.5 L10.1830834,14.44077 C10.1143968,14.2777647 10.0089409,14.0984424 9.87090122,13.9177373 L9.87090122,13.9177373 L9.76132745,13.7821825 C9.10104134,13.0087849 8.09021039,12.5 7.02776157,12.5 Z M12.9760579,10.5 C11.9054267,10.5 10.8895836,11.0010937 10.232261,11.761365 L10.232261,11.761365 L10.339039,11.6454682 C10.6916773,11.9031759 11.0102081,12.1924023 11.2831056,12.5002893 L11.2831056,12.5002893 L16.153919,12.5 L16.1313798,12.44077 C16.0626931,12.2777647 15.9572372,12.0984424 15.8191975,11.9177373 L15.8191975,11.9177373 L15.7096238,11.7821825 C15.0493377,11.0087849 14.0385067,10.5 12.9760579,10.5 Z M12.975546,3.5 C14.8918855,3.5 16.4453855,5.06700338 16.4453855,7 C16.4453855,8.93299662 14.8918855,10.5 12.975546,10.5 C11.9911318,10.5 11.1024647,10.086495 10.4709448,9.4222882 C10.2657054,11.1558537 8.80209598,12.5 7.02724969,12.5 C5.11091024,12.5 3.55741018,10.9329966 3.55741018,9 C3.55741018,7.06700338 5.11091024,5.5 7.02724969,5.5 C8.01215904,5.5 8.90122502,5.9139211 9.53280368,6.57871431 C9.7365239,4.84466654 11.2003563,3.5 12.975546,3.5 Z M7.02724969,7.5 C6.20596136,7.5 5.54017562,8.17157288 5.54017562,9 C5.54017562,9.82842712 6.20596136,10.5 7.02724969,10.5 C7.84853803,10.5 8.51432377,9.82842712 8.51432377,9 C8.51432377,8.17157288 7.84853803,7.5 7.02724969,7.5 Z M12.975546,5.5 C12.1542577,5.5 11.4884719,6.17157288 11.4884719,7 C11.4884719,7.82842712 12.1542577,8.5 12.975546,8.5 C13.7968343,8.5 14.4626201,7.82842712 14.4626201,7 C14.4626201,6.17157288 13.7968343,5.5 12.975546,5.5 Z" fill="#707070" fill-rule="nonzero"/></g></svg>