<svg xmlns="http://www.w3.org/2000/svg" xmlns:xlink="http://www.w3.org/1999/xlink" xmlns:xodm="http://www.corel.com/coreldraw/odm/2003" xml:space="preserve" version="1.1" style="shape-rendering:geometricPrecision;text-rendering:geometricPrecision;image-rendering:optimizeQuality;" viewBox="0 0 8.4666 10.58325" x="0px" y="0px" fill-rule="evenodd" clip-rule="evenodd"><defs><style type="text/css">
   
    .fil0 {fill:black;fill-rule:nonzero}
   
  </style></defs><g><path class="fil0" d="M2.9127 1.0177l0.4188 0.7251c0.0472,0.0817 0.1107,0.1456 0.1851,0.1886l0.0076 0.0047c0.0719,0.0395 0.156,0.0606 0.2475,0.0606l3.4866 0c0.2744,0 0.5237,0.112 0.7042,0.2925 0.1805,0.1805 0.2925,0.4298 0.2925,0.7042l0 3.7973c0,0.2739 -0.1121,0.523 -0.2926,0.7036 -0.1805,0.1811 -0.4299,0.2932 -0.7041,0.2932l-6.05 0c-0.2743,0 -0.5237,-0.1121 -0.7042,-0.2926l-0.009 -0.0098c-0.175,-0.1797 -0.2835,-0.425 -0.2835,-0.6944l0 -5.1149c0,-0.2744 0.112,-0.5237 0.2925,-0.7042 0.1805,-0.1805 0.4298,-0.2925 0.7042,-0.2925l1.1184 0c0.1228,0 0.2385,0.0312 0.3395,0.0896l0.0107 0.0068c0.096,0.0579 0.1767,0.1398 0.2358,0.2422zm-1.3574 5.6159c-0.0935,0 -0.1694,-0.0759 -0.1694,-0.1694 0,-0.0935 0.0759,-0.1694 0.1694,-0.1694l1.7999 0c0.0935,0 0.1694,0.0759 0.1694,0.1694 0,0.0935 -0.0759,0.1694 -0.1694,0.1694l-1.7999 0zm-1.0049 -3.2334l7.3658 0 0 -0.4068c0,-0.1811 -0.074,-0.3457 -0.1931,-0.4648 -0.1191,-0.1191 -0.2837,-0.1931 -0.4648,-0.1931l-3.4866 0c-0.1494,0 -0.2899,-0.0368 -0.4136,-0.1059l-0.0109 -0.0058c-0.1253,-0.0724 -0.231,-0.178 -0.3081,-0.3116l-0.4188 -0.7251c-0.0302,-0.0523 -0.0697,-0.0935 -0.1156,-0.1217l-0.0079 -0.0043c-0.0486,-0.0281 -0.1066,-0.0432 -0.1701,-0.0432l-1.1184 0c-0.1811,0 -0.3457,0.074 -0.4648,0.1931 -0.1191,0.1191 -0.1931,0.2837 -0.1931,0.4648l0 1.7244zm7.3658 0.3388l-7.3658 0 0 3.0517c0,0.1776 0.0709,0.3392 0.1855,0.4577l0.0076 0.0071c0.1192,0.1192 0.2838,0.1932 0.4648,0.1932l6.05 0c0.1809,0 0.3455,-0.074 0.4647,-0.1932 0.1192,-0.1189 0.1932,-0.2836 0.1932,-0.4648l0 -3.0517z"/></g><text x="0" y="23.4666" fill="#000000" font-size="5px" font-weight="bold" font-family="'Helvetica Neue', Helvetica, Arial-Unicode, Arial, Sans-serif">Created by Imron Sadewo</text><text x="0" y="28.4666" fill="#000000" font-size="5px" font-weight="bold" font-family="'Helvetica Neue', Helvetica, Arial-Unicode, Arial, Sans-serif">from the Noun Project</text></svg>