<svg xmlns:dc="http://purl.org/dc/elements/1.1/" xmlns:cc="http://creativecommons.org/ns#" xmlns:rdf="http://www.w3.org/1999/02/22-rdf-syntax-ns#" xmlns:svg="http://www.w3.org/2000/svg" xmlns="http://www.w3.org/2000/svg" xmlns:sodipodi="http://sodipodi.sourceforge.net/DTD/sodipodi-0.dtd" xmlns:inkscape="http://www.inkscape.org/namespaces/inkscape" version="1.1" x="0px" y="0px" viewBox="0 0 100 125"><g transform="translate(0,-952.36218)"><path d="m 58.764079,965.17182 c -6.21923,-2.4216 -11.95103,-2.4028 -18.18694,0.094 -1.81748,-1.6495 -3.97586,-3.0106 -6.5623,-3.4918 -3.57564,-0.3777 -7.38579,0.5281 -9.78095,2.6495 -3.58778,3.2231 -4.70381,7.7381 -4.06238,11.6911 0.56879,3.5053 2.4899,6.6372 5.34359,8.4176 0.23832,6.4844 2.39691,11.5984 5.68732,15.24526 -3.29771,2.42422 -6.21989,5.95992 -8.031,9.13452 -3.35298,6.0266 -3.8844,13.5435 0.0312,18.5811 -0.20546,9.0248 5.41238,15.7333 12.78086,15.8687 3.17394,0 6.09091,-1.3835 8.34349,-3.6476 3.50027,1.2705 7.24079,1.2245 11.24966,-0.062 2.25436,2.311 5.19551,3.71 8.40599,3.71 7.92283,-0.041 13.0469,-6.694 12.84341,-15.8998 4.23229,-5.9164 3.13709,-12.9403 0.0312,-18.55 -2.28849,-3.6225 -4.73187,-6.8499 -8.03101,-9.13452 3.28274,-3.64696 5.41727,-8.76196 5.65608,-15.24526 2.86069,-1.7788 4.77397,-4.9073 5.34359,-8.4176 0.64143,-3.953 -0.44334,-8.468 -4.03113,-11.6911 -2.48869,-2.0193 -5.17457,-2.8527 -7.62472,-3.0237 -3.60878,-0.3372 -7.43153,1.621 -9.40606,3.7716 z m 14.43701,2.3071 c 2.43941,2.256 3.13836,5.202 2.68742,7.9812 -0.45727,2.8177 -2.19533,5.2437 -4.12488,6.1105 -0.69543,0.3228 -1.16779,1.0742 -1.15621,1.8394 0,7.4671 -2.66039,12.2228 -6.4998,15.33866 -3.83941,3.11582 -9.0277,4.55172 -14.09332,4.55172 -5.06566,0 -10.28516,-1.4359 -14.12457,-4.55172 -3.83941,-3.11586 -6.46855,-7.87156 -6.46855,-15.33866 0.006,-0.7719 -0.48051,-1.5258 -1.18746,-1.8394 -1.92955,-0.8668 -3.63637,-3.2928 -4.09363,-6.1105 -0.45095,-2.7792 0.21676,-5.7252 2.65617,-7.9812 2.02367,-1.2939 4.45606,-2.1526 6.46855,-1.8083 2.03627,0.379 4.0203,1.6185 5.46859,3.1801 0.56282,0.6066 1.52419,0.8037 2.28118,0.4675 6.51191,-2.9069 11.0813,-2.9069 17.59321,0 0.87249,0.4021 2.01904,0.063 2.53117,-0.7482 1.00985,-1.5876 2.86666,-2.7884 5.06234,-3.1176 2.2759,-0.2426 5.06995,0.368 6.99979,2.0265 z m -45.56106,2.868 c -1.69569,1.9992 -1.86523,5.2834 0.31249,8.5422 0.36469,0.5374 1.29152,0.5374 1.6562,0 1.99106,-3.0616 3.983,-5.9378 5.87482,-7.8251 0.42726,-0.4257 0.32857,-1.2463 -0.18749,-1.5589 -2.50756,-1.4813 -5.66028,-1.4423 -7.65602,0.8418 z m 36.62388,-0.8416 c -0.51606,0.3126 -0.61475,1.1332 -0.18749,1.5589 1.89182,1.8873 3.88376,4.7636 5.87482,7.8251 0.36468,0.5374 1.29152,0.5374 1.6562,0 2.17772,-3.2588 2.00818,-6.543 0.31249,-8.5422 -2.33502,-2.2924 -5.06824,-2.359 -7.65602,-0.8418 z m -21.24935,5.8612 c -1.10453,0 -1.99994,1.3399 -1.99994,2.9929 0,1.6529 0.89541,2.9929 1.99994,2.9929 1.10454,0 1.99994,-1.34 1.99994,-2.9929 0,-1.653 -0.8954,-2.9929 -1.99994,-2.9929 z m 13.99958,0 c -1.10454,0 -1.99994,1.3399 -1.99994,2.9929 0,1.6529 0.8954,2.9929 1.99994,2.9929 1.10453,0 1.99993,-1.34 1.99993,-2.9929 0,-1.653 -0.8954,-2.9929 -1.99993,-2.9929 z m -6.99979,7.0146 c -6.09234,0 -11.06216,4.4749 -11.06216,9.9452 0,5.4704 4.96982,9.91408 11.06216,9.91408 6.09233,0 11.03091,-4.44368 11.03091,-9.91408 0,-5.4703 -4.93858,-9.9452 -11.03091,-9.9452 z m 0,1.9018 c 4.95302,0 8.93723,3.596 8.93723,8.0434 0,4.4474 -3.98421,8.01228 -8.93723,8.01228 -4.95303,0 -8.96848,-3.56488 -8.96848,-8.01228 0,-4.4474 4.01545,-8.0434 8.96848,-8.0434 z m 0,1.1847 c -2.83309,0 -5.12484,1.7148 -5.12484,3.8347 0,1.8628 1.77323,3.4462 4.12487,3.8034 l 0,3.367 c -1.42816,-0.2053 -2.8914,-0.8306 -4.40612,-1.9641 -0.55978,-0.382 -0.93563,-0.1428 -1.26788,0.1096 -0.34427,0.4246 -0.38512,1.1483 0.0804,1.4804 2.12794,1.5924 4.34362,2.46296 6.59355,2.46296 2.24993,0 4.46561,-0.87056 6.59355,-2.46296 0.48497,-0.2818 0.63386,-1.0093 0.29851,-1.4583 -0.33535,-0.449 -1.07655,-0.5147 -1.48598,-0.1317 -1.51471,1.1335 -2.97795,1.7588 -4.40611,1.9641 l 0,-3.367 c 2.35164,-0.3572 4.12487,-1.9406 4.12487,-3.8034 0,-2.1199 -2.29175,-3.8347 -5.12484,-3.8347 z m -15.65577,17.14688 c 0.10923,0.079 0.2333,0.1417 0.34374,0.2182 -2.8663,3.6453 -4.58814,7.8407 -4.87485,12.1589 -2.26028,1.4731 -4.11204,3.7311 -5.28109,6.4535 -0.82023,-3.6498 0.50187,-7.6924 2.09368,-10.5689 2.10594,-3.4115 4.35423,-6.2364 7.71852,-8.2617 z m 31.31154,0 c 3.28208,1.955 5.95289,5.2215 7.68726,8.2617 1.73722,3.4924 2.99717,7.0036 2.09369,10.5689 -1.1716,-2.7122 -2.99384,-4.9808 -5.24984,-6.4535 -0.28288,-4.3188 -2.01407,-8.5132 -4.87485,-12.1589 0.11045,-0.077 0.2345,-0.1394 0.34374,-0.2182 z m -27.46791,2.2447 c 3.71737,1.704 7.83818,2.4318 11.81214,2.4318 3.97395,0 8.09476,-0.7278 11.81214,-2.4318 2.17007,2.6206 3.57039,5.4998 4.12487,8.4488 -0.64234,-0.1173 -1.29982,-0.2183 -1.96869,-0.2183 -7.06924,0 -12.81211,6.8167 -12.81211,15.1517 0,2.9298 0.70693,5.66 1.93745,7.9812 -2.3307,0.6181 -4.32863,0.6554 -6.28106,0.1247 1.27694,-2.3469 2.03119,-5.1247 2.03119,-8.1059 0,-8.335 -5.80537,-15.1517 -12.87461,-15.1517 -0.66181,0 -1.30218,0.072 -1.93744,0.1871 0.56556,-2.9385 1.9896,-5.806 4.15612,-8.4176 z m -2.21868,12.5641 c 5.08074,0 9.18722,4.8277 9.18722,10.8181 0,5.9906 -4.10648,10.7871 -9.18722,10.7871 -5.08074,0 -9.12472,-4.7965 -9.12472,-10.7871 0,-5.9904 4.04398,-10.8181 9.12472,-10.8181 z m 27.99914,0 c 5.08075,0 9.18722,4.8277 9.18722,10.8181 0,5.9906 -4.10647,10.7871 -9.18722,10.7871 -5.08074,0 -9.12472,-4.7965 -9.12472,-10.7871 0,-5.9904 4.04398,-10.8181 9.12472,-10.8181 z m -27.99914,1.7771 c -4.37137,0 -7.90601,4.0567 -7.90601,9.041 0,4.9843 3.53464,9.01 7.90601,9.01 4.37136,0 7.9685,-4.0257 7.9685,-9.01 0,-4.9843 -3.59714,-9.041 -7.9685,-9.041 z m 27.99914,0 c -4.37136,0 -7.90601,4.0567 -7.90601,9.041 0,4.9843 3.53465,9.01 7.90601,9.01 4.37137,0 7.96851,-4.0257 7.96851,-9.01 0,-4.9843 -3.59714,-9.041 -7.96851,-9.041 z" style="text-indent:0;text-transform:none;direction:ltr;block-progression:tb;baseline-shift:baseline;color:#000000;enable-background:accumulate;" fill="#000000" fill-opacity="1" stroke="none" marker="none" visibility="visible" display="inline" overflow="visible"/></g><text x="0" y="115" fill="#000000" font-size="5px" font-weight="bold" font-family="'Helvetica Neue', Helvetica, Arial-Unicode, Arial, Sans-serif">Created by arif fajar yulianto</text><text x="0" y="120" fill="#000000" font-size="5px" font-weight="bold" font-family="'Helvetica Neue', Helvetica, Arial-Unicode, Arial, Sans-serif">from the Noun Project</text></svg>