<svg xmlns="http://www.w3.org/2000/svg" xmlns:xlink="http://www.w3.org/1999/xlink" version="1.1" x="0px" y="0px" viewBox="0 0 64 80" style="enable-background:new 0 0 64 64;" xml:space="preserve"><g><path d="M58.9,41.6c-0.4-1.6-2-2.6-3.6-2.3c-12.1,2.7-24-5-26.6-17c-1-4.7-0.5-9.6,1.5-14c0,0,0,0,0-0.1c0.1-0.1,0.1-0.2,0.1-0.4   c0-0.1,0-0.1,0.1-0.2c0-0.1,0-0.2,0-0.4c0-0.1,0-0.2,0-0.2c0-0.1,0-0.2,0-0.3c0-0.1,0-0.2,0-0.3c0,0,0-0.1,0-0.1   c0-0.1,0-0.1-0.1-0.2c0-0.1-0.1-0.2-0.1-0.3c0-0.1-0.1-0.2-0.1-0.3c0-0.1-0.1-0.2-0.1-0.2c-0.1-0.1-0.1-0.2-0.2-0.2   C29.7,5,29.6,5,29.6,4.9c-0.1-0.1-0.1-0.1-0.2-0.2c-0.1-0.1-0.1-0.1-0.2-0.2c-0.1-0.1-0.2-0.1-0.3-0.2c-0.1,0-0.1-0.1-0.2-0.1   c0,0-0.1,0-0.1,0c-0.1,0-0.2-0.1-0.3-0.1c-0.1,0-0.2-0.1-0.3-0.1s-0.2,0-0.3,0c-0.1,0-0.2,0-0.3,0c-0.1,0-0.2,0-0.2,0   c-0.1,0-0.2,0-0.4,0c0,0,0,0-0.1,0C11.5,7.7,2.1,23,5.8,38.2C8.8,51,20.2,60,33.3,60c10.8,0,20.7-6.1,25.4-15.9   c0.3-0.5,0.3-1.1,0.3-1.7C59,42.2,59,41.9,58.9,41.6z M33.3,54C20.9,54,11,43.9,11,31.6c0-8.2,4.5-15.7,11.7-19.6   c-3,15.3,6.9,30.3,22.3,33.3c1.8,0.4,3.6,0.5,5.5,0.5h0.1C46.3,51,40,54,33.3,54z"/></g><text x="0" y="79" fill="#000000" font-size="5px" font-weight="bold" font-family="'Helvetica Neue', Helvetica, Arial-Unicode, Arial, Sans-serif">Created by Andy Horvath</text><text x="0" y="84" fill="#000000" font-size="5px" font-weight="bold" font-family="'Helvetica Neue', Helvetica, Arial-Unicode, Arial, Sans-serif">from the Noun Project</text></svg>