<svg xmlns="http://www.w3.org/2000/svg" xmlns:xlink="http://www.w3.org/1999/xlink" xml:space="preserve" version="1.1" style="shape-rendering:geometricPrecision;text-rendering:geometricPrecision;image-rendering:optimizeQuality;" viewBox="0 0 2539.98 3174.975" x="0px" y="0px" fill-rule="evenodd" clip-rule="evenodd"><defs><style type="text/css">
   
    .fil0 {fill:black;fill-rule:nonzero}
   
  </style></defs><g><path class="fil0" d="M200.36 2271.42l565.51 0 0 -565.51 -232.95 0 -0.01 -484.52 687.96 0 0 230.52 -233.63 0.01 0 565.5 565.5 0 0 -565.51 -231.2 0 -0.67 -230.52 687.96 0 -0.01 484.53 -234.7 0 0 565.5 565.5 0 0 -565.5 -231.2 0 0.01 -592.59 -787.56 0 0 -279.27 232.76 0 0 -565.51 -565.51 0 0 565.51 232.75 0 0 279.27 -787.56 0 0.01 592.58 -232.96 0 0 565.51zm886.88 -354l0 -365.5 365.5 0 0 365.5 -365.5 0zm0.88 -1183.36l0 -365.51 365.51 0 0 365.51 -365.51 0zm786 1437.36l0 -365.5 365.5 0 0 365.5 -365.5 0zm-1573.76 0l0 -365.51 365.51 0 0 365.51 -365.51 0z"/></g></svg>