<svg xmlns="http://www.w3.org/2000/svg" xmlns:xlink="http://www.w3.org/1999/xlink" xmlns:serif="http://www.serif.com/" viewBox="0 0 512 640" version="1.1" xml:space="preserve" style="" x="0px" y="0px" fill-rule="evenodd" clip-rule="evenodd" stroke-linejoin="round" stroke-miterlimit="2"><rect x="0" y="0" width="512" height="512" style="" fill="none"/><path d="M188.169,256.052l-174.113,-174.114c-18.733,-18.732 -18.733,-49.149 0,-67.882c18.733,-18.733 49.15,-18.733 67.882,0l174.01,174.01l173.429,-173.958c18.704,-18.762 49.121,-18.808 67.882,-0.104c18.762,18.704 18.808,49.121 0.104,67.883l-173.532,174.061l174.113,174.114c18.733,18.732 18.733,49.149 0,67.882c-18.733,18.733 -49.15,18.733 -67.882,0l-174.01,-174.01l-173.429,173.958c-18.704,18.762 -49.121,18.808 -67.882,0.104c-18.762,-18.704 -18.808,-49.121 -0.104,-67.883l173.532,-174.061Z"/></svg>