<svg xmlns="http://www.w3.org/2000/svg" viewBox="0 0 24 30" fill="none" x="0px" y="0px"><path fill-rule="evenodd" clip-rule="evenodd" d="M5 2C3.34315 2 2 3.34315 2 5V9C2 10.6569 3.34315 12 5 12H7V14C7 15.6569 8.34315 17 10 17H12V19C12 20.6569 13.3431 22 15 22H19C20.6569 22 22 20.6569 22 19V15C22 13.3431 20.6569 12 19 12H17V10C17 8.34315 15.6569 7 14 7H12V5C12 3.34315 10.6569 2 9 2H5ZM4 5C4 4.44772 4.44772 4 5 4H9C9.55228 4 10 4.44772 10 5V9C10 9.55229 9.55228 10 9 10H5C4.44772 10 4 9.55229 4 9V5ZM12 9C12 10.6569 10.6569 12 9 12V14C9 14.5523 9.44772 15 10 15H12C12 13.3431 13.3431 12 15 12V10C15 9.44772 14.5523 9 14 9L12 9ZM15 14C14.4477 14 14 14.4477 14 15V19C14 19.5523 14.4477 20 15 20H19C19.5523 20 20 19.5523 20 19V15C20 14.4477 19.5523 14 19 14H15Z" fill="black"/><text x="0" y="39" fill="#000000" font-size="5px" font-weight="bold" font-family="'Helvetica Neue', Helvetica, Arial-Unicode, Arial, Sans-serif">Created by Heztasia</text><text x="0" y="44" fill="#000000" font-size="5px" font-weight="bold" font-family="'Helvetica Neue', Helvetica, Arial-Unicode, Arial, Sans-serif">from the Noun Project</text></svg>