<svg xmlns="http://www.w3.org/2000/svg" xmlns:xlink="http://www.w3.org/1999/xlink" version="1.1" x="0px" y="0px" viewBox="0 0 160 200" style="enable-background:new 0 0 160 160;" xml:space="preserve"><path d="M40.554,137.455v-0.769c0-4.587-3.732-8.319-8.319-8.319h-2.265c-4.587,0-8.319,3.732-8.319,8.319v0.769  c0,4.588,3.732,8.32,8.319,8.32h2.265C36.821,145.775,40.554,142.043,40.554,137.455z M35.554,137.455  c0,1.831-1.489,3.32-3.319,3.32h-2.265c-1.83,0-3.319-1.489-3.319-3.32v-0.769c0-1.83,1.489-3.319,3.319-3.319h2.265  c1.83,0,3.319,1.489,3.319,3.319V137.455z"/><path d="M136.645,109.31c-1.82-2.26-4.65-3.64-7.75-3.64c-3.08,0-5.92,1.38-7.74,3.63c-0.36,0.03-0.71,0.07-1.06,0.13l1.9-2.39  c3.54-4.44,5.38-10.02,5.18-15.7c-0.31-8.96-5.54-16.91-13.64-20.76l-5.83-2.77l-1.25-2.72c1.15-1.6,2.12-3.33,2.88-5.15  c2.07-5.04,2.49-10.5,1.2-15.79l-3.61-14.79c5.64-1.1,9.91-6.08,9.91-12.04c0-6.76-5.5-12.26-12.26-12.26  c-5.97,0-10.95,4.28-12.04,9.93c-4.39-0.75-8.77-1.17-12.47-1.17h-0.13c-3.76,0-8.21,0.43-12.67,1.2  c-1.08-5.67-6.07-9.96-12.04-9.96c-6.77,0-12.27,5.5-12.27,12.26c0,6.03,4.38,11.05,10.11,12.07l-3.6,14.76  c-1.29,5.29-0.87,10.75,1.2,15.79c0.71,1.71,1.62,3.33,2.68,4.84l-1.4,3.03l-5.83,2.77c-8.11,3.85-13.33,11.8-13.64,20.76  c-0.2,5.68,1.64,11.26,5.18,15.71l1.86,2.33c-0.22-0.03-0.44-0.06-0.67-0.08c-1.82-2.25-4.66-3.63-7.74-3.63  c-3.09,0-5.93,1.38-7.75,3.64c-6.59,0.43-11.83,5.93-11.83,12.64v17.07c0,8.78,7.6,15.92,16.95,15.92h5.26  c2.94,0,5.71-0.71,8.13-1.96c0.01,0,0.02,0,0.02,0h76.25c2.42,1.25,5.19,1.96,8.13,1.96h5.26c9.35,0,16.95-7.14,16.95-15.92v-17.07  C148.475,115.25,143.235,109.74,136.645,109.31z M104.575,12.06c2.9,0,5.26,2.36,5.26,5.26c0,2.73-2.08,4.95-4.74,5.22  c-1.1-2.63-3.14-4.71-5.72-5.88C99.705,14.07,101.895,12.06,104.575,12.06z M64.355,22.73c5.3-1.19,11.12-1.91,15.58-1.91h0.13  c4.46,0,10.28,0.72,15.58,1.91c1.61,0.36,2.84,1.59,3.24,3.2l4.85,19.88c0.93,3.84,0.63,7.8-0.87,11.46  c-1.5,3.63-4.18,6.75-7.54,8.78l-6.83,4.13c-2.14,1.3-4.6,1.99-7.11,1.99h-2.77c-2.51,0-4.97-0.69-7.12-1.99l-6.82-4.13  c-3.36-2.03-6.04-5.15-7.53-8.78c-1.51-3.66-1.81-7.62-0.88-11.46l4.85-19.88C61.515,24.32,62.755,23.09,64.355,22.73z   M49.955,17.32c0-2.9,2.36-5.26,5.27-5.26c2.71,0,4.92,2.06,5.21,4.69c-2.5,1.19-4.47,3.23-5.54,5.81  C52.145,22.38,49.955,20.11,49.955,17.32z M43.675,139.02c0,4.92-4.46,8.92-9.94,8.92h-5.26c-5.49,0-9.95-4-9.95-8.92v-17.07  c0-3.13,2.55-5.67,5.68-5.67h1.1c1.39,0,2.65-0.82,3.21-2.09c0.39-0.91,1.44-1.52,2.59-1.52c1.12,0,2.14,0.58,2.56,1.45  c0.53,1.27,1.77,2.16,3.23,2.16h1.11c3.13,0,5.67,2.54,5.67,5.67V139.02z M48.945,145.98c1.1-2.11,1.73-4.46,1.73-6.96v-15.7  c2.76,3.02,6.58,4.71,10.59,4.71c1.02,0,2.04-0.11,3.06-0.33c3.84-0.81,7.1-3.09,9.19-6.41c2.1-3.31,2.75-7.23,1.84-11.05  l-0.15-0.62c-1.37-5.76-6.04-10.05-11.9-10.93l-1.06-0.16l-5.19-6.52c-1.21-1.52-3.41-1.76-4.92-0.56s-1.76,3.4-0.56,4.91l6.05,7.6  c0.55,0.7,1.34,1.15,2.22,1.29l2.42,0.36c3.02,0.45,5.43,2.66,6.13,5.63l0.15,0.62c0.47,1.97,0.13,3.99-0.95,5.7  c-1.07,1.7-2.76,2.88-4.73,3.3c-2.78,0.59-5.6-0.42-7.37-2.64l-12.36-15.53c-2.5-3.15-3.8-7.09-3.66-11.11  c0.21-6.33,3.91-11.96,9.64-14.67l6.98-3.32c0.75-0.35,1.34-0.95,1.69-1.7l0.74-1.62c0.81,0.63,1.64,1.24,2.53,1.77l6.82,4.13  c3.24,1.96,6.95,3,10.74,3h2.77c3.79,0,7.5-1.04,10.74-3l6.82-4.13c0.79-0.48,1.54-1.01,2.27-1.57l0.65,1.42  c0.35,0.75,0.94,1.35,1.69,1.7l6.98,3.32c5.73,2.71,9.42,8.34,9.64,14.67c0.14,4.02-1.16,7.96-3.66,11.11l-12.36,15.53  c-1.77,2.22-4.59,3.23-7.37,2.64c-1.97-0.42-3.66-1.59-4.73-3.3c-1.08-1.71-1.42-3.73-0.95-5.69l0.15-0.63  c0.7-2.97,3.11-5.18,6.12-5.63l2.43-0.36c0.88-0.14,1.67-0.59,2.22-1.29l6.05-7.6c1.2-1.51,0.95-3.71-0.56-4.91  s-3.71-0.96-4.92,0.56l-5.19,6.52l-1.07,0.16c-5.85,0.88-10.52,5.17-11.89,10.93l-0.15,0.62c-0.91,3.82-0.26,7.74,1.84,11.06  c2.09,3.31,5.36,5.59,9.19,6.4c1.02,0.22,2.04,0.33,3.05,0.33c4.19,0,8.17-1.84,10.95-5.11v16.1c0,2.5,0.63,4.85,1.73,6.96H48.945z   M141.475,139.02c0,4.92-4.46,8.92-9.95,8.92h-5.26c-5.48,0-9.94-4-9.94-8.92v-17.07c0-3.13,2.54-5.67,5.67-5.67h1.11  c1.45,0,2.69-0.88,3.22-2.14c0.42-0.88,1.45-1.47,2.57-1.47c1.15,0,2.2,0.61,2.59,1.52c0.56,1.27,1.82,2.09,3.21,2.09h1.1  c3.13,0,5.68,2.54,5.68,5.67V139.02z"/><path d="M41.095,122.95c0,1.67-1.36,3.04-3.04,3.04s-3.04-1.37-3.04-3.04c0-1.68,1.36-3.04,3.04-3.04S41.095,121.27,41.095,122.95z"/><path d="M27.195,122.95c0,1.67-1.37,3.04-3.05,3.04c-1.67,0-3.04-1.37-3.04-3.04c0-1.68,1.37-3.04,3.04-3.04  C25.825,119.91,27.195,121.27,27.195,122.95z"/><path d="M34.145,119.12c0,1.68-1.37,3.04-3.04,3.04c-1.68,0-3.04-1.36-3.04-3.04c0-1.67,1.36-3.04,3.04-3.04  C32.775,116.08,34.145,117.45,34.145,119.12z"/><path d="M131.935,119.12c0,1.68-1.36,3.04-3.04,3.04c-1.67,0-3.04-1.36-3.04-3.04c0-1.67,1.37-3.04,3.04-3.04  C130.575,116.08,131.935,117.45,131.935,119.12z"/><path d="M124.985,122.95c0,1.67-1.36,3.04-3.04,3.04s-3.04-1.37-3.04-3.04c0-1.68,1.36-3.04,3.04-3.04  S124.985,121.27,124.985,122.95z"/><path d="M138.895,122.95c0,1.67-1.37,3.04-3.04,3.04c-1.68,0-3.05-1.37-3.05-3.04c0-1.68,1.37-3.04,3.05-3.04  C137.525,119.91,138.895,121.27,138.895,122.95z"/><path d="M130.031,128.367h-2.266c-4.587,0-8.319,3.732-8.319,8.319v0.769c0,4.588,3.732,8.32,8.319,8.32h2.266  c4.587,0,8.319-3.732,8.319-8.32v-0.769C138.351,132.099,134.618,128.367,130.031,128.367z M133.351,137.455  c0,1.831-1.489,3.32-3.319,3.32h-2.266c-1.83,0-3.319-1.489-3.319-3.32v-0.769c0-1.83,1.489-3.319,3.319-3.319h2.266  c1.83,0,3.319,1.489,3.319,3.319V137.455z"/><circle cx="68.634" cy="34.718" r="2.889"/><circle cx="91.367" cy="34.718" r="2.889"/><path d="M71.54,45.848c-0.761,1.299-0.778,2.919-0.046,4.227c1.229,2.197,3.375,4.504,6.119,5.426v0.89v2.588  c-0.532,0.326-1.65,0.751-2.816,0.609c-1.015-0.124-1.737-0.639-2.276-1.62c-0.665-1.211-2.186-1.654-3.395-0.988  c-1.21,0.664-1.652,2.185-0.988,3.395c1.501,2.734,4.106,4.248,7.106,4.248c0.783,0,1.593-0.104,2.416-0.314  c0.85-0.218,1.701-0.563,2.453-1.012c0.753,0.449,1.603,0.794,2.453,1.012c0.823,0.211,1.633,0.314,2.416,0.314  c3,0,5.605-1.514,7.106-4.248c0.664-1.21,0.222-2.73-0.988-3.395c-1.209-0.666-2.729-0.222-3.395,0.988  c-0.539,0.981-1.262,1.496-2.276,1.62c-1.167,0.142-2.285-0.283-2.816-0.609v-2.588v-0.89c2.744-0.922,4.89-3.229,6.119-5.425  c0.732-1.309,0.715-2.929-0.046-4.228c-0.695-1.187-1.897-1.895-3.215-1.895H74.755C73.438,43.954,72.235,44.662,71.54,45.848z   M83.457,48.954c-0.924,1.101-2.135,1.969-3.344,1.969s-2.42-0.867-3.344-1.969H83.457z"/><text x="0" y="175" fill="#000000" font-size="5px" font-weight="bold" font-family="'Helvetica Neue', Helvetica, Arial-Unicode, Arial, Sans-serif">Created by Symbolon</text><text x="0" y="180" fill="#000000" font-size="5px" font-weight="bold" font-family="'Helvetica Neue', Helvetica, Arial-Unicode, Arial, Sans-serif">from the Noun Project</text></svg>