<svg xmlns="http://www.w3.org/2000/svg" viewBox="0 0 24 30" x="0px" y="0px"><path d="M20.7,5.91H12.22a.84.84,0,0,1-.6-.25L9.27,3.25A.84.84,0,0,0,8.67,3H3.3A1.3,1.3,0,0,0,2,4.3V19.7A1.3,1.3,0,0,0,3.3,21H20.69A1.31,1.31,0,0,0,22,19.7V7.2A1.3,1.3,0,0,0,20.7,5.91ZM3,4.3a.29.29,0,0,1,.08-.21A.35.35,0,0,1,3.3,4H8.6l2.3,2.36a1.86,1.86,0,0,0,1.32.55H20.7a.3.3,0,0,1,.3.29V9.5H3ZM21,19.7a.3.3,0,0,1-.31.3H3.3a.29.29,0,0,1-.3-.3V10.5H21Z"/><text x="0" y="39" fill="#000000" font-size="5px" font-weight="bold" font-family="'Helvetica Neue', Helvetica, Arial-Unicode, Arial, Sans-serif">Created by YongD</text><text x="0" y="44" fill="#000000" font-size="5px" font-weight="bold" font-family="'Helvetica Neue', Helvetica, Arial-Unicode, Arial, Sans-serif">from the Noun Project</text></svg>