<svg xmlns="http://www.w3.org/2000/svg" xmlns:xlink="http://www.w3.org/1999/xlink" version="1.1" x="0px" y="0px" viewBox="0 0 512 640" enable-background="new 0 0 512 512" xml:space="preserve"><g><path d="M200.7304688,241.5634766H63.0625c-21.5800781,0-39.1367188-17.5566406-39.1367188-39.137207V64.7578125   c0-21.5800781,17.5566406-39.137207,39.1367188-39.137207h137.6679688c21.5810547,0,39.1376953,17.5571289,39.1376953,39.137207   v137.668457C239.8681641,224.0068359,222.3115234,241.5634766,200.7304688,241.5634766z M63.0625,45.6206055   c-10.5517578,0-19.1367188,8.5849609-19.1367188,19.137207v137.668457c0,10.5522461,8.5849609,19.137207,19.1367188,19.137207   h137.6679688c10.5527344,0,19.1376953-8.5849609,19.1376953-19.137207V64.7578125   c0-10.5522461-8.5849609-19.137207-19.1376953-19.137207H63.0625z"/><path d="M448.9375,241.5634766H311.2695312c-21.5810547,0-39.1376953-17.5566406-39.1376953-39.137207V64.7578125   c0-21.5800781,17.5566406-39.137207,39.1376953-39.137207H448.9375c21.5800781,0,39.1367188,17.5571289,39.1367188,39.137207   v137.668457C488.0742188,224.0068359,470.5175781,241.5634766,448.9375,241.5634766z M311.2695312,45.6206055   c-10.5527344,0-19.1376953,8.5849609-19.1376953,19.137207v137.668457c0,10.5522461,8.5849609,19.137207,19.1376953,19.137207   H448.9375c10.5517578,0,19.1367188-8.5849609,19.1367188-19.137207V64.7578125   c0-10.5522461-8.5849609-19.137207-19.1367188-19.137207H311.2695312z"/><path d="M200.7304688,486.3793945H63.0625c-21.5800781,0-39.1367188-17.5571289-39.1367188-39.137207v-137.668457   c0-21.5805664,17.5566406-39.137207,39.1367188-39.137207h137.6679688c21.5810547,0,39.1376953,17.5566406,39.1376953,39.137207   v137.668457C239.8681641,468.8222656,222.3115234,486.3793945,200.7304688,486.3793945z M63.0625,290.4365234   c-10.5517578,0-19.1367188,8.5849609-19.1367188,19.137207v137.668457c0,10.5522461,8.5849609,19.137207,19.1367188,19.137207   h137.6679688c10.5527344,0,19.1376953-8.5849609,19.1376953-19.137207v-137.668457   c0-10.5522461-8.5849609-19.137207-19.1376953-19.137207H63.0625z"/><path d="M448.9375,486.3793945H311.2695312c-21.5810547,0-39.1376953-17.5571289-39.1376953-39.137207v-137.668457   c0-21.5805664,17.5566406-39.137207,39.1376953-39.137207H448.9375c21.5800781,0,39.1367188,17.5566406,39.1367188,39.137207   v137.668457C488.0742188,468.8222656,470.5175781,486.3793945,448.9375,486.3793945z M311.2695312,290.4365234   c-10.5527344,0-19.1376953,8.5849609-19.1376953,19.137207v137.668457c0,10.5522461,8.5849609,19.137207,19.1376953,19.137207   H448.9375c10.5517578,0,19.1367188-8.5849609,19.1367188-19.137207v-137.668457   c0-10.5522461-8.5849609-19.137207-19.1367188-19.137207H311.2695312z"/></g></svg>