<svg xmlns="http://www.w3.org/2000/svg" data-name="Layer 1" viewBox="0 0 100 125" x="0px" y="0px"><title>01</title><g data-name="Group"><path data-name="Compound Path" d="M94.6,69.1H87.3V55.8a8,8,0,0,0-8-8H53V30.9h8.3a3,3,0,0,0,3-3V11.1a3,3,0,0,0-3-3H38.7a3,3,0,0,0-3,3V27.9a3,3,0,0,0,3,3H47V47.8H20.7a8,8,0,0,0-8,8V69.1H5.4a3.1,3.1,0,0,0-3,3V88.9a3.1,3.1,0,0,0,3,3H25a3.1,3.1,0,0,0,3-3V72.1a3.1,3.1,0,0,0-3-3H18.7V55.8a2,2,0,0,1,2-2H47V69.1H40.2a3.1,3.1,0,0,0-3,3V88.9a3.1,3.1,0,0,0,3,3H59.8a3.1,3.1,0,0,0,3-3V72.1a3.1,3.1,0,0,0-3-3H53V53.8H79.3a2,2,0,0,1,2,2V69.1H75a3.1,3.1,0,0,0-3,3V88.9a3.1,3.1,0,0,0,3,3H94.6a3.1,3.1,0,0,0,3-3V72.1A3.1,3.1,0,0,0,94.6,69.1Zm-52.9-55H58.3V24.9H41.7ZM22,85.9H8.4V75.1H22Zm34.8,0H43.2V75.1H56.8Zm34.8,0H78V75.1H91.6Z"/></g><text x="0" y="115" fill="#000000" font-size="5px" font-weight="bold" font-family="'Helvetica Neue', Helvetica, Arial-Unicode, Arial, Sans-serif">Created by kinsley</text><text x="0" y="120" fill="#000000" font-size="5px" font-weight="bold" font-family="'Helvetica Neue', Helvetica, Arial-Unicode, Arial, Sans-serif">from the Noun Project</text></svg>