<svg xmlns="http://www.w3.org/2000/svg" xmlns:xlink="http://www.w3.org/1999/xlink" xml:space="preserve" version="1.1" style="shape-rendering:geometricPrecision;text-rendering:geometricPrecision;image-rendering:optimizeQuality;" viewBox="0 0 2540 3175" x="0px" y="0px" fill-rule="evenodd" clip-rule="evenodd"><defs><style type="text/css">
   
    .fil0 {fill:black;fill-rule:nonzero}
   
  </style></defs><g><path class="fil0" d="M932 720c50,-49 50,-130 0,-179 -49,-50 -130,-50 -179,0l-640 639c-49,50 -49,130 0,180l640 639c49,50 130,50 179,0 50,-49 50,-130 0,-179l-422 -423 1827 0c70,0 127,-57 127,-127 0,-70 -57,-127 -127,-127l-1827 0 422 -423z"/></g><text x="0" y="2555" fill="#000000" font-size="5px" font-weight="bold" font-family="'Helvetica Neue', Helvetica, Arial-Unicode, Arial, Sans-serif">Created by wakwau</text><text x="0" y="2560" fill="#000000" font-size="5px" font-weight="bold" font-family="'Helvetica Neue', Helvetica, Arial-Unicode, Arial, Sans-serif">from the Noun Project</text></svg>