<svg xmlns="http://www.w3.org/2000/svg" xmlns:xlink="http://www.w3.org/1999/xlink" version="1.1" x="0px" y="0px" viewBox="0 0 100 125" style="enable-background:new 0 0 100 100;" xml:space="preserve"><path d="M68.2,83.4l4.1-4.1l-4.1-4.1c-1-1-1-2.6,0-3.6c0.5-0.5,1.1-0.7,1.8-0.7c0.7,0,1.3,0.3,1.8,0.7l4.1,4.1l3.8-3.8  c0.5-0.5,1.1-0.7,1.8-0.7c0,0,0,0,0,0c0.7,0,1.3,0.3,1.8,0.7c0.5,0.5,0.7,1.1,0.7,1.8c0,0.7-0.3,1.3-0.7,1.8l-3.8,3.8l3.8,3.8  c0.5,0.5,0.7,1.1,0.7,1.8c0,0.7-0.3,1.3-0.7,1.8c-0.5,0.5-1.1,0.7-1.8,0.7s-1.3-0.3-1.8-0.7l-3.8-3.8l-4.1,4.1  c-0.5,0.5-1.1,0.7-1.8,0.7c-0.6,0-1.3-0.2-1.8-0.7C67.2,85.9,67.2,84.3,68.2,83.4z M83.5,97.6c-2.5,1.1-5.1,1.6-7.8,1.6  c-5.8,0-11.4-2.5-15.3-7.1H16.4c-6.6,0-12-5.4-12-12c0-0.2,0-0.3,0-0.4l8.8-49.9c0.5-3.5,3.5-6.1,7.1-6.1c0,0,0,0,0,0h5V19  c0-10,8.1-18.2,18.2-18.2c10,0,18.2,8.1,18.2,18.2v4.7h5c0,0,0,0,0,0c3.6,0,6.6,2.6,7.1,6.1l5.3,29.9c8.5,1.5,15.1,8.4,16.2,17  C96.6,85.5,91.7,94.1,83.5,97.6z M63.7,88.1c2.8,3.8,7.3,6.1,12,6.1l0.1,0c7.9-0.1,14.4-6.3,14.7-14.3c0.3-8-5.7-14.8-13.7-15.4  c-0.4,0-0.8,0-1.2,0c-5.6,0-10.7,3.1-13.2,8.1C59.9,77.6,60.4,83.5,63.7,88.1z M25.4,36.5v-7.8h-5c0,0,0,0,0,0c-1.1,0-2,0.8-2.2,1.8  c0,0,0,0.1,0,0.1L9.5,80.3C9.6,84,12.7,87,16.4,87h41c-2.5-5.8-2-12.4,1.2-17.9c3.3-5.6,9.1-9.2,15.5-9.7L69,30.6  c-0.2-1.1-1.1-1.9-2.2-1.9c0,0,0,0,0,0h-5v7.8c0,1.4-1.1,2.5-2.5,2.5c-1.4,0-2.5-1.1-2.5-2.5v-7.8H30.5v7.8c0,1.4-1.1,2.5-2.5,2.5  C26.6,39,25.4,37.9,25.4,36.5z M56.7,23.7V19c0-7.2-5.9-13.1-13.1-13.1c-7.2,0-13.1,5.9-13.1,13.1v4.7H56.7z"/><text x="0" y="115" fill="#000000" font-size="5px" font-weight="bold" font-family="'Helvetica Neue', Helvetica, Arial-Unicode, Arial, Sans-serif">Created by Kriya Barot</text><text x="0" y="120" fill="#000000" font-size="5px" font-weight="bold" font-family="'Helvetica Neue', Helvetica, Arial-Unicode, Arial, Sans-serif">from the Noun Project</text></svg>