<svg xmlns:dc="http://purl.org/dc/elements/1.1/" xmlns:cc="http://creativecommons.org/ns#" xmlns:rdf="http://www.w3.org/1999/02/22-rdf-syntax-ns#" xmlns:svg="http://www.w3.org/2000/svg" xmlns="http://www.w3.org/2000/svg" xmlns:sodipodi="http://sodipodi.sourceforge.net/DTD/sodipodi-0.dtd" xmlns:inkscape="http://www.inkscape.org/namespaces/inkscape" viewBox="0 0 8.4666667 9.083333625" version="1.1" x="0px" y="0px"><svg:g><svg:path style="color:#000000;font-style:normal;font-variant:normal;font-weight:normal;font-stretch:normal;font-size:medium;line-height:normal;font-family:sans-serif;font-variant-ligatures:normal;font-variant-position:normal;font-variant-caps:normal;font-variant-numeric:normal;font-variant-alternates:normal;font-feature-settings:normal;text-indent:0;text-align:start;text-decoration:none;text-decoration-line:none;text-decoration-style:solid;text-decoration-color:#000000;letter-spacing:normal;word-spacing:normal;text-transform:none;writing-mode:lr-tb;direction:ltr;text-orientation:mixed;dominant-baseline:auto;baseline-shift:baseline;text-anchor:start;white-space:normal;shape-padding:0;clip-rule:nonzero;display:inline;overflow:visible;visibility:visible;opacity:1;isolation:auto;mix-blend-mode:normal;color-interpolation:sRGB;color-interpolation-filters:linearRGB;solid-color:#000000;solid-opacity:1;vector-effect:none;fill:#cccccc;fill-opacity:1;fill-rule:nonzero;stroke:none;stroke-width:0.52916664;stroke-linecap:round;stroke-linejoin:round;stroke-miterlimit:4;stroke-dasharray:none;stroke-dashoffset:0;stroke-opacity:1;color-rendering:auto;image-rendering:auto;shape-rendering:auto;text-rendering:auto;enable-background:accumulate" d="m 3.0861169,0.54691317 a 0.26460979,0.26460979 0 0 0 -0.2382284,0.26355 V 3.0527032 a 0.26460979,0.26460979 0 0 0 0.2656171,0.26355 h 0.8552447 v 0.652673 H 1.384929 a 0.26460984,0.26460984 0 0 0 -0.2640666,0.26355 v 0.916223 H 0.26355019 A 0.26460979,0.26460979 0 0 0 3.1829359e-7,5.4143162 v 2.240174 A 0.26460979,0.26460979 0 0 0 0.26355019,7.9201062 H 2.5057907 A 0.26460979,0.26460979 0 0 0 2.7714075,7.6544902 V 5.4143162 A 0.26460979,0.26460979 0 0 0 2.5057907,5.1486992 h -0.855245 v -0.650606 h 5.1660917 v 0.650606 H 5.960877 a 0.26460979,0.26460979 0 0 0 -0.2656171,0.265617 v 2.240174 A 0.26460979,0.26460979 0 0 0 5.960877,7.9201062 H 8.2010511 A 0.26460979,0.26460979 0 0 0 8.4666663,7.6544902 V 5.4143162 A 0.26460979,0.26460979 0 0 0 8.2010511,5.1486992 H 7.3458041 V 4.2324762 A 0.26460984,0.26460984 0 0 0 7.0822552,3.9689262 H 4.4979169 v -0.652673 h 0.855762 a 0.26460979,0.26460979 0 0 0 0.2656168,-0.26355 V 0.81046317 a 0.26460979,0.26460979 0 0 0 -0.2656168,-0.26355 H 3.1135056 a 0.26460979,0.26460979 0 0 0 -0.027389,0 z M 3.3770552,1.0760802 h 1.7125571 v 1.711006 H 3.3770552 Z M 0.52916698,5.6778662 H 2.2422409 v 1.712557 H 0.52916698 Z m 5.69525882,0 h 1.7130739 v 1.712557 H 6.2244258 Z"/></svg:g></svg>