<svg xmlns="http://www.w3.org/2000/svg" viewBox="0 0 24 30" x="0px" y="0px"><g><path d="M17.68,6.32A4.73,4.73,0,0,0,13,2.25H7A4.75,4.75,0,0,0,2.25,7v6a4.73,4.73,0,0,0,4.07,4.68A4.73,4.73,0,0,0,11,21.75h6A4.75,4.75,0,0,0,21.75,17V11A4.73,4.73,0,0,0,17.68,6.32ZM3.75,13V7A3.26,3.26,0,0,1,7,3.75h6A3.26,3.26,0,0,1,16.25,7v6A3.26,3.26,0,0,1,13,16.25H7A3.26,3.26,0,0,1,3.75,13Zm16.5,4A3.26,3.26,0,0,1,17,20.25H11a3.25,3.25,0,0,1-3.15-2.5H13A4.75,4.75,0,0,0,17.75,13V7.85A3.25,3.25,0,0,1,20.25,11Z"/><path d="M9.25,10.75V13a.75.75,0,0,0,1.5,0V10.75H13a.75.75,0,0,0,0-1.5H10.75V7a.75.75,0,0,0-1.5,0V9.25H7a.75.75,0,0,0,0,1.5Z"/></g><text x="0" y="39" fill="#000000" font-size="5px" font-weight="bold" font-family="'Helvetica Neue', Helvetica, Arial-Unicode, Arial, Sans-serif">Created by Kreev Studio</text><text x="0" y="44" fill="#000000" font-size="5px" font-weight="bold" font-family="'Helvetica Neue', Helvetica, Arial-Unicode, Arial, Sans-serif">from the Noun Project</text></svg>