<svg xmlns="http://www.w3.org/2000/svg" viewBox="0 0 64 80" x="0px" y="0px"><g><path d="M61,40A1,1,0,0,0,62,38.9l-.546-5.462a22.275,22.275,0,0,0-2.844-8.894A7.032,7.032,0,0,0,47.526,23.06l-1.558,1.558A13.033,13.033,0,0,0,43,24.048V24a1,1,0,0,0-1-1H31.414L18.387,9.973a10.153,10.153,0,0,0-3.838-2.386,13.739,13.739,0,0,0-1.011-2.731l-.657-1.3a1.041,1.041,0,0,0-1.787,0l-.664,1.32a13.576,13.576,0,0,0-.883,2.293,10.1,10.1,0,0,0-4.678,2.06L2.375,11.219a1,1,0,0,0-.082,1.488L4.56,14.974,3.244,16.282a5.24,5.24,0,0,0,0,7.436,5.279,5.279,0,0,0,7.428,0l1.041-1.034a32.165,32.165,0,0,1,2.231,21.183l-.655,2.769A45.014,45.014,0,0,1,7.8,43.518a3.08,3.08,0,0,0-3.9.409,3.164,3.164,0,0,0,.558,4.878,51.994,51.994,0,0,0,56.082,0,3.166,3.166,0,0,0,.558-4.879,3.079,3.079,0,0,0-3.9-.409c-.721.48-1.456.931-2.2,1.365V36.971q0-.637-.064-1.269L60.4,39.8A1,1,0,0,0,61,40ZM37.279,42l1.334,4H31.387l1.334-4Zm-8.09,5.585A1,1,0,0,0,30,48H40a1,1,0,0,0,.949-1.316L39.5,42.332a14.031,14.031,0,0,1,4.249,2.887l3.345,3.325a44.334,44.334,0,0,1-27.077.676l3.994-4a13.849,13.849,0,0,1,6.77-3.719l-1.728,5.184A1,1,0,0,0,29.189,47.585ZM37,40H33V35h4Zm1-7H29V25h2v5a1,1,0,0,0,1,1h6a1,1,0,0,0,1-1V25h2v8Zm-1-8v4H33V25ZM16.973,11.387,28.586,23H28a1,1,0,0,0-1,1h-.287a1,1,0,0,1-.739-.327L15,11.613v-.6c0-.367-.035-.732-.065-1.1A8.171,8.171,0,0,1,16.973,11.387Zm-12.476.7,1.621-1.3A8.124,8.124,0,0,1,9.093,9.291c-.054.427-.1.856-.111,1.286l-3,2.987Zm8.376,8.451a1,1,0,0,0-1.59-.243L9.261,22.3a3.276,3.276,0,0,1-4.608,0,3.242,3.242,0,0,1,0-4.6l6.028-5.991a1,1,0,0,0,.3-.709,11.707,11.707,0,0,1,1.011-4.746A11.771,11.771,0,0,1,13,11.017V12a1,1,0,0,0,.26.673L24.494,25.019A3.007,3.007,0,0,0,26.713,26H27v8a1,1,0,0,0,1,1h3v4.42A15.835,15.835,0,0,0,22.6,43.8l-4.72,4.729c-.919-.321-1.831-.669-2.733-1.052l.747-3.153A34.171,34.171,0,0,0,12.873,20.534ZM58.305,45.182a1.065,1.065,0,0,1,1.366.145,1.16,1.16,0,0,1,.321.95,1.137,1.137,0,0,1-.52.838,50.011,50.011,0,0,1-53.944,0,1.136,1.136,0,0,1-.52-.837,1.16,1.16,0,0,1,.321-.95A1.065,1.065,0,0,1,6.7,45.182a46.994,46.994,0,0,0,6.687,3.7,1,1,0,0,0,.362.167l.016,0q1.95.861,3.951,1.539a.869.869,0,0,0,.157.05,46.323,46.323,0,0,0,31.372-.756.963.963,0,0,0,.1-.04,46.773,46.773,0,0,0,5.034-2.321c.018-.007.032-.019.049-.027C55.744,46.792,57.041,46.025,58.305,45.182Zm-9.158,2.585L45.157,43.8A16.029,16.029,0,0,0,39,39.994V35h3a1,1,0,0,0,1-1V26.047a10.9,10.9,0,0,1,6.77,3.158A11.023,11.023,0,0,1,53,36.971V46C51.738,46.652,50.451,47.239,49.147,47.767Zm5.1-15.082a12.89,12.89,0,0,0-6.277-7.241l.971-.97a5.033,5.033,0,0,1,7.929,1.062,20.287,20.287,0,0,1,2.589,8.1l.32,3.2Z"/><circle cx="11" cy="16" r="1"/></g><text x="0" y="79" fill="#000000" font-size="5px" font-weight="bold" font-family="'Helvetica Neue', Helvetica, Arial-Unicode, Arial, Sans-serif">Created by Pause08</text><text x="0" y="84" fill="#000000" font-size="5px" font-weight="bold" font-family="'Helvetica Neue', Helvetica, Arial-Unicode, Arial, Sans-serif">from the Noun Project</text></svg>