<svg xmlns:dc="http://purl.org/dc/elements/1.1/" xmlns:cc="http://creativecommons.org/ns#" xmlns:rdf="http://www.w3.org/1999/02/22-rdf-syntax-ns#" xmlns:svg="http://www.w3.org/2000/svg" xmlns="http://www.w3.org/2000/svg" xmlns:sodipodi="http://sodipodi.sourceforge.net/DTD/sodipodi-0.dtd" xmlns:inkscape="http://www.inkscape.org/namespaces/inkscape" viewBox="0 0 511.99998 539.999975" version="1.1" x="0px" y="0px"><g transform="translate(-91.214475,-152.15558)"><path style="opacity:1;fill:#707070;fill-opacity:1;fill-rule:nonzero;stroke:none;stroke-width:3;stroke-linecap:butt;stroke-linejoin:miter;stroke-miterlimit:4;stroke-dasharray:none;stroke-dashoffset:0;stroke-opacity:1" d="m 543.17301,158.15572 c -3.10374,0.0215 -6.21528,1.23138 -8.60976,3.62587 l -13.49067,13.49259 -21.75137,21.75139 -8.64409,8.6422 8.52584,8.52776 41.97115,41.97121 8.52775,8.52585 8.64219,-8.64411 21.75137,-21.7514 13.49257,-13.49068 c 4.78897,-4.78898 4.84145,-12.44865 0.11825,-17.17186 l -41.97115,-41.9712 c -2.3616,-2.3616 -5.45835,-3.52908 -8.56208,-3.50762 z m -67.4018,62.41989 -184.77609,184.77631 -15.90536,15.90538 7.87162,7.86972 43.28151,43.28347 7.87162,7.86971 15.90536,-15.90538 184.77417,-184.77439 -59.02283,-59.02482 z m -291.11636,30.25055 c -48.44239,0 -87.440385,38.99803 -87.440385,87.44049 l 0,232.44667 c 0,48.44246 38.997985,87.4424 87.440385,87.4424 l 232.44638,0 c 48.44242,0 87.4423,-38.99994 87.4423,-87.4424 l 0,-180.90629 -46.0834,46.08345 0,129.40788 c 0,25.91214 -20.86173,46.77391 -46.77385,46.77391 l -221.61456,0 c -25.9121,0 -46.77386,-20.86177 -46.77386,-46.77391 l 0,-221.61484 c 0,-25.91214 20.86176,-46.77391 46.77386,-46.77391 l 129.4039,0 46.0834,-46.08345 -180.90417,0 z m 76.31292,184.55314 -0.002,0.002 -2.94494,10.5896 -13.16832,47.35756 -3.67546,13.21983 c -1.63144,5.86727 1.77736,9.27609 7.64465,7.64465 l 13.21981,-3.67546 47.3575,-13.16834 10.58959,-2.94304 0,-0.004 -2.23351,-2.23351 -54.55391,-54.55398 -2.23351,-2.23542 z" /></g></svg>