<svg xmlns="http://www.w3.org/2000/svg" xmlns:xlink="http://www.w3.org/1999/xlink" viewBox="0 0 32 40" version="1.1" x="0px" y="0px"><title>mdpi/icons / exit</title><g stroke="none" stroke-width="1" fill="none" fill-rule="evenodd"><path d="M23.2666667,2 C25.3285297,2 27,3.67147027 27,5.73333333 L27,26.2666667 C27,28.3285297 25.3285297,30 23.2666667,30 L12.7333333,30 C10.6714703,30 9,28.3285297 9,26.2666667 L8.99957288,22 L10.9995729,22 L11,26.1538462 C11,27.1734488 11.8265512,28 12.8461538,28 L23.1538462,28 C24.1734488,28 25,27.1734488 25,26.1538462 L25,5.84615385 C25,4.82655123 24.1734488,4 23.1538462,4 L12.8461538,4 C11.8265512,4 11,4.82655123 11,5.84615385 L10.9995729,10 L8.99957288,10 L9,5.73333333 C9,3.67147027 10.6714703,2 12.7333333,2 L23.2666667,2 Z M6.41421356,11.1715729 L7.82842712,12.5857864 L5.41357288,14.9995729 L20,15 L20,17 L5.41357288,16.9995729 L7.82842712,19.4142136 L6.41421356,20.8284271 L1.58557288,15.9995729 L6.41421356,11.1715729 Z" fill="#000000" fill-rule="nonzero"/></g><text x="0" y="47" fill="#000000" font-size="5px" font-weight="bold" font-family="'Helvetica Neue', Helvetica, Arial-Unicode, Arial, Sans-serif">Created by Anton Borzenkov</text><text x="0" y="52" fill="#000000" font-size="5px" font-weight="bold" font-family="'Helvetica Neue', Helvetica, Arial-Unicode, Arial, Sans-serif">from the Noun Project</text></svg>