<svg xmlns="http://www.w3.org/2000/svg" data-name="Layer 1" viewBox="0 0 100 125" x="0px" y="0px"><title>134all</title><path d="M58.23,59.91A13.34,13.34,0,1,0,54,64.15l7.21,7.21a3,3,0,1,0,4.24-4.24Zm-18.56-7A7.3,7.3,0,1,1,47,60.18,7.3,7.3,0,0,1,39.67,52.89Z"/><path d="M84.19,25.34H43.4V22.5a9,9,0,0,0-9-9H15.81a9,9,0,0,0-9,9v55a9,9,0,0,0,9,9H84.19a9,9,0,0,0,9-9V34.34A9,9,0,0,0,84.19,25.34ZM15.81,19.5H34.4a3,3,0,0,1,3,3v2.84H15.81a8.94,8.94,0,0,0-3,.53V22.5A3,3,0,0,1,15.81,19.5Zm71.37,58a3,3,0,0,1-3,3H15.81a3,3,0,0,1-3-3V34.34a3,3,0,0,1,3-3H84.19a3,3,0,0,1,3,3Z"/><text x="0" y="115" fill="#000000" font-size="5px" font-weight="bold" font-family="'Helvetica Neue', Helvetica, Arial-Unicode, Arial, Sans-serif">Created by Trishul</text><text x="0" y="120" fill="#000000" font-size="5px" font-weight="bold" font-family="'Helvetica Neue', Helvetica, Arial-Unicode, Arial, Sans-serif">from the Noun Project</text></svg>