<svg xmlns="http://www.w3.org/2000/svg" xmlns:xlink="http://www.w3.org/1999/xlink" version="1.1" x="0px" y="0px" viewBox="0 0 72 90" style="enable-background:new 0 0 72 72;" xml:space="preserve"><g><g><path d="M68.62,30.21l-32-25c-0.36-0.28-0.87-0.28-1.23,0l-32,25C3.14,30.4,3,30.69,3,31v6c0,0.38,0.22,0.73,0.56,0.9    c0.34,0.17,0.75,0.13,1.05-0.11L36,13.27l31.38,24.52C67.56,37.93,67.78,38,68,38c0.15,0,0.3-0.03,0.44-0.1    C68.78,37.73,69,37.38,69,37v-6C69,30.69,68.86,30.4,68.62,30.21z M67,34.95L36.62,11.21C36.43,11.07,36.22,11,36,11    s-0.43,0.07-0.62,0.21L5,34.95v-3.46L36,7.27l31,24.22V34.95z"/><path d="M33.44,20.44c-0.34-0.17-0.75-0.12-1.05,0.11l-19,14.85C13.14,35.59,13,35.88,13,36.19V45c0,0.55,0.45,1,1,1h19    c0.55,0,1-0.45,1-1V21.34C34,20.96,33.78,20.61,33.44,20.44z M32,44H15v-7.32l17-13.29V44z"/><path d="M33,48H14c-0.55,0-1,0.45-1,1v17c0,0.55,0.45,1,1,1h19c0.55,0,1-0.45,1-1V49C34,48.45,33.55,48,33,48z M32,65H15V50h17V65    z"/><path d="M39.62,20.55c-0.3-0.23-0.71-0.28-1.05-0.11c-0.34,0.17-0.56,0.52-0.56,0.9V66c0,0.55,0.45,1,1,1h19c0.55,0,1-0.45,1-1    V36.19c0-0.31-0.14-0.6-0.38-0.79L39.62,20.55z M57,65H40V23.39l17,13.29V65z"/></g></g><text x="0" y="87" fill="#000000" font-size="5px" font-weight="bold" font-family="'Helvetica Neue', Helvetica, Arial-Unicode, Arial, Sans-serif">Created by I Putu Dicky Adi Pranatha</text><text x="0" y="92" fill="#000000" font-size="5px" font-weight="bold" font-family="'Helvetica Neue', Helvetica, Arial-Unicode, Arial, Sans-serif">from the Noun Project</text></svg>