<svg xmlns:dc="http://purl.org/dc/elements/1.1/" xmlns:cc="http://creativecommons.org/ns#" xmlns:rdf="http://www.w3.org/1999/02/22-rdf-syntax-ns#" xmlns:svg="http://www.w3.org/2000/svg" xmlns="http://www.w3.org/2000/svg" xmlns:sodipodi="http://sodipodi.sourceforge.net/DTD/sodipodi-0.dtd" xmlns:inkscape="http://www.inkscape.org/namespaces/inkscape" version="1.1" x="0px" y="0px" viewBox="0 0 100 125"><g transform="translate(0,-952.36218)"><path style="text-indent:0;text-transform:none;direction:ltr;block-progression:tb;baseline-shift:baseline;color:#000000;enable-background:accumulate;" d="m 22.000001,964.86217 c -8.24877,0 -14.9999995,6.754 -14.9999995,15.0062 0,5.4452 2.9742,10.18733 7.3437505,12.81793 -1.2827,0.6311 -2.49664,1.349 -3.5625,2.2509 -2.9579805,2.503 -5.0903905,5.8426 -6.6562505,9.4727 -3.13171,7.2601 -4.125,15.8092 -4.125,22.4781 1.6e-4,1.5715 1.42925,3.0011 3,3.0013 7.2187505,0 14.4374995,0 21.6562495,0 -0.41237,2.4136 -0.65625,4.7791 -0.65625,6.9717 1.6e-4,1.5714 1.429251,3.001 3,3.0012 15.33333,0 30.666671,0 46.000001,0 1.57075,-2e-4 2.999837,-1.4298 2.999997,-3.0012 0,-2.1926 -0.24389,-4.5581 -0.65625,-6.9717 7.21875,0 14.4375,0 21.65625,0 1.57075,-2e-4 2.99984,-1.4298 3,-3.0013 0,-6.669 -0.99327,-15.218 -4.125,-22.4781 -1.56586,-3.63 -3.69829,-6.9696 -6.65625,-9.4727 -1.06585,-0.9019 -2.27981,-1.6198 -3.5625,-2.2509 4.36955,-2.6306 7.34375,-7.37273 7.34375,-12.81793 0,-8.2522 -6.751231,-15.0062 -15,-15.0062 -8.248767,0 -14.999997,6.754 -14.999997,15.0062 0,1.1073 0.14281,2.182 0.375,3.2202 -2.48385,-4.8781 -7.55531,-8.2535 -13.375,-8.2535 -5.81969,0 -10.89115,3.3754 -13.375,8.2535 0.23219,-1.0382 0.375,-2.1129 0.375,-3.2202 0,-8.2522 -6.75123,-15.0062 -15,-15.0062 z m 0,6.0025 c 5.006211,0 9,3.9955 9,9.0037 0,5.0083 -3.993789,9.00383 -9,9.00383 -5.00621,0 -8.999999,-3.99553 -8.999999,-9.00383 0,-5.0082 3.993789,-9.0037 8.999999,-9.0037 z m 55.999998,0 c 5.006209,0 9,3.9955 9,9.0037 0,5.0083 -3.993791,9.00383 -9,9.00383 -5.006208,0 -8.999997,-3.99553 -8.999997,-9.00383 0,-5.0082 3.99379,-9.0037 8.999997,-9.0037 z m -27.999997,9.9729 c 5.00621,0 9,3.9953 9,9.00383 0,5.0082 -3.99379,9.0037 -9,9.0037 -5.00621,0 -9,-3.9955 -9,-9.0037 0,-5.00853 3.99379,-9.00383 9,-9.00383 z m -14.625,5.78373 c -0.23171,1.0434 -0.375,2.1095 -0.375,3.2201 0,5.4452 2.9742,10.1871 7.34375,12.8177 -0.89827,0.4018 -1.75789,0.8897 -2.59375,1.4069 -1.30422,-2.961 -2.99862,-5.6942 -5.21875,-7.9408 -1.382731,-1.3992 -3.03352,-2.545 -4.84375,-3.4389 2.411189,-1.4576 4.398069,-3.5538 5.6875,-6.065 z m 29.25,0 c 1.28943,2.5112 3.27631,4.6074 5.6875,6.065 -1.81025,0.8939 -3.46102,2.0396 -4.84375,3.4389 -2.22014,2.2466 -3.91453,4.9798 -5.21875,7.9408 -0.83586,-0.5172 -1.69549,-1.0051 -2.59375,-1.4069 4.36955,-2.6306 7.34375,-7.3725 7.34375,-12.8177 0,-1.1106 -0.14329,-2.1767 -0.375,-3.2201 z m -42.625,10.2542 c 3.54049,0 6.04796,1.2419 8.25,3.4703 1.87303,1.8952 3.34407,4.6733 4.53125,7.7532 -1.7268,1.7971 -3.23568,3.8278 -4.5,6.0025 -1.79451,3.0865 -3.19367,6.4312 -4.21875,9.7853 -6.60417,0 -13.20833,0 -19.8125005,0 0.2685,-5.5553 1.14822,-11.9386 3.375,-17.101 1.3091405,-3.0347 2.9892205,-5.5515 5.0000005,-7.253 2.01078,-1.7014 4.30157,-2.6573 7.375,-2.6573 z m 55.999997,0 c 3.0734,0 5.36422,0.9559 7.375,2.6573 2.01078,1.7015 3.69086,4.2183 5,7.253 2.22679,5.1624 3.10649,11.5457 3.375,17.101 -6.60417,0 -13.20833,0 -19.812497,0 -1.02508,-3.3541 -2.42423,-6.6988 -4.21875,-9.7853 -1.26432,-2.1747 -2.7732,-4.2054 -4.5,-6.0025 1.18717,-3.0799 2.65823,-5.858 4.53125,-7.7532 2.20203,-2.2284 4.70949,-3.4703 8.249997,-3.4703 z m -27.999997,9.973 c 8.23356,0.5127 13.18653,7.0149 16.28125,13.7244 1.49236,4.4425 3.03687,9.0985 3.5,13.2868 -13.1875,0 -26.375,0 -39.5625,0 0.6619,-5.581 2.02883,-10.6421 4.59375,-15.5064 4.1875,-5.9841 8.1875,-10.9862 15.1875,-11.5048 z" fill="#707070" fill-opacity="1" stroke="none" marker="none" visibility="visible" display="inline" overflow="visible"/></g></svg>