<?xml version="1.0" encoding="UTF-8" standalone="no"?>
<svg
   version="1.1"
   x="0px"
   y="0px"
   viewBox="0 0 32 32"
   enable-background="new 0 0 32 32"
   xml:space="preserve"
   id="svg12"
   sodipodi:docname="noun-shopping-bag-3998405-big-clock.svg"
   inkscape:version="1.1 (c68e22c387, 2021-05-23)"
   xmlns:inkscape="http://www.inkscape.org/namespaces/inkscape"
   xmlns:sodipodi="http://sodipodi.sourceforge.net/DTD/sodipodi-0.dtd"
   xmlns="http://www.w3.org/2000/svg"
   xmlns:svg="http://www.w3.org/2000/svg"><defs
     id="defs16" /><sodipodi:namedview
     id="namedview14"
     pagecolor="#ffffff"
     bordercolor="#666666"
     borderopacity="1.0"
     inkscape:pageshadow="2"
     inkscape:pageopacity="0.0"
     inkscape:pagecheckerboard="0"
     showgrid="false"
     inkscape:window-width="1366"
     inkscape:window-height="705"
     inkscape:window-x="-8"
     inkscape:window-y="-8"
     inkscape:window-maximized="1"
     inkscape:current-layer="svg12" /><path
     d="M 20.521465,14.932695 C 17.157925,14.932695 14.421463,17.669155 14.421463,21.032695 14.421463,24.396235 17.157925,27.132695 20.521465,27.132695 23.885004,27.132695 26.621464,24.396235 26.621464,21.032695 26.621464,17.669155 23.885004,14.932695 20.521465,14.932695 Z M 20.583003,25.000387 C 18.565124,25.000387 16.615311,23.112113 16.615311,21.094233 16.615311,19.076354 18.503586,17.065003 20.521465,17.065003 22.539344,17.065003 24.489156,19.076354 24.489156,21.094233 24.489156,23.112113 22.600882,25.000387 20.583003,25.000387 Z" fill="#ffffff"
     id="path2"
     style="stroke-width:1"
     sodipodi:nodetypes="ssssssssss" /><path
     d="M 21.436846,20.595616 21.375308,19.578847 C 21.341899,19.026857 20.927308,18.578847 20.375308,18.578847 19.823308,18.578847 19.351545,19.026358 19.375308,19.578847 L 19.436846,21.009616 C 19.448276,21.27537 19.541846,21.529616 19.729846,21.716616 L 20.976,22.96277 C 21.171,23.15777 21.427,23.25577 21.683,23.25577 21.939,23.25577 22.39,22.96277 22.39,22.96277 22.781,22.57177 22.781,21.93977 22.39,21.54877 Z" fill="#ffffff"
     id="path4"
     sodipodi:nodetypes="csssscssssc" /><path
     d="M 21.141,10.979 21.553308,13.918231 C 21.621308,14.466231 22.120308,14.849231 22.669308,14.786231 23.217308,14.718231 23.606308,14.218231 23.537308,13.670231 L 23.124,10.729 C 22.936,9.267 21.729,8.107 20.293,7.915 19.836,5.34 17.587,3.376 14.882,3.376 12.177,3.376 9.929,5.339 9.472,7.914 8.036,8.106 6.829,9.267 6.64,10.731 L 5.14,22.767 C 5.037,23.569 5.273,24.365 5.787,24.95 6.304,25.538 7.0670483,25.883871 7.881,25.875 L 13.527153,25.813462 C 14.079121,25.807446 14.527153,25.366462 14.527153,24.813462 14.527153,24.260462 14.079121,23.807446 13.527153,23.813462 L 7.881,23.875 C 7.6380144,23.877648 7.428,23.788 7.288,23.63 7.151,23.474 7.092,23.258 7.123,23.019 L 8.623,10.983 C 8.699,10.393 9.287,9.876 9.881,9.876 H 19.881 C 20.477,9.875 21.065,10.393 21.141,10.979 Z M 11.546,7.875 C 11.98,6.435 13.303,5.375 14.883,5.375 16.463,5.375 17.786,6.435 18.22,7.875 Z" fill="#ffffff"
     id="path6"
     sodipodi:nodetypes="ccccccsccccssssscccscccscc" /></svg>
