<svg xmlns="http://www.w3.org/2000/svg" xmlns:xlink="http://www.w3.org/1999/xlink" version="1.1" x="0px" y="0px" viewBox="0 0 24 30" enable-background="new 0 0 24 24" xml:space="preserve"><g><path d="M6.023,22.656h11.953c1.194,0,2.167-0.972,2.167-2.167v-9.287l3.146,3.428c0.149,0.163,0.402,0.174,0.565,0.024   c0.163-0.149,0.174-0.402,0.024-0.565l-4.553-4.96V3.4c0-0.221-0.18-0.4-0.4-0.4h-3.006c-0.221,0-0.4,0.179-0.4,0.4v1.582   l-3.226-3.514c-0.152-0.165-0.438-0.165-0.59,0L0.12,14.09c-0.149,0.163-0.139,0.416,0.024,0.565   c0.077,0.07,0.174,0.105,0.271,0.105c0.108,0,0.216-0.043,0.295-0.129l3.146-3.427v9.285C3.855,21.683,4.828,22.656,6.023,22.656z    M14.683,21.856H9.316v-4.52c0-0.754,0.505-1.367,1.126-1.367h3.115c0.62,0,1.125,0.613,1.125,1.367V21.856z M16.321,3.8h2.205   v4.457l-2.205-2.402V3.8z M12,2.33l7.343,8v10.159c0,0.754-0.612,1.367-1.366,1.367h-2.493v-4.52c0-1.195-0.864-2.167-1.926-2.167   h-3.115c-1.063,0-1.927,0.972-1.927,2.167v4.52H6.023c-0.754,0-1.367-0.613-1.367-1.367V10.331L12,2.33z" stroke="none"
     fill="#707070"
     fill-rule="nonzero"/><path d="M12,12.397c1.409,0,2.557-1.146,2.557-2.556S13.409,7.285,12,7.285S9.443,8.432,9.443,9.841S10.591,12.397,12,12.397z    M12,8.085c0.969,0,1.756,0.788,1.756,1.756S12.969,11.598,12,11.598s-1.756-0.788-1.756-1.756S11.031,8.085,12,8.085z" stroke="none"
     fill="#707070"
     fill-rule="nonzero" /></g></svg>