<svg xmlns="http://www.w3.org/2000/svg" xmlns:xlink="http://www.w3.org/1999/xlink" version="1.1" x="0px" y="0px" viewBox="0 0 90 112.5" enable-background="new 0 0 90 90" xml:space="preserve"><path d="M76.2,69.5L74.8,40c-0.2-3.7-3.3-6.7-7-6.7h-11v-3.1c0-3.7-3-6.8-6.8-6.8h-5.5v-0.6c0-5.1-4.1-9.2-9.2-9.2s-9.2,4.1-9.2,9.2  v0.6h-5.5c-3.7,0-6.8,3-6.8,6.8v39.4c0,3.7,3,6.8,6.8,6.8h49.2c1.8,0,3.5-0.7,4.7-2C75.7,73,76.3,71.3,76.2,69.5z M29.7,22.9  c0-3.1,2.5-5.5,5.5-5.5s5.5,2.5,5.5,5.5v0.6H29.7V22.9z M37.1,40l-1.5,29.5c-0.1,1.1,0.2,2.2,0.6,3.2H20.5c-1.7,0-3.1-1.4-3.1-3.1  V30.2c0-1.7,1.4-3.1,3.1-3.1H50c1.7,0,3.1,1.4,3.1,3.1v3.1h-9C40.5,33.3,37.3,36.3,37.1,40z M71.8,71.8c-0.5,0.6-1.3,0.9-2.1,0.9  H42.2c-0.8,0-1.5-0.3-2.1-0.9c-0.5-0.6-0.8-1.3-0.8-2.1l1.5-29.5c0.1-1.7,1.6-3.2,3.3-3.2h23.6c1.7,0,3.2,1.5,3.3,3.2l1.5,29.5  C72.6,70.5,72.3,71.2,71.8,71.8z"/><path d="M63.3,43.2c-1,0-1.8,0.8-1.8,1.8v2.5c0,3.1-2.5,5.5-5.5,5.5c-3.1,0-5.5-2.5-5.5-5.5V45c0-1-0.8-1.8-1.8-1.8  c-1,0-1.8,0.8-1.8,1.8v2.5c0,5.1,4.1,9.2,9.2,9.2c5.1,0,9.2-4.1,9.2-9.2V45C65.2,44,64.3,43.2,63.3,43.2z"/><text x="0" y="105" fill="#000000" font-size="5px" font-weight="bold" font-family="'Helvetica Neue', Helvetica, Arial-Unicode, Arial, Sans-serif">Created by Yoteyo</text><text x="0" y="110" fill="#000000" font-size="5px" font-weight="bold" font-family="'Helvetica Neue', Helvetica, Arial-Unicode, Arial, Sans-serif">from the Noun Project</text></svg>