<svg xmlns="http://www.w3.org/2000/svg" xmlns:xlink="http://www.w3.org/1999/xlink" version="1.1" x="0px" y="0px" viewBox="0 0 100 125" style="enable-background:new 0 0 100 100;" xml:space="preserve"><g><path d="M76.8,70.5h-5c0-11.9-9.7-21.6-21.6-21.6c-11.9,0-21.6,9.7-21.6,21.6h-5c0-14.7,12-26.6,26.6-26.6   C64.8,43.9,76.8,55.8,76.8,70.5z"/><path d="M50.2,48.7c-9.2,0-16.7-7.5-16.7-16.7c0-9.2,7.5-16.7,16.7-16.7c9.2,0,16.7,7.5,16.7,16.7C66.8,41.2,59.3,48.7,50.2,48.7z    M50.2,20.4c-6.4,0-11.7,5.2-11.7,11.7s5.2,11.7,11.7,11.7S61.8,38.4,61.8,32S56.6,20.4,50.2,20.4z"/></g><g><path d="M10.8,60.8h-5c0-9.8,8-17.8,17.8-17.8c5.5,0,10.5,2.5,13.9,6.7l-3.9,3.1c-2.4-3.1-6.1-4.8-10-4.8   C16.6,48,10.8,53.7,10.8,60.8z"/><path d="M23.6,47.9c-6.3,0-11.5-5.1-11.5-11.5S17.3,25,23.6,25s11.5,5.1,11.5,11.5S29.9,47.9,23.6,47.9z M23.6,30   c-3.6,0-6.5,2.9-6.5,6.5s2.9,6.5,6.5,6.5s6.5-2.9,6.5-6.5S27.2,30,23.6,30z"/></g><g><path d="M94.5,60.8h-5c0-7-5.7-12.8-12.8-12.8c-3.9,0-7.6,1.8-10,4.8l-3.9-3.1c3.4-4.3,8.5-6.7,13.9-6.7C86.5,43,94.5,51,94.5,60.8   z"/><path d="M76.7,47.9c-6.3,0-11.5-5.1-11.5-11.5S70.4,25,76.7,25s11.5,5.1,11.5,11.5S83,47.9,76.7,47.9z M76.7,30   c-3.6,0-6.5,2.9-6.5,6.5s2.9,6.5,6.5,6.5s6.5-2.9,6.5-6.5S80.3,30,76.7,30z"/></g><text x="0" y="115" fill="#000000" font-size="5px" font-weight="bold" font-family="'Helvetica Neue', Helvetica, Arial-Unicode, Arial, Sans-serif">Created by Paola Moreira</text><text x="0" y="120" fill="#000000" font-size="5px" font-weight="bold" font-family="'Helvetica Neue', Helvetica, Arial-Unicode, Arial, Sans-serif">from the Noun Project</text></svg>