<svg xmlns="http://www.w3.org/2000/svg" data-name="Layer 1" viewBox="0 0 100 125" x="0px" y="0px"><title>05</title><path d="M79.27,25.14H47V24.5a8,8,0,0,0-8-8H20.73a10,10,0,0,0-10,10v47a10,10,0,0,0,10,10H79.27a10,10,0,0,0,10-10V35.14A10,10,0,0,0,79.27,25.14ZM20.73,24.5H39v.64a8,8,0,0,0,8,8H79.27a2,2,0,0,1,2,2V38.5H18.73v-12A2,2,0,0,1,20.73,24.5Zm58.54,51H20.73a2,2,0,0,1-2-2v-27H81.27v27A2,2,0,0,1,79.27,75.5Z"/><text x="0" y="115" fill="#000000" font-size="5px" font-weight="bold" font-family="'Helvetica Neue', Helvetica, Arial-Unicode, Arial, Sans-serif">Created by Rajive</text><text x="0" y="120" fill="#000000" font-size="5px" font-weight="bold" font-family="'Helvetica Neue', Helvetica, Arial-Unicode, Arial, Sans-serif">from the Noun Project</text></svg>