<svg xmlns="http://www.w3.org/2000/svg" viewBox="0 0 80 78.475" x="0px" y="0px"><title>folder empty</title><g data-name="Calque 2"><g><path d="M73.23,11.11H34.72a2.47,2.47,0,0,1-2-1l-4.9-6.76A8.07,8.07,0,0,0,21.31,0H7.12A7.12,7.12,0,0,0,0,7.12V55.67a7.12,7.12,0,0,0,7.12,7.12H72.88A7.12,7.12,0,0,0,80,55.67V17.87A6.77,6.77,0,0,0,73.23,11.11ZM7.12,5.58H21.31a2.47,2.47,0,0,1,2,1l4.9,6.76a8.07,8.07,0,0,0,6.52,3.33H73.23a1.19,1.19,0,0,1,1.18,1.18v2.51H5.58V7.12A1.55,1.55,0,0,1,7.12,5.58ZM72.88,57.2H7.12a1.55,1.55,0,0,1-1.53-1.53V26H74.42v29.7A1.55,1.55,0,0,1,72.88,57.2Z"/></g></g><text x="0" y="77.78" fill="#000000" font-size="5px" font-weight="bold" font-family="'Helvetica Neue', Helvetica, Arial-Unicode, Arial, Sans-serif">Created by Tanguy Krl</text><text x="0" y="82.78" fill="#000000" font-size="5px" font-weight="bold" font-family="'Helvetica Neue', Helvetica, Arial-Unicode, Arial, Sans-serif">from the Noun Project</text></svg>