<svg xmlns="http://www.w3.org/2000/svg" viewBox="0 0 24 30" enable-background="new 0 0 24 24" x="0px" y="0px"><g><path d="M14 24h-13c-.552 0-1-.447-1-1 0-3.81 3.364-6.909 7.5-6.909s7.5 3.099 7.5 6.909c0 .553-.447 1-1 1zm-11.885-2h10.771c-.519-2.229-2.736-3.909-5.385-3.909s-4.868 1.68-5.386 3.909zM7.5 18.091c-2.506 0-4.545-2.039-4.545-4.545 0-2.507 2.039-4.546 4.545-4.546s4.545 2.039 4.545 4.546c0 2.506-2.039 4.545-4.545 4.545zm0-7.091c-1.403 0-2.545 1.142-2.545 2.546 0 1.403 1.142 2.545 2.545 2.545s2.545-1.142 2.545-2.545c0-1.404-1.142-2.546-2.545-2.546zM16.5 9.091c-2.507 0-4.545-2.039-4.545-4.545s2.038-4.546 4.545-4.546 4.546 2.039 4.546 4.545-2.039 4.546-4.546 4.546zm0-7.091c-1.403 0-2.545 1.142-2.545 2.545s1.142 2.545 2.545 2.545c1.404 0 2.546-1.142 2.546-2.545s-1.142-2.545-2.546-2.545zM23 15h-9.025c-.553 0-1-.447-1-1s.447-1 1-1h7.911c-.52-2.229-2.736-3.909-5.386-3.909-1.252 0-2.435.371-3.419 1.072-.451.321-1.075.216-1.395-.234-.32-.45-.215-1.074.234-1.395 1.326-.944 2.91-1.443 4.58-1.443 4.136 0 7.5 3.1 7.5 6.909 0 .553-.447 1-1 1z" fill="#707070" /></g></svg>