<svg xmlns="http://www.w3.org/2000/svg" viewBox="0 0 69.43 86.78750000000001" x="0px" y="0px"><title>no</title><g data-name="Calque 2"><g><path d="M61,0H8.41A8.42,8.42,0,0,0,0,8.41V61a8.42,8.42,0,0,0,8.41,8.41H61A8.42,8.42,0,0,0,69.43,61V8.41A8.42,8.42,0,0,0,61,0Zm2.41,61A2.42,2.42,0,0,1,61,63.43H8.41A2.42,2.42,0,0,1,6,61V8.41A2.42,2.42,0,0,1,8.41,6H61a2.42,2.42,0,0,1,2.41,2.41Z"/><path d="M49.71,19.72a3.5,3.5,0,0,0-4.95,0l-10,10-10-10a3.5,3.5,0,0,0-5,4.95l10,10-10,10a3.5,3.5,0,1,0,5,4.95l10-10,10,10a3.5,3.5,0,0,0,4.95-4.95l-10-10,10-10A3.5,3.5,0,0,0,49.71,19.72Z"/></g></g><text x="0" y="84.43" fill="#000000" font-size="5px" font-weight="bold" font-family="'Helvetica Neue', Helvetica, Arial-Unicode, Arial, Sans-serif">Created by Tanguy Krl</text><text x="0" y="89.43" fill="#000000" font-size="5px" font-weight="bold" font-family="'Helvetica Neue', Helvetica, Arial-Unicode, Arial, Sans-serif">from the Noun Project</text></svg>