<svg xmlns="http://www.w3.org/2000/svg" data-name="Layer 1" viewBox="0 0 24 30" x="0px" y="0px"><title>Artboard 146</title><path d="M20,16.25a.75.75,0,0,0-.75.75v1a.253.253,0,0,1-.25.25H12.75V7.618a1.741,1.741,0,0,0-.967-1.565L7.177,3.75H19a.253.253,0,0,1,.25.25V9a.75.75,0,0,0,1.5,0V4A1.752,1.752,0,0,0,19,2.25H4.177l-.394-.2A1.75,1.75,0,0,0,1.25,3.618V17.323a1.744,1.744,0,0,0,1.1,1.625l8,3.2a1.75,1.75,0,0,0,2.4-1.625V19.75H19A1.752,1.752,0,0,0,20.75,18V17A.75.75,0,0,0,20,16.25Zm-8.75,4.273a.244.244,0,0,1-.11.207.249.249,0,0,1-.233.025l-8-3.2a.249.249,0,0,1-.157-.232V3.618a.244.244,0,0,1,.119-.213.239.239,0,0,1,.243-.01l8,4a.248.248,0,0,1,.138.223Z" fill="#ffffff"/><path d="M22,12.25H17.811l.719-.72a.75.75,0,0,0-1.06-1.06l-2,2a.751.751,0,0,0,0,1.06l2,2a.75.75,0,0,0,1.06-1.06l-.719-.72H22a.75.75,0,0,0,0-1.5Z" fill="#ffffff"/></svg>