<svg xmlns="http://www.w3.org/2000/svg" xmlns:xlink="http://www.w3.org/1999/xlink" version="1.1" x="0px" y="0px" viewBox="0 0 100 125" style="enable-background:new 0 0 100 100;" xml:space="preserve"><path d="M41,29c0-1.657,1.343-3,3-3s3,1.343,3,3c0,1.657-1.343,3-3,3S41,30.657,41,29z"/><path d="M53,29c0-1.657,1.343-3,3-3s3,1.343,3,3c0,1.657-1.343,3-3,3S53,30.657,53,29z"/><path d="M50,35c2.485,0,4.5,1.343,4.5,3c0,1.657-2.015,3-4.5,3s-4.5-1.343-4.5-3C45.5,36.343,47.515,35,50,35z"/><path d="M80.536,53.757c-2.471-4.371-6.579-7.393-11.674-8.816c3.537-3.939,5.525-8.955,5.046-14.526C77.621,28.333,80,24.433,80,20  c0-6.617-5.383-12-12-12c-3.646,0-7.046,1.697-9.288,4.454C56.007,11.527,53.075,11,50,11s-6.007,0.527-8.712,1.454  C39.046,9.697,35.646,8,32,8c-6.617,0-12,5.383-12,12c0,4.433,2.379,8.333,6.092,10.415c-0.48,5.578,1.513,10.593,5.046,14.526  c-5.095,1.424-9.203,4.445-11.674,8.816c-3.547,6.273-3.105,14.4,1.073,21.938c-0.712,2.269-0.714,4.779,0.035,7.164  c1.705,5.436,6.899,9.136,12.283,9.136c4.29,0,8.337-2.272,10.207-6.767C45.263,85.728,47.579,86,50,86  c2.42,0,4.736-0.273,6.938-0.772c1.864,4.474,5.922,6.767,10.209,6.767c5.383,0,10.576-3.702,12.28-9.136  c0.748-2.384,0.748-4.894,0.036-7.163C83.641,68.157,84.084,60.031,80.536,53.757z M68,14c3.309,0,6,2.691,6,6  c0,1.627-0.686,3.067-1.754,4.155c-1.645-3.558-4.376-6.623-7.828-8.904C65.439,14.482,66.674,14,68,14z M68,32  c0,8.271-8.074,15-18,15s-18-6.729-18-15s8.074-15,18-15S68,23.729,68,32z M26,20c0-3.309,2.691-6,6-6  c1.326,0,2.561,0.482,3.582,1.252c-3.452,2.281-6.183,5.345-7.828,8.904C26.686,23.067,26,21.627,26,20z M34.084,85.858  c-3.182,0.732-6.746-1.469-7.789-4.794c-1.163-3.706,1.2-7.061,4.868-7.061c2.812,0,5.632,2.039,6.541,4.934  C38.728,82.2,37.024,85.185,34.084,85.858z M73.703,81.063c-1.043,3.325-4.598,5.525-7.787,4.794  c-2.941-0.673-4.643-3.66-3.62-6.921c1.044-3.324,4.61-5.518,7.789-4.794C73.028,74.816,74.726,77.803,73.703,81.063z   M75.499,70.143c-1.62-1.183-3.027-1.642-4.758-1.933C70.89,67.162,71,66.099,71,65v-6c0-1.657-1.343-3-3-3s-3,1.343-3,3v6  c0,1.343-0.199,2.599-0.492,3.805c-4.221,1.59-7.678,5.38-8.358,10.369c-3.92,0.986-8.385,0.986-12.301-0.001  c-0.676-4.96-4.119-8.774-8.358-10.37c-0.291-1.204-0.49-2.458-0.49-3.803L35,59c0-1.658-1.343-3-3.001-3  C30.342,56,29,57.343,29,59.001L29.001,65c0,1.1,0.11,2.163,0.258,3.209c-1.702,0.285-3.11,0.729-4.759,1.933  c-1.981-4.865-1.968-9.623,0.185-13.432c2.374-4.199,7.122-6.623,13.042-6.697C41.324,51.897,45.513,53,50,53  s8.676-1.103,12.272-2.986c5.92,0.074,10.668,2.498,13.042,6.697C77.468,60.519,77.48,65.277,75.499,70.143z"/><path d="M62,57.301v6.198c0,1.664-0.911,3.185-2.379,3.968c-1.463,0.787-3.234,0.697-4.619-0.226L50,63.906l-5.004,3.337  c-1.35,0.901-3.115,1.026-4.617,0.224C38.911,66.683,38,65.163,38,63.499v-6.198c0-1.657,1.343-3,3-3s3,1.343,3,3v3.396l4.336-2.892  c1.008-0.671,2.32-0.671,3.328,0L56,60.695v-3.394c0-1.657,1.343-3,3-3S62,55.644,62,57.301z"/><text x="0" y="115" fill="#000000" font-size="5px" font-weight="bold" font-family="'Helvetica Neue', Helvetica, Arial-Unicode, Arial, Sans-serif">Created by Ayub Irawan</text><text x="0" y="120" fill="#000000" font-size="5px" font-weight="bold" font-family="'Helvetica Neue', Helvetica, Arial-Unicode, Arial, Sans-serif">from the Noun Project</text></svg>