<svg xmlns="http://www.w3.org/2000/svg" data-name="Layer 1" viewBox="0 0 100 125" x="0px" y="0px"><title>52</title><g data-name="Group"><path data-name="Compound Path" d="M94.7,25.9a8,8,0,0,0-8-8H55.3L44.3,10.2a2,2,0,0,0-1.2-.4H32.6a8,8,0,0,0-8,8v1.7H23a8,8,0,0,0-8,8v1.7a10,10,0,0,0-9.7,10v41a10,10,0,0,0,10,10H65.4a10,10,0,0,0,10-9.7H77a8,8,0,0,0,8-8V70.8h1.7a8,8,0,0,0,8-8ZM71.4,80.2a6,6,0,0,1-6,6H15.3a6,6,0,0,1-6-6v-41a6,6,0,0,1,6-6h7.9l10.9,7.8a2,2,0,0,0,1.2.4H65.4a6,6,0,0,1,6,6ZM81,72.5a4,4,0,0,1-4,4H75.4V47.3a10,10,0,0,0-10-10H35.9L24.9,29.5a2,2,0,0,0-1.2-.4H19V27.5a4,4,0,0,1,4-4h9.9l10.9,7.8a2,2,0,0,0,1.2.4H77a4,4,0,0,1,4,4Zm9.7-9.7a4,4,0,0,1-4,4H85V35.6a8,8,0,0,0-8-8H45.6L34.6,19.8a2,2,0,0,0-1.2-.4H28.6V17.8a4,4,0,0,1,4-4h9.9l10.9,7.8a2,2,0,0,0,1.2.4H86.7a4,4,0,0,1,4,4Z"/></g><text x="0" y="115" fill="#000000" font-size="5px" font-weight="bold" font-family="'Helvetica Neue', Helvetica, Arial-Unicode, Arial, Sans-serif">Created by Anil</text><text x="0" y="120" fill="#000000" font-size="5px" font-weight="bold" font-family="'Helvetica Neue', Helvetica, Arial-Unicode, Arial, Sans-serif">from the Noun Project</text></svg>