<svg xmlns="http://www.w3.org/2000/svg" xmlns:xlink="http://www.w3.org/1999/xlink" version="1.1" x="0px" y="0px" viewBox="0 0 100 125" enable-background="new 0 0 100 100" xml:space="preserve"><g><g><g><path d="M54.691,50.382v2.182c0,8.291-6.764,15-15,15c-8.291,0-15-6.709-15-15v-2.182c0-2.236,1.8-4.091,4.091-4.091     c2.236,0,4.091,1.855,4.091,4.091v2.182c0,3.764,3.055,6.818,6.818,6.818s6.764-3.055,6.818-6.818v-2.182     c0-2.236,1.8-4.091,4.091-4.091C52.836,46.291,54.691,48.145,54.691,50.382z" stroke="none"
     fill="#ffffff"
     fill-rule="nonzero" /><path d="M49.782,9.364C52.455,6.691,56.273,5,60.364,5s7.909,1.636,10.582,4.364L71,9.418c2.182,2.236,3.818,5.291,4.255,8.673     h3.164c7.036,0,12.873,5.4,13.473,12.382L94.945,63.8v0.055l0.055,1.2c0,7.418-6,13.582-13.582,13.582h-7.309l0.164,1.527     l0.055,1.255C74.327,88.836,68.273,95,60.691,95H18.636C11.055,95,5,88.836,5,81.418l0.109-1.255H5.055l3.055-33.327     c0.655-6.982,6.491-12.382,13.527-12.382H28.4l0.382-3.982c0.655-7.036,6.545-12.382,13.582-12.382h3.109     C45.909,14.709,47.491,11.655,49.782,9.364z M53.545,26.273v1.145c0,2.236-1.8,4.091-4.091,4.091     c-2.236,0-4.091-1.855-4.091-4.091v-1.145h-3c-2.782,0-5.182,2.182-5.4,4.964l-0.273,3.218h21c7.036,0,12.927,5.4,13.527,12.382     L73.4,70.455h8.018c3.055,0,5.4-2.455,5.4-5.4v-0.491v-0.055l-3.055-33.273c-0.273-2.836-2.564-4.964-5.345-4.964h-3.055v1.145     c0,2.236-1.8,4.091-4.091,4.091c-2.236,0-4.091-1.855-4.091-4.091v-1.145H53.545z M57.691,42.636H32.164     c-0.109,0-0.273,0-0.382,0H21.636c-2.782,0-5.127,2.127-5.4,4.964l-3,33.273v0.109l-0.055,0.436c0,2.945,2.4,5.4,5.455,5.4     h42.055c3.055,0,5.455-2.455,5.455-5.4l-0.055-0.545l-0.545-6.327L63.091,47.6C62.818,44.764,60.473,42.636,57.691,42.636z      M60.364,13.182c-3.164,0-5.727,2.073-6.491,4.909h12.982c-0.273-1.091-0.873-2.073-1.691-2.945     C63.964,13.945,62.273,13.182,60.364,13.182z" stroke="none"
     fill="#ffffff"
     fill-rule="nonzero" /></g></g></g></svg>