<?xml version="1.0" encoding="UTF-8" standalone="no"?>
<svg
   version="1.1"
   x="0px"
   y="0px"
   viewBox="0 0 100 125"
   style="enable-background:new 0 0 100 100;"
   xml:space="preserve"
   id="svg8"
   sodipodi:docname="noun-shopping-bag-3908076-recent.svg"
   inkscape:version="1.1 (c68e22c387, 2021-05-23)"
   xmlns:inkscape="http://www.inkscape.org/namespaces/inkscape"
   xmlns:sodipodi="http://sodipodi.sourceforge.net/DTD/sodipodi-0.dtd"
   xmlns="http://www.w3.org/2000/svg"
   xmlns:svg="http://www.w3.org/2000/svg"><defs
     id="defs12" /><sodipodi:namedview
     id="namedview10"
     pagecolor="#ffffff"
     bordercolor="#666666"
     borderopacity="1.0"
     inkscape:pageshadow="2"
     inkscape:pageopacity="0.0"
     inkscape:pagecheckerboard="0"
     showgrid="false"
     inkscape:window-width="1366"
     inkscape:window-height="705"
     inkscape:window-x="-8"
     inkscape:window-y="-8"
     inkscape:window-maximized="1"
     inkscape:current-layer="svg8" /><path
     d="M 83.5,97.6 C 81,98.7 78.4,99.2 75.7,99.2 69.9,99.2 64.3,96.7 60.4,92.1 H 16.4 C 9.8,92.1 4.4,86.7 4.4,80.1 V 79.7 L 13.2,29.8 C 13.7,26.3 16.7,23.7 20.3,23.7 V 23.7 H 25.3 V 19 C 25.3,9 33.4,0.8 43.5,0.8 53.5,0.8 61.7,8.9 61.7,19 V 23.7 H 66.7 V 23.7 C 70.3,23.7 73.3,26.3 73.8,29.8 L 79.1,59.7 C 87.6,61.2 94.2,68.1 95.3,76.7 96.6,85.5 91.7,94.1 83.5,97.6 Z M 63.7,88.1 C 66.5,91.9 71,94.2 75.7,94.2 H 75.8 C 83.7,94.1 90.2,87.9 90.5,79.9 90.8,71.9 84.8,65.1 76.8,64.5 H 75.6 C 70,64.5 64.9,67.6 62.4,72.6 59.9,77.6 60.4,83.5 63.7,88.1 Z M 25.4,36.5 V 28.7 H 20.4 V 28.7 C 19.3,28.7 18.4,29.5 18.2,30.5 V 30.6 L 9.5,80.3 C 9.6,84 12.7,87 16.4,87 H 57.4 C 54.9,81.2 55.4,74.6 58.6,69.1 61.9,63.5 67.7,59.9 74.1,59.4 L 69,30.6 C 68.8,29.5 67.9,28.7 66.8,28.7 V 28.7 H 61.8 V 36.5 C 61.8,37.9 60.7,39 59.3,39 57.9,39 56.8,37.9 56.8,36.5 V 28.7 H 30.5 V 36.5 C 30.5,37.9 29.4,39 28,39 26.6,39 25.4,37.9 25.4,36.5 Z M 56.7,23.7 V 19 C 56.7,11.8 50.8,5.9 43.6,5.9 36.4,5.9 30.5,11.8 30.5,19 V 23.7 Z"
     id="path2"
     sodipodi:nodetypes="cscssccsccsssccscccccscscsscsccscccsccccsccsssccssscssscc" /><path
     d="M 76.621889,81.307353 A 1.947191,1.947191 0 0 0 78.569082,79.360154 V 68.650608 A 1.9471923,1.9471923 0 0 0 74.674702,68.650608 V 77.412965 H 68.648143 A 1.9471941,1.9471941 0 0 0 68.648143,81.307353 Z"
     id="path2049"
     style="stroke-width:0.999982" /></svg>
