<?xml version="1.0" encoding="UTF-8" standalone="no"?>
<svg
   data-name="Layer 1"
   viewBox="0 0 300 320"
   x="0px"
   y="0px"
   version="1.1"
   id="svg32"
   sodipodi:docname="noun-dashboard-4973646-graph.svg"
   inkscape:version="1.1 (c68e22c387, 2021-05-23)"
   width="300"
   height="320"
   xmlns:inkscape="http://www.inkscape.org/namespaces/inkscape"
   xmlns:sodipodi="http://sodipodi.sourceforge.net/DTD/sodipodi-0.dtd"
   xmlns="http://www.w3.org/2000/svg"
   xmlns:svg="http://www.w3.org/2000/svg"
   xmlns:rdf="http://www.w3.org/1999/02/22-rdf-syntax-ns#"
   xmlns:cc="http://creativecommons.org/ns#"
   xmlns:dc="http://purl.org/dc/elements/1.1/">
  <defs
     id="defs36" />
  <sodipodi:namedview
     id="namedview34"
     pagecolor="#ffffff"
     bordercolor="#666666"
     borderopacity="1.0"
     inkscape:pageshadow="2"
     inkscape:pageopacity="0.0"
     inkscape:pagecheckerboard="0"
     showgrid="false"
     inkscape:window-width="1366"
     inkscape:window-height="705"
     inkscape:window-x="-8"
     inkscape:window-y="-8"
     inkscape:window-maximized="1"
     inkscape:current-layer="svg32" />
  <title
     id="title2">104-Dashboard</title>
  <path
     d="M 268.53,314.13 A 16,16 0 0 1 252.53,298.13 V 202 A 16,16 0 0 1 284.53,202 V 298.16 A 16,16 0 0 1 268.53,314.13 Z"
     id="path16" />
  <path
     d="M 190.54,314.13 A 16,16 0 0 1 174.54,298.13 V 201.53 A 16,16 0 0 1 206.54,201.53 V 298.13 A 16,16 0 0 1 190.54,314.13 Z"
     id="path18" />
  <path
     d="M 26.52,314.13 A 16,16 0 0 1 10.52,298.13 V 213 A 16,16 0 0 1 42.52,213 V 298.15 A 16,16 0 0 1 26.52,314.13 Z"
     id="path20" />
  <path
     d="M 109.84,314.13 A 16,16 0 0 1 93.84,298.13 V 168.77 A 16,16 0 0 1 125.84,168.77 V 298.13 A 16,16 0 0 1 109.84,314.13 Z"
     id="path22" />
  <path
     d="M 26.52,141.76 A 16,16 0 0 1 15.2,114.45 L 84.14,45.45 A 16,16 0 0 1 105.21,44.06 L 172.1,95.43 260.1,7.43 A 16,16 0 0 1 282.75,30 L 184.8,128 A 16,16 0 0 1 167.36,131.47 15.75,15.75 0 0 1 163.51,129.2 L 96.85,78 37.85,137.06 A 16,16 0 0 1 26.52,141.76 Z"
     id="path24" />
  <path
     d="M 267.24,100.56 C 266.9,100.56 266.55,100.56 266.24,100.56 A 16,16 0 0 1 251.3,83.56 L 254.3,35.87 206.62,38.93 A 16.001278,16.001278 0 0 1 204.62,6.99 L 270.46,2.78 A 16,16 0 0 1 287.46,19.78 L 283.25,85.61 A 16,16 0 0 1 267.24,100.56 Z"
     id="path26" />
  <metadata
     id="metadata853">
    <rdf:RDF>
      <cc:Work
         rdf:about="">
        <dc:title>104-Dashboard</dc:title>
      </cc:Work>
    </rdf:RDF>
  </metadata>
</svg>
