<svg xmlns="http://www.w3.org/2000/svg" data-name="Layer 1" viewBox="0 0 64 80" x="0px" y="0px"><title>Untitled-1</title><path d="M23.47,24.5c0,4.13,3.73,7.5,8.32,7.52h0c4.6,0,8.35-3.37,8.35-7.52S36.43,17,31.83,17,23.47,20.35,23.47,24.5Zm8.36-5.58c3.53,0,6.41,2.5,6.41,5.58,0,2.8-2.38,5.12-5.47,5.51V26.33a8.33,8.33,0,0,0,2.89-1,1,1,0,1,0-.93-1.7,5.76,5.76,0,0,1-5.88,0,1,1,0,0,0-.91,1.71,8.37,8.37,0,0,0,2.89,1V30c-3.07-.42-5.42-2.73-5.42-5.51C25.41,21.42,28.29,18.92,31.83,18.92Z"/><path d="M23.43,18.18a2.91,2.91,0,1,0-2.9-2.91A2.91,2.91,0,0,0,23.43,18.18Zm0-3.87a1,1,0,1,1-1,1A1,1,0,0,1,23.43,14.31Z"/><path d="M40.26,18.18a2.91,2.91,0,1,0-2.91-2.91A2.9,2.9,0,0,0,40.26,18.18Zm0-3.87a1,1,0,1,1-1,1A1,1,0,0,1,40.26,14.31Z"/><path d="M60.19,37,48,26.83A17.47,17.47,0,0,0,50.41,18a18.2,18.2,0,0,0-.27-3A7.05,7.05,0,1,0,42.47,3.2a18.73,18.73,0,0,0-20.94,0A7.05,7.05,0,1,0,13.86,15a18.2,18.2,0,0,0-.27,3A17.47,17.47,0,0,0,16,26.83L3.81,37a6.06,6.06,0,0,0-1,8.28,6,6,0,0,0,4.11,2.4,6.49,6.49,0,0,0,.77,0,6,6,0,0,0,3.82-1.37l2.31-2a14.92,14.92,0,0,0,.28,2,6.81,6.81,0,0,0-3,1.32c-3.41,2.68-3.56,8.21-.32,12.34a10.6,10.6,0,0,0,5.87,3.84,8.23,8.23,0,0,0,1.88.22,6.89,6.89,0,0,0,4.32-1.45A6.6,6.6,0,0,0,24.33,61a24.49,24.49,0,0,0,8,1.44A20,20,0,0,0,39.7,61a6.52,6.52,0,0,0,1.41,1.56A6.89,6.89,0,0,0,45.43,64a8.23,8.23,0,0,0,1.88-.22,10.6,10.6,0,0,0,5.87-3.84c3.24-4.13,3.09-9.66-.32-12.34a6.81,6.81,0,0,0-3-1.32,16.86,16.86,0,0,0,.29-2l2.32,2a6,6,0,0,0,3.8,1.36,6.49,6.49,0,0,0,.77,0,6,6,0,0,0,4.11-2.4A6.06,6.06,0,0,0,60.19,37ZM15.88,14.66a.34.34,0,0,0,0-.1.67.67,0,0,0,0-.2.57.57,0,0,0,0-.18,1.22,1.22,0,0,0-.07-.17,1.3,1.3,0,0,0-.1-.15l-.13-.13a.57.57,0,0,0-.16-.11s-.05,0-.08-.06A5.12,5.12,0,1,1,20.8,5.12a.47.47,0,0,0,.09.06l.17.1a.49.49,0,0,0,.17.06.57.57,0,0,0,.18,0h.18l.18,0A.76.76,0,0,0,22,5.24l.1,0A16.81,16.81,0,0,1,42,5.2a.75.75,0,0,0,.13.06l.11.06a1.1,1.1,0,0,0,.26.06h.08l.06,0a1,1,0,0,0,.33-.07L43,5.22l.16-.1a5.06,5.06,0,0,1,3.51-1.41,5.13,5.13,0,0,1,2,9.85s0,0-.08.06a.57.57,0,0,0-.16.11.8.8,0,0,0-.13.13l-.1.15a1.22,1.22,0,0,0-.07.17.57.57,0,0,0,0,.18.67.67,0,0,0,0,.2.34.34,0,0,0,0,.1A15.5,15.5,0,0,1,48.47,18,16.26,16.26,0,0,1,32,34,16.26,16.26,0,0,1,15.53,18,15.5,15.5,0,0,1,15.88,14.66ZM21.69,61a5.3,5.3,0,0,1-4.57.87,8.57,8.57,0,0,1-4.77-3.15c-2.58-3.28-2.59-7.6,0-9.62a5,5,0,0,1,3.13-1,8.22,8.22,0,0,1,6.21,3.32,8.61,8.61,0,0,1,1.93,5.38A5.33,5.33,0,0,1,21.69,61Zm30-2.28a8.57,8.57,0,0,1-4.77,3.15A5.3,5.3,0,0,1,42.31,61c-2.57-2-2.56-6.33,0-9.61a8.2,8.2,0,0,1,6.21-3.32,5,5,0,0,1,3.13,1C54.24,51.14,54.23,55.46,51.65,58.74Zm8-14.66a4.13,4.13,0,0,1-5.89.76l-3.58-3.1a16.31,16.31,0,0,0-3.84-8.67A1,1,0,0,0,45,32.94a1,1,0,0,0-.13,1.36C47.9,38.07,48.9,42,47.9,46.19a10.29,10.29,0,0,0-7.1,4,10,10,0,0,0-1.95,9,19.56,19.56,0,0,1-13.68,0,8.35,8.35,0,0,0,.38-2.38,10.57,10.57,0,0,0-2.35-6.61,10.29,10.29,0,0,0-7.1-4c-1-4.22,0-8.12,3.08-11.89a1,1,0,0,0-.13-1.36,1,1,0,0,0-1.37.13,16.31,16.31,0,0,0-3.84,8.67l-3.56,3.08a4.12,4.12,0,0,1-5.23-6.37l12.05-10a18.63,18.63,0,0,0,29.8,0L59,38.45A4.12,4.12,0,0,1,59.63,44.08Z"/><text x="0" y="79" fill="#000000" font-size="5px" font-weight="bold" font-family="'Helvetica Neue', Helvetica, Arial-Unicode, Arial, Sans-serif">Created by Vector Portal</text><text x="0" y="84" fill="#000000" font-size="5px" font-weight="bold" font-family="'Helvetica Neue', Helvetica, Arial-Unicode, Arial, Sans-serif">from the Noun Project</text></svg>