<svg xmlns="http://www.w3.org/2000/svg" data-name="Layer 1" viewBox="0 0 100 125" x="0px" y="0px"><title>10</title><path d="M50,70.08a5,5,0,0,0,5-5V33.28L65.84,44.12a5,5,0,1,0,7.07-7.07L53.54,17.68A5,5,0,0,0,50,16.21h0a5,5,0,0,0-3.48,1.42h0l0,0L27.08,37.05a5,5,0,0,0,7.07,7.07L45,33.28v31.8A5,5,0,0,0,50,70.08Z"/><path d="M84.76,52a5,5,0,0,0-5,5V70.79a3,3,0,0,1-3,3H23.24a3,3,0,0,1-3-3V57a5,5,0,0,0-10,0V70.79a13,13,0,0,0,13,13H76.76a13,13,0,0,0,13-13V57A5,5,0,0,0,84.76,52Z"/><text x="0" y="115" fill="#000000" font-size="5px" font-weight="bold" font-family="'Helvetica Neue', Helvetica, Arial-Unicode, Arial, Sans-serif">Created by Karan</text><text x="0" y="120" fill="#000000" font-size="5px" font-weight="bold" font-family="'Helvetica Neue', Helvetica, Arial-Unicode, Arial, Sans-serif">from the Noun Project</text></svg>