<svg xmlns="http://www.w3.org/2000/svg" xmlns:xlink="http://www.w3.org/1999/xlink" version="1.1" x="0px" y="0px" viewBox="0 0 100 125" enable-background="new 0 0 100 100" xml:space="preserve"><g><path d="M14.643,95h70.715C91.578,95,95,91.578,95,85.357V14.643C95,8.422,91.578,5,85.357,5H14.643C8.422,5,5,8.422,5,14.643   v70.715C5,91.578,8.422,95,14.643,95z M14.643,17.857c0-1.598,1.617-3.215,3.215-3.215h64.285c1.598,0,3.215,1.617,3.215,3.215   v64.285c0,1.598-1.617,3.215-3.215,3.215H17.857c-1.598,0-3.215-1.617-3.215-3.215V17.857z"/><path d="M30.419,66.784l2.797,2.797c1.545,1.544,3.877,2.42,5.421,0.876L50,59.091l11.363,11.366   c1.544,1.544,3.876,0.668,5.421-0.876l2.797-2.797c1.544-1.545,2.42-3.877,0.872-5.421L59.091,50l11.362-11.363   c1.548-1.544,0.672-3.876-0.872-5.421l-2.797-2.797c-1.545-1.544-3.877-2.42-5.421-0.876L50,40.909L38.637,29.543   c-1.544-1.544-3.876-0.668-5.421,0.876l-2.797,2.797c-1.544,1.545-2.42,3.877-0.876,5.421L40.909,50L29.543,61.363   C27.999,62.907,28.875,65.239,30.419,66.784z"/></g><text x="0" y="115" fill="#000000" font-size="5px" font-weight="bold" font-family="'Helvetica Neue', Helvetica, Arial-Unicode, Arial, Sans-serif">Created by Claudio Gomboli</text><text x="0" y="120" fill="#000000" font-size="5px" font-weight="bold" font-family="'Helvetica Neue', Helvetica, Arial-Unicode, Arial, Sans-serif">from the Noun Project</text></svg>