<svg xmlns="http://www.w3.org/2000/svg" data-name="Layer 1" viewBox="0 0 100 125" x="0px" y="0px"><title>124all</title><path d="M74.11,23.75H46.33l-15.82-8a2,2,0,0,0-.91-.22H15.73a10,10,0,0,0-10,10v49a10,10,0,0,0,10,10H60.11v-.06H77.8a10.06,10.06,0,0,0,9.76-7.85L94,47.28a10,10,0,0,0-9.76-12.16h-.16V33.75A10,10,0,0,0,74.11,23.75ZM9.73,74.5v-49a6,6,0,0,1,6-6h13.4l15.82,8a2,2,0,0,0,.91.22H74.11a6,6,0,0,1,6,6v1.38H31.59A10.06,10.06,0,0,0,21.83,43l-8.2,37.15A6,6,0,0,1,9.73,74.5ZM88.95,41.37a6,6,0,0,1,1.18,5.05L83.66,75.73a6,6,0,0,1-5.86,4.71H17.65l8.08-36.61a6,6,0,0,1,5.86-4.71H84.27A6,6,0,0,1,88.95,41.37Z"/><text x="0" y="115" fill="#000000" font-size="5px" font-weight="bold" font-family="'Helvetica Neue', Helvetica, Arial-Unicode, Arial, Sans-serif">Created by Chandru</text><text x="0" y="120" fill="#000000" font-size="5px" font-weight="bold" font-family="'Helvetica Neue', Helvetica, Arial-Unicode, Arial, Sans-serif">from the Noun Project</text></svg>