<?xml version="1.0" encoding="UTF-8" standalone="no"?>
<!-- Svg Vector Icons : http://www.onlinewebfonts.com/icon -->

<svg
   version="1.1"
   x="0px"
   y="0px"
   viewBox="0 0 518 488"
   enable-background="new 0 0 1000 1000"
   xml:space="preserve"
   id="svg850"
   sodipodi:docname="arrow-right-bold-pink.svg"
   inkscape:version="1.1 (c68e22c387, 2021-05-23)"
   width="518"
   height="488"
   xmlns:inkscape="http://www.inkscape.org/namespaces/inkscape"
   xmlns:sodipodi="http://sodipodi.sourceforge.net/DTD/sodipodi-0.dtd"
   xmlns="http://www.w3.org/2000/svg"
   xmlns:svg="http://www.w3.org/2000/svg"><defs
   id="defs854" /><sodipodi:namedview
   id="namedview852"
   pagecolor="#ffffff"
   bordercolor="#666666"
   borderopacity="1.0"
   inkscape:pageshadow="2"
   inkscape:pageopacity="0.0"
   inkscape:pagecheckerboard="0"
   showgrid="false"
   inkscape:window-width="1366"
   inkscape:window-height="705"
   inkscape:window-x="-8"
   inkscape:window-y="-8"
   inkscape:window-maximized="1"
   inkscape:current-layer="svg850" />
<metadata
   id="metadata840"> Svg Vector Icons : http://www.onlinewebfonts.com/icon </metadata>
<g
   id="g848"
   transform="rotate(180,476.01,475.84454)"><g
     transform="matrix(0.1,0,0,-0.1,0,511)"
     id="g846" /></g>
<g
   id="svgg"
   transform="matrix(-1.098657,-2.1562357,-2.1562357,1.098657,1219.998,670.3099)"
   style="stroke-width:0.413223"><path
     id="path0"
     d="M 295.43485,176.89785 C 282.96285,181.00085 273.34985,192.01685 271.17885,204.69185 270.35185,209.51685 276.66485,353.77185 278.42385,370.25285 280.42785,389.03085 292.55385,400.03185 311.24585,400.03185 327.31685,400.03185 330.15085,397.92885 350.61285,370.81085 366.82685,349.32185 368.61885,347.39385 375.30885,344.24285 L 379.60585,342.21985 408.51185,341.80985 C 436.34485,341.41485 437.58485,341.33385 441.91185,339.60485 461.50285,331.77785 468.95985,307.62385 457.19285,290.10285 453.18985,284.14285 329.72585,182.29985 321.96985,178.55985 314.78985,175.09785 303.12785,174.36785 295.43485,176.89785 M 312.43808,205.12516 C 316.77408,208.12616 426.19158,298.63017 429.26058,301.75617 433.18858,305.75617 434.69112,307.1634 431.79412,310.5334 L 429.53492,311.98903 402.61866,311.68064 C 358.44466,312.36764 355.55466,313.81364 329.59766,348.22564 312.96466,370.27764 314.86359,370.20961 310.72059,370.20961 306.33859,370.20961 305.92753,367.72058 305.35353,362.29258 303.30453,342.89458 299.65162,214.20724 300.81862,211.76024 300.81862,211.76024 301.56604,201.70003 309.10337,204.04165"
     stroke="none"
     fill="#e20049"
     fill-rule="evenodd"
     sodipodi:nodetypes="cccsccccccccccccccscsc"
     style="stroke-width:0.206612" /></g></svg>
